<svg width="1332" height="363" viewBox="0 0 1332 363" fill="none" xmlns="http://www.w3.org/2000/svg">
  <g filter="url(#filter0_d_114_779)">
    <path d="M14.626 34.3955C14.626 23.3498 23.5803 14.3955 34.626 14.3955H1297.16C1308.2 14.3955 1317.16 23.3498 1317.16 34.3955V323.824C1317.16 334.869 1308.2 343.824 1297.16 343.824H34.626C23.5803 343.824 14.626 334.869 14.626 323.824V34.3955Z" fill="#F97316"/>
    <path d="M15.126 34.3955C15.126 23.626 23.8564 14.8955 34.626 14.8955H1297.16C1307.93 14.8955 1316.66 23.626 1316.66 34.3955V323.824C1316.66 334.593 1307.93 343.324 1297.16 343.324H34.626C23.8564 343.324 15.126 334.593 15.126 323.824V34.3955Z" stroke="#EFF0F7"/>
  </g>
  <mask id="mask0_114_779" style="mask-type:alpha" maskUnits="userSpaceOnUse" x="14" y="14" width="1304" height="330">
    <path d="M15.126 34.3955C15.126 23.626 23.8564 14.8955 34.626 14.8955H1297.16C1307.93 14.8955 1316.66 23.626 1316.66 34.3955V323.824C1316.66 334.593 1307.93 343.324 1297.16 343.324H34.626C23.8564 343.324 15.126 334.593 15.126 323.824V34.3955Z" fill="#4A3AFF" stroke="#EFF0F7"/>
  </mask>
  <g mask="url(#mask0_114_779)">
    <path opacity="0.2" d="M935.947 15.3833C935.947 27.0058 938.347 38.5146 943.01 49.2524C947.672 59.9903 954.506 69.747 963.122 77.9654C971.737 86.1837 981.965 92.7029 993.222 97.1507C1004.48 101.598 1016.54 103.888 1028.73 103.888C1040.91 103.888 1052.98 101.598 1064.23 97.1507C1075.49 92.7029 1085.72 86.1837 1094.33 77.9653C1102.95 69.7469 1109.78 59.9903 1114.44 49.2524C1119.11 38.5146 1121.51 27.0058 1121.51 15.3832L1028.73 15.3833L935.947 15.3833Z" fill="white"/>
    <path opacity="0.1" d="M935.113 161.584C935.113 175.215 932.299 188.713 926.83 201.306C921.362 213.9 913.347 225.342 903.242 234.981C893.138 244.62 881.143 252.266 867.941 257.482C854.739 262.698 840.589 265.383 826.299 265.383C812.01 265.383 797.86 262.698 784.658 257.482C771.456 252.266 759.461 244.62 749.356 234.981C739.252 225.342 731.237 213.9 725.768 201.306C720.3 188.713 717.485 175.215 717.485 161.584L826.299 161.584H935.113Z" fill="white"/>
    <rect opacity="0.1" x="1121.48" y="103.408" width="177.64" height="186.224" transform="rotate(90 1121.48 103.408)" fill="white"/>
    <path opacity="0.07" d="M925.699 355.257L1029.95 258.534L1121.38 168.593L1121.38 355.257L925.699 355.257Z" fill="white"/>
    <ellipse opacity="0.07" cx="1219.12" cy="271.901" rx="93" ry="97.4928" transform="rotate(90 1219.12 271.901)" fill="white"/>
    <path opacity="0.1" d="M15.1592 14.209C37.8603 14.209 60.3391 18.4742 81.3122 26.7612C102.285 35.0483 121.342 47.1947 137.394 62.5071C153.446 77.8195 166.179 95.9979 174.867 116.005C183.554 136.011 188.025 157.454 188.025 179.109C188.025 200.764 183.554 222.207 174.867 242.214C166.179 262.22 153.446 280.399 137.394 295.711C121.342 311.023 102.285 323.17 81.3121 331.457C60.339 339.744 37.8602 344.009 15.1591 344.009L15.1591 179.109L15.1592 14.209Z" fill="white"/>
    <rect opacity="0.2" x="1317.16" y="-6.68164" width="186.664" height="195.684" transform="rotate(90 1317.16 -6.68164)" fill="white"/>
    <path opacity="0.2" d="M1294.18 14.3955L1202.19 99.7445L1121.51 179.109L1121.51 14.3955L1294.18 14.3955Z" fill="white"/>
  </g>
  <path d="M91.8158 168.517C90.0931 168.517 88.5518 168.223 87.1918 167.633C85.8544 167.044 84.7891 166.183 83.9958 165.049C83.2251 163.916 82.8284 162.545 82.8058 160.935H87.6678C87.6904 161.638 87.8604 162.273 88.1778 162.839C88.5178 163.406 88.9938 163.859 89.6058 164.199C90.2178 164.517 90.9544 164.675 91.8158 164.675C92.5184 164.675 93.1304 164.573 93.6518 164.369C94.1958 164.143 94.6151 163.814 94.9098 163.383C95.2271 162.953 95.3858 162.42 95.3858 161.785C95.3858 161.105 95.2158 160.539 94.8758 160.085C94.5584 159.632 94.1051 159.247 93.5158 158.929C92.9264 158.589 92.2578 158.295 91.5098 158.045C90.7618 157.796 89.9798 157.535 89.1638 157.263C87.2598 156.606 85.8091 155.767 84.8118 154.747C83.8144 153.705 83.3158 152.345 83.3158 150.667C83.3158 149.262 83.6558 148.061 84.3358 147.063C85.0384 146.043 86.0018 145.261 87.2258 144.717C88.4498 144.173 89.8438 143.901 91.4078 143.901C93.0171 143.901 94.4224 144.185 95.6238 144.751C96.8478 145.295 97.8111 146.089 98.5138 147.131C99.2391 148.174 99.6244 149.398 99.6698 150.803H94.7398C94.7171 150.237 94.5584 149.727 94.2638 149.273C93.9918 148.797 93.6064 148.423 93.1078 148.151C92.6091 147.879 92.0084 147.743 91.3058 147.743C90.7164 147.721 90.1838 147.811 89.7078 148.015C89.2318 148.197 88.8464 148.48 88.5518 148.865C88.2798 149.251 88.1438 149.749 88.1438 150.361C88.1438 150.905 88.2684 151.381 88.5178 151.789C88.7898 152.175 89.1751 152.503 89.6738 152.775C90.1724 153.047 90.7504 153.319 91.4078 153.591C92.0878 153.841 92.8358 154.101 93.6518 154.373C94.8531 154.781 95.9524 155.269 96.9498 155.835C97.9471 156.379 98.7404 157.093 99.3298 157.977C99.9191 158.861 100.214 160.017 100.214 161.445C100.214 162.692 99.8964 163.859 99.2618 164.947C98.6271 166.013 97.6864 166.874 96.4398 167.531C95.1931 168.189 93.6518 168.517 91.8158 168.517ZM110.691 168.109C109.489 168.109 108.435 167.928 107.529 167.565C106.645 167.18 105.953 166.557 105.455 165.695C104.956 164.811 104.707 163.61 104.707 162.091V154.985H101.817V151.245H104.707L105.217 146.655H109.297V151.245H113.785V154.985H109.297V162.159C109.297 162.953 109.467 163.508 109.807 163.825C110.147 164.12 110.725 164.267 111.541 164.267H113.683V168.109H110.691ZM121.732 168.517C120.372 168.517 119.239 168.291 118.332 167.837C117.448 167.384 116.791 166.772 116.36 166.001C115.952 165.231 115.748 164.381 115.748 163.451C115.748 162.409 116.009 161.491 116.53 160.697C117.074 159.904 117.89 159.292 118.978 158.861C120.066 158.408 121.426 158.181 123.058 158.181H127.308C127.308 157.343 127.183 156.663 126.934 156.141C126.707 155.597 126.345 155.189 125.846 154.917C125.37 154.645 124.758 154.509 124.01 154.509C123.149 154.509 122.401 154.713 121.766 155.121C121.131 155.507 120.746 156.107 120.61 156.923H116.156C116.269 155.677 116.666 154.6 117.346 153.693C118.049 152.787 118.978 152.084 120.134 151.585C121.29 151.087 122.593 150.837 124.044 150.837C125.653 150.837 127.047 151.109 128.226 151.653C129.405 152.175 130.311 152.957 130.946 153.999C131.581 155.019 131.898 156.266 131.898 157.739V168.109H128.09L127.58 165.491H127.512C127.195 165.967 126.832 166.398 126.424 166.783C126.039 167.169 125.608 167.486 125.132 167.735C124.656 167.985 124.135 168.177 123.568 168.313C123.001 168.449 122.389 168.517 121.732 168.517ZM123.126 164.981C123.738 164.981 124.271 164.879 124.724 164.675C125.2 164.449 125.608 164.154 125.948 163.791C126.288 163.429 126.549 163.009 126.73 162.533C126.934 162.035 127.07 161.525 127.138 161.003H123.602C122.899 161.003 122.321 161.094 121.868 161.275C121.415 161.434 121.086 161.672 120.882 161.989C120.678 162.284 120.576 162.635 120.576 163.043C120.576 163.451 120.678 163.803 120.882 164.097C121.109 164.392 121.403 164.619 121.766 164.777C122.151 164.913 122.605 164.981 123.126 164.981ZM135.015 168.109V151.245H138.993L139.401 154.747H139.503C139.956 153.727 140.477 152.934 141.067 152.367C141.679 151.801 142.37 151.404 143.141 151.177C143.911 150.951 144.761 150.837 145.691 150.837V155.699H144.467C143.719 155.699 143.039 155.79 142.427 155.971C141.815 156.13 141.305 156.391 140.897 156.753C140.489 157.116 140.171 157.603 139.945 158.215C139.718 158.827 139.605 159.587 139.605 160.493V168.109H135.015ZM155.449 168.109C154.247 168.109 153.193 167.928 152.287 167.565C151.403 167.18 150.711 166.557 150.213 165.695C149.714 164.811 149.465 163.61 149.465 162.091V154.985H146.575V151.245H149.465L149.975 146.655H154.055V151.245H158.543V154.985H154.055V162.159C154.055 162.953 154.225 163.508 154.565 163.825C154.905 164.12 155.483 164.267 156.299 164.267H158.441V168.109H155.449ZM170.702 175.147L174.68 166.205H173.694L166.792 151.245H171.79L176.686 162.125H176.754L181.14 151.245H186.036L175.564 175.147H170.702ZM194.739 168.517C193.107 168.517 191.634 168.143 190.319 167.395C189.004 166.647 187.962 165.605 187.191 164.267C186.443 162.93 186.069 161.4 186.069 159.677C186.069 157.932 186.454 156.402 187.225 155.087C187.996 153.75 189.038 152.707 190.353 151.959C191.668 151.211 193.13 150.837 194.739 150.837C196.371 150.837 197.844 151.211 199.159 151.959C200.474 152.707 201.505 153.75 202.253 155.087C203.024 156.402 203.409 157.932 203.409 159.677C203.409 161.423 203.024 162.964 202.253 164.301C201.482 165.616 200.44 166.647 199.125 167.395C197.833 168.143 196.371 168.517 194.739 168.517ZM194.739 164.607C195.464 164.607 196.122 164.426 196.711 164.063C197.323 163.701 197.81 163.157 198.173 162.431C198.558 161.683 198.751 160.765 198.751 159.677C198.751 158.567 198.558 157.649 198.173 156.923C197.81 156.198 197.323 155.654 196.711 155.291C196.122 154.929 195.476 154.747 194.773 154.747C194.048 154.747 193.379 154.929 192.767 155.291C192.155 155.654 191.668 156.209 191.305 156.957C190.942 157.683 190.761 158.589 190.761 159.677C190.761 160.765 190.942 161.683 191.305 162.431C191.668 163.157 192.144 163.701 192.733 164.063C193.345 164.426 194.014 164.607 194.739 164.607ZM212.593 168.517C211.211 168.517 210.032 168.223 209.057 167.633C208.083 167.044 207.335 166.171 206.813 165.015C206.292 163.837 206.031 162.397 206.031 160.697V151.245H210.621V160.289C210.621 161.695 210.905 162.771 211.471 163.519C212.038 164.267 212.933 164.641 214.157 164.641C214.951 164.641 215.642 164.46 216.231 164.097C216.843 163.712 217.319 163.179 217.659 162.499C217.999 161.797 218.169 160.947 218.169 159.949V151.245H222.759V168.109H218.815L218.441 165.355H218.339C217.818 166.33 217.081 167.101 216.129 167.667C215.177 168.234 213.999 168.517 212.593 168.517ZM226.091 168.109V151.245H230.069L230.477 154.747H230.579C231.032 153.727 231.553 152.934 232.143 152.367C232.755 151.801 233.446 151.404 234.217 151.177C234.987 150.951 235.837 150.837 236.767 150.837V155.699H235.543C234.795 155.699 234.115 155.79 233.503 155.971C232.891 156.13 232.381 156.391 231.973 156.753C231.565 157.116 231.247 157.603 231.021 158.215C230.794 158.827 230.681 159.587 230.681 160.493V168.109H226.091ZM253.627 168.517C252.04 168.517 250.635 168.132 249.411 167.361C248.21 166.591 247.269 165.548 246.589 164.233C245.909 162.896 245.569 161.377 245.569 159.677C245.569 157.977 245.909 156.459 246.589 155.121C247.269 153.784 248.221 152.741 249.445 151.993C250.669 151.223 252.097 150.837 253.729 150.837C254.998 150.837 256.109 151.087 257.061 151.585C258.036 152.061 258.806 152.685 259.373 153.455V144.037H263.963V168.109H260.019L259.645 165.355H259.577C259.192 165.99 258.704 166.545 258.115 167.021C257.548 167.497 256.891 167.86 256.143 168.109C255.395 168.381 254.556 168.517 253.627 168.517ZM254.817 164.641C255.746 164.641 256.551 164.437 257.231 164.029C257.934 163.599 258.478 163.009 258.863 162.261C259.271 161.513 259.475 160.641 259.475 159.643C259.475 158.669 259.271 157.807 258.863 157.059C258.478 156.311 257.934 155.733 257.231 155.325C256.551 154.895 255.746 154.679 254.817 154.679C253.933 154.679 253.14 154.895 252.437 155.325C251.734 155.733 251.19 156.311 250.805 157.059C250.42 157.807 250.227 158.669 250.227 159.643C250.227 160.641 250.42 161.513 250.805 162.261C251.19 163.009 251.734 163.599 252.437 164.029C253.14 164.437 253.933 164.641 254.817 164.641ZM273.005 168.517C271.645 168.517 270.512 168.291 269.605 167.837C268.721 167.384 268.064 166.772 267.633 166.001C267.225 165.231 267.021 164.381 267.021 163.451C267.021 162.409 267.282 161.491 267.803 160.697C268.347 159.904 269.163 159.292 270.251 158.861C271.339 158.408 272.699 158.181 274.331 158.181H278.581C278.581 157.343 278.457 156.663 278.207 156.141C277.981 155.597 277.618 155.189 277.119 154.917C276.643 154.645 276.031 154.509 275.283 154.509C274.422 154.509 273.674 154.713 273.039 155.121C272.405 155.507 272.019 156.107 271.883 156.923H267.429C267.543 155.677 267.939 154.6 268.619 153.693C269.322 152.787 270.251 152.084 271.407 151.585C272.563 151.087 273.867 150.837 275.317 150.837C276.927 150.837 278.321 151.109 279.499 151.653C280.678 152.175 281.585 152.957 282.219 153.999C282.854 155.019 283.171 156.266 283.171 157.739V168.109H279.363L278.853 165.491H278.785C278.468 165.967 278.105 166.398 277.697 166.783C277.312 167.169 276.881 167.486 276.405 167.735C275.929 167.985 275.408 168.177 274.841 168.313C274.275 168.449 273.663 168.517 273.005 168.517ZM274.399 164.981C275.011 164.981 275.544 164.879 275.997 164.675C276.473 164.449 276.881 164.154 277.221 163.791C277.561 163.429 277.822 163.009 278.003 162.533C278.207 162.035 278.343 161.525 278.411 161.003H274.875C274.173 161.003 273.595 161.094 273.141 161.275C272.688 161.434 272.359 161.672 272.155 161.989C271.951 162.284 271.849 162.635 271.849 163.043C271.849 163.451 271.951 163.803 272.155 164.097C272.382 164.392 272.677 164.619 273.039 164.777C273.425 164.913 273.878 164.981 274.399 164.981ZM288.274 175.147L292.252 166.205H291.266L284.364 151.245H289.362L294.258 162.125H294.326L298.712 151.245H303.608L293.136 175.147H288.274ZM312.953 175.147V151.245H316.897L317.271 153.999H317.339C317.747 153.365 318.234 152.809 318.801 152.333C319.367 151.857 320.025 151.495 320.773 151.245C321.521 150.973 322.359 150.837 323.289 150.837C324.898 150.837 326.303 151.223 327.505 151.993C328.706 152.764 329.647 153.818 330.327 155.155C331.007 156.47 331.347 157.977 331.347 159.677C331.347 161.377 331.007 162.896 330.327 164.233C329.647 165.571 328.695 166.625 327.471 167.395C326.247 168.143 324.819 168.517 323.187 168.517C321.917 168.517 320.807 168.279 319.855 167.803C318.903 167.305 318.132 166.67 317.543 165.899V175.147H312.953ZM322.065 164.675C322.994 164.675 323.799 164.471 324.479 164.063C325.181 163.633 325.725 163.043 326.111 162.295C326.496 161.547 326.689 160.686 326.689 159.711C326.689 158.714 326.496 157.841 326.111 157.093C325.725 156.345 325.181 155.767 324.479 155.359C323.799 154.929 322.994 154.713 322.065 154.713C321.158 154.713 320.353 154.929 319.651 155.359C318.948 155.767 318.404 156.345 318.019 157.093C317.633 157.841 317.441 158.703 317.441 159.677C317.441 160.675 317.633 161.547 318.019 162.295C318.404 163.043 318.948 163.633 319.651 164.063C320.353 164.471 321.158 164.675 322.065 164.675ZM342.327 168.517C340.695 168.517 339.222 168.143 337.907 167.395C336.592 166.647 335.55 165.605 334.779 164.267C334.031 162.93 333.657 161.4 333.657 159.677C333.657 157.932 334.042 156.402 334.813 155.087C335.584 153.75 336.626 152.707 337.941 151.959C339.256 151.211 340.718 150.837 342.327 150.837C343.959 150.837 345.432 151.211 346.747 151.959C348.062 152.707 349.093 153.75 349.841 155.087C350.612 156.402 350.997 157.932 350.997 159.677C350.997 161.423 350.612 162.964 349.841 164.301C349.07 165.616 348.028 166.647 346.713 167.395C345.421 168.143 343.959 168.517 342.327 168.517ZM342.327 164.607C343.052 164.607 343.71 164.426 344.299 164.063C344.911 163.701 345.398 163.157 345.761 162.431C346.146 161.683 346.339 160.765 346.339 159.677C346.339 158.567 346.146 157.649 345.761 156.923C345.398 156.198 344.911 155.654 344.299 155.291C343.71 154.929 343.064 154.747 342.361 154.747C341.636 154.747 340.967 154.929 340.355 155.291C339.743 155.654 339.256 156.209 338.893 156.957C338.53 157.683 338.349 158.589 338.349 159.677C338.349 160.765 338.53 161.683 338.893 162.431C339.256 163.157 339.732 163.701 340.321 164.063C340.933 164.426 341.602 164.607 342.327 164.607ZM360.895 168.517C359.399 168.517 358.073 168.268 356.917 167.769C355.761 167.271 354.843 166.591 354.163 165.729C353.483 164.845 353.087 163.848 352.973 162.737H357.529C357.643 163.145 357.835 163.531 358.107 163.893C358.379 164.233 358.742 164.517 359.195 164.743C359.671 164.947 360.215 165.049 360.827 165.049C361.439 165.049 361.938 164.97 362.323 164.811C362.709 164.63 362.992 164.403 363.173 164.131C363.377 163.859 363.479 163.576 363.479 163.281C363.479 162.828 363.332 162.488 363.037 162.261C362.765 162.012 362.357 161.797 361.813 161.615C361.292 161.434 360.669 161.253 359.943 161.071C359.218 160.89 358.47 160.686 357.699 160.459C356.951 160.21 356.26 159.915 355.625 159.575C354.991 159.235 354.481 158.793 354.095 158.249C353.71 157.683 353.517 156.98 353.517 156.141C353.517 155.144 353.789 154.249 354.333 153.455C354.877 152.662 355.659 152.027 356.679 151.551C357.722 151.075 358.969 150.837 360.419 150.837C362.459 150.837 364.08 151.302 365.281 152.231C366.483 153.161 367.197 154.441 367.423 156.073H363.105C362.969 155.507 362.675 155.076 362.221 154.781C361.768 154.464 361.167 154.305 360.419 154.305C359.626 154.305 359.014 154.453 358.583 154.747C358.175 155.042 357.971 155.405 357.971 155.835C357.971 156.153 358.107 156.436 358.379 156.685C358.674 156.912 359.082 157.105 359.603 157.263C360.125 157.422 360.748 157.603 361.473 157.807C362.697 158.102 363.797 158.431 364.771 158.793C365.769 159.133 366.562 159.621 367.151 160.255C367.763 160.867 368.069 161.763 368.069 162.941C368.092 164.007 367.809 164.959 367.219 165.797C366.63 166.636 365.791 167.305 364.703 167.803C363.638 168.279 362.369 168.517 360.895 168.517ZM371.165 168.109V151.245H375.755V168.109H371.165ZM373.443 149.001C372.627 149.001 371.947 148.752 371.403 148.253C370.881 147.755 370.621 147.131 370.621 146.383C370.621 145.635 370.881 145.023 371.403 144.547C371.947 144.049 372.627 143.799 373.443 143.799C374.281 143.799 374.961 144.049 375.483 144.547C376.027 145.023 376.299 145.647 376.299 146.417C376.299 147.143 376.027 147.755 375.483 148.253C374.961 148.752 374.281 149.001 373.443 149.001ZM387.173 168.109C385.972 168.109 384.918 167.928 384.011 167.565C383.127 167.18 382.436 166.557 381.937 165.695C381.439 164.811 381.189 163.61 381.189 162.091V154.985H378.299V151.245H381.189L381.699 146.655H385.779V151.245H390.267V154.985H385.779V162.159C385.779 162.953 385.949 163.508 386.289 163.825C386.629 164.12 387.207 164.267 388.023 164.267H390.165V168.109H387.173ZM393.012 168.109V151.245H397.602V168.109H393.012ZM395.29 149.001C394.474 149.001 393.794 148.752 393.25 148.253C392.729 147.755 392.468 147.131 392.468 146.383C392.468 145.635 392.729 145.023 393.25 144.547C393.794 144.049 394.474 143.799 395.29 143.799C396.129 143.799 396.809 144.049 397.33 144.547C397.874 145.023 398.146 145.647 398.146 146.417C398.146 147.143 397.874 147.755 397.33 148.253C396.809 148.752 396.129 149.001 395.29 149.001ZM405.689 168.109L399.977 151.245H404.805L408.851 164.573H408.953L413.033 151.245H417.793L412.081 168.109H405.689ZM427.463 168.517C425.74 168.517 424.21 168.155 422.873 167.429C421.558 166.704 420.527 165.684 419.779 164.369C419.031 163.055 418.657 161.547 418.657 159.847C418.657 158.079 419.02 156.527 419.745 155.189C420.493 153.829 421.524 152.764 422.839 151.993C424.176 151.223 425.729 150.837 427.497 150.837C429.174 150.837 430.648 151.2 431.917 151.925C433.209 152.651 434.206 153.648 434.909 154.917C435.634 156.164 435.997 157.581 435.997 159.167C435.997 159.394 435.997 159.655 435.997 159.949C435.997 160.221 435.974 160.505 435.929 160.799H421.921V157.977H431.339C431.271 156.935 430.874 156.096 430.149 155.461C429.446 154.827 428.562 154.509 427.497 154.509C426.704 154.509 425.978 154.691 425.321 155.053C424.664 155.393 424.142 155.915 423.757 156.617C423.372 157.32 423.179 158.215 423.179 159.303V160.289C423.179 161.219 423.36 162.023 423.723 162.703C424.086 163.361 424.584 163.871 425.219 164.233C425.876 164.596 426.613 164.777 427.429 164.777C428.268 164.777 428.97 164.596 429.537 164.233C430.104 163.848 430.534 163.361 430.829 162.771H435.521C435.181 163.837 434.637 164.811 433.889 165.695C433.141 166.557 432.223 167.248 431.135 167.769C430.047 168.268 428.823 168.517 427.463 168.517ZM453.579 168.109C452.378 168.109 451.324 167.928 450.417 167.565C449.533 167.18 448.842 166.557 448.343 165.695C447.845 164.811 447.595 163.61 447.595 162.091V154.985H444.705V151.245H447.595L448.105 146.655H452.185V151.245H456.673V154.985H452.185V162.159C452.185 162.953 452.355 163.508 452.695 163.825C453.035 164.12 453.613 164.267 454.429 164.267H456.571V168.109H453.579ZM459.113 168.109V144.037H463.669V153.965H463.737C464.326 152.968 465.097 152.197 466.049 151.653C467.001 151.109 468.123 150.837 469.415 150.837C470.775 150.837 471.931 151.143 472.883 151.755C473.857 152.345 474.594 153.217 475.093 154.373C475.591 155.529 475.841 156.957 475.841 158.657V168.109H471.285V159.065C471.285 157.66 471.001 156.583 470.435 155.835C469.891 155.087 469.007 154.713 467.783 154.713C467.012 154.713 466.309 154.906 465.675 155.291C465.063 155.654 464.575 156.187 464.213 156.889C463.873 157.569 463.703 158.408 463.703 159.405V168.109H459.113ZM487.159 168.517C485.527 168.517 484.054 168.143 482.739 167.395C481.424 166.647 480.382 165.605 479.611 164.267C478.863 162.93 478.489 161.4 478.489 159.677C478.489 157.932 478.874 156.402 479.645 155.087C480.416 153.75 481.458 152.707 482.773 151.959C484.088 151.211 485.55 150.837 487.159 150.837C488.791 150.837 490.264 151.211 491.579 151.959C492.894 152.707 493.925 153.75 494.673 155.087C495.444 156.402 495.829 157.932 495.829 159.677C495.829 161.423 495.444 162.964 494.673 164.301C493.902 165.616 492.86 166.647 491.545 167.395C490.253 168.143 488.791 168.517 487.159 168.517ZM487.159 164.607C487.884 164.607 488.542 164.426 489.131 164.063C489.743 163.701 490.23 163.157 490.593 162.431C490.978 161.683 491.171 160.765 491.171 159.677C491.171 158.567 490.978 157.649 490.593 156.923C490.23 156.198 489.743 155.654 489.131 155.291C488.542 154.929 487.896 154.747 487.193 154.747C486.468 154.747 485.799 154.929 485.187 155.291C484.575 155.654 484.088 156.209 483.725 156.957C483.362 157.683 483.181 158.589 483.181 159.677C483.181 160.765 483.362 161.683 483.725 162.431C484.088 163.157 484.564 163.701 485.153 164.063C485.765 164.426 486.434 164.607 487.159 164.607ZM505.013 168.517C503.631 168.517 502.452 168.223 501.477 167.633C500.503 167.044 499.755 166.171 499.233 165.015C498.712 163.837 498.451 162.397 498.451 160.697V151.245H503.041V160.289C503.041 161.695 503.325 162.771 503.891 163.519C504.458 164.267 505.353 164.641 506.577 164.641C507.371 164.641 508.062 164.46 508.651 164.097C509.263 163.712 509.739 163.179 510.079 162.499C510.419 161.797 510.589 160.947 510.589 159.949V151.245H515.179V168.109H511.235L510.861 165.355H510.759C510.238 166.33 509.501 167.101 508.549 167.667C507.597 168.234 506.419 168.517 505.013 168.517ZM526.229 175.555C524.619 175.555 523.203 175.363 521.979 174.977C520.777 174.592 519.837 174.014 519.157 173.243C518.499 172.473 518.171 171.532 518.171 170.421C518.171 169.628 518.375 168.891 518.783 168.211C519.191 167.531 519.791 166.919 520.585 166.375C521.378 165.809 522.353 165.31 523.509 164.879L525.209 167.157C524.189 167.497 523.452 167.905 522.999 168.381C522.545 168.88 522.319 169.424 522.319 170.013C522.319 170.512 522.477 170.92 522.795 171.237C523.135 171.577 523.599 171.827 524.189 171.985C524.801 172.167 525.481 172.257 526.229 172.257C526.977 172.257 527.611 172.167 528.133 171.985C528.654 171.804 529.051 171.543 529.323 171.203C529.617 170.863 529.765 170.478 529.765 170.047C529.765 169.435 529.549 168.948 529.119 168.585C528.688 168.245 527.849 168.03 526.603 167.939C525.447 167.849 524.427 167.724 523.543 167.565C522.659 167.384 521.877 167.18 521.197 166.953C520.539 166.704 519.973 166.432 519.497 166.137C519.021 165.843 518.635 165.548 518.341 165.253V164.471L521.979 160.663L524.869 161.683L520.993 165.831L522.251 163.723C522.477 163.837 522.715 163.95 522.965 164.063C523.214 164.154 523.52 164.245 523.883 164.335C524.245 164.426 524.71 164.517 525.277 164.607C525.866 164.698 526.603 164.777 527.487 164.845C528.983 164.981 530.207 165.253 531.159 165.661C532.111 166.069 532.813 166.636 533.267 167.361C533.72 168.064 533.947 168.925 533.947 169.945C533.947 170.875 533.663 171.77 533.097 172.631C532.553 173.493 531.714 174.195 530.581 174.739C529.447 175.283 527.997 175.555 526.229 175.555ZM526.263 163.111C524.835 163.111 523.599 162.839 522.557 162.295C521.537 161.751 520.743 161.015 520.177 160.085C519.633 159.156 519.361 158.125 519.361 156.991C519.361 155.858 519.633 154.827 520.177 153.897C520.743 152.968 521.537 152.231 522.557 151.687C523.599 151.121 524.835 150.837 526.263 150.837C527.691 150.837 528.915 151.121 529.935 151.687C530.977 152.231 531.771 152.968 532.315 153.897C532.859 154.827 533.131 155.858 533.131 156.991C533.131 158.125 532.859 159.156 532.315 160.085C531.771 161.015 530.977 161.751 529.935 162.295C528.915 162.839 527.691 163.111 526.263 163.111ZM526.263 159.745C527.124 159.745 527.827 159.519 528.371 159.065C528.937 158.589 529.221 157.898 529.221 156.991C529.221 156.107 528.937 155.439 528.371 154.985C527.827 154.509 527.124 154.271 526.263 154.271C525.379 154.271 524.653 154.509 524.087 154.985C523.543 155.439 523.271 156.107 523.271 156.991C523.271 157.898 523.543 158.589 524.087 159.065C524.653 159.519 525.379 159.745 526.263 159.745ZM529.017 154.373L528.269 151.245H535.341V153.829L529.017 154.373ZM538.269 168.109V144.037H542.825V153.965H542.893C543.482 152.968 544.253 152.197 545.205 151.653C546.157 151.109 547.279 150.837 548.571 150.837C549.931 150.837 551.087 151.143 552.039 151.755C553.014 152.345 553.75 153.217 554.249 154.373C554.748 155.529 554.997 156.957 554.997 158.657V168.109H550.441V159.065C550.441 157.66 550.158 156.583 549.591 155.835C549.047 155.087 548.163 154.713 546.939 154.713C546.168 154.713 545.466 154.906 544.831 155.291C544.219 155.654 543.732 156.187 543.369 156.889C543.029 157.569 542.859 158.408 542.859 159.405V168.109H538.269ZM565.839 168.109C564.638 168.109 563.584 167.928 562.677 167.565C561.793 167.18 561.102 166.557 560.603 165.695C560.105 164.811 559.855 163.61 559.855 162.091V154.985H556.965V151.245H559.855L560.365 146.655H564.445V151.245H568.933V154.985H564.445V162.159C564.445 162.953 564.615 163.508 564.955 163.825C565.295 164.12 565.873 164.267 566.689 164.267H568.831V168.109H565.839ZM578.342 168.517C576.846 168.517 575.52 168.268 574.364 167.769C573.208 167.271 572.29 166.591 571.61 165.729C570.93 164.845 570.534 163.848 570.42 162.737H574.976C575.09 163.145 575.282 163.531 575.554 163.893C575.826 164.233 576.189 164.517 576.642 164.743C577.118 164.947 577.662 165.049 578.274 165.049C578.886 165.049 579.385 164.97 579.77 164.811C580.156 164.63 580.439 164.403 580.62 164.131C580.824 163.859 580.926 163.576 580.926 163.281C580.926 162.828 580.779 162.488 580.484 162.261C580.212 162.012 579.804 161.797 579.26 161.615C578.739 161.434 578.116 161.253 577.39 161.071C576.665 160.89 575.917 160.686 575.146 160.459C574.398 160.21 573.707 159.915 573.072 159.575C572.438 159.235 571.928 158.793 571.542 158.249C571.157 157.683 570.964 156.98 570.964 156.141C570.964 155.144 571.236 154.249 571.78 153.455C572.324 152.662 573.106 152.027 574.126 151.551C575.169 151.075 576.416 150.837 577.866 150.837C579.906 150.837 581.527 151.302 582.728 152.231C583.93 153.161 584.644 154.441 584.87 156.073H580.552C580.416 155.507 580.122 155.076 579.668 154.781C579.215 154.464 578.614 154.305 577.866 154.305C577.073 154.305 576.461 154.453 576.03 154.747C575.622 155.042 575.418 155.405 575.418 155.835C575.418 156.153 575.554 156.436 575.826 156.685C576.121 156.912 576.529 157.105 577.05 157.263C577.572 157.422 578.195 157.603 578.92 157.807C580.144 158.102 581.244 158.431 582.218 158.793C583.216 159.133 584.009 159.621 584.598 160.255C585.21 160.867 585.516 161.763 585.516 162.941C585.539 164.007 585.256 164.959 584.666 165.797C584.077 166.636 583.238 167.305 582.15 167.803C581.085 168.279 579.816 168.517 578.342 168.517ZM586.98 172.291L588.918 163.655H593.338L589.972 172.291H586.98ZM85.9678 221.147L89.9458 212.205H88.9598L82.0578 197.245H87.0558L91.9518 208.125H92.0198L96.4058 197.245H101.302L90.8298 221.147H85.9678ZM110.005 214.517C108.373 214.517 106.899 214.143 105.585 213.395C104.27 212.647 103.227 211.605 102.457 210.267C101.709 208.93 101.335 207.4 101.335 205.677C101.335 203.932 101.72 202.402 102.491 201.087C103.261 199.75 104.304 198.707 105.619 197.959C106.933 197.211 108.395 196.837 110.005 196.837C111.637 196.837 113.11 197.211 114.425 197.959C115.739 198.707 116.771 199.75 117.519 201.087C118.289 202.402 118.675 203.932 118.675 205.677C118.675 207.423 118.289 208.964 117.519 210.301C116.748 211.616 115.705 212.647 114.391 213.395C113.099 214.143 111.637 214.517 110.005 214.517ZM110.005 210.607C110.73 210.607 111.387 210.426 111.977 210.063C112.589 209.701 113.076 209.157 113.439 208.431C113.824 207.683 114.017 206.765 114.017 205.677C114.017 204.567 113.824 203.649 113.439 202.923C113.076 202.198 112.589 201.654 111.977 201.291C111.387 200.929 110.741 200.747 110.039 200.747C109.313 200.747 108.645 200.929 108.033 201.291C107.421 201.654 106.933 202.209 106.571 202.957C106.208 203.683 106.027 204.589 106.027 205.677C106.027 206.765 106.208 207.683 106.571 208.431C106.933 209.157 107.409 209.701 107.999 210.063C108.611 210.426 109.279 210.607 110.005 210.607ZM127.859 214.517C126.476 214.517 125.298 214.223 124.323 213.633C123.348 213.044 122.6 212.171 122.079 211.015C121.558 209.837 121.297 208.397 121.297 206.697V197.245H125.887V206.289C125.887 207.695 126.17 208.771 126.737 209.519C127.304 210.267 128.199 210.641 129.423 210.641C130.216 210.641 130.908 210.46 131.497 210.097C132.109 209.712 132.585 209.179 132.925 208.499C133.265 207.797 133.435 206.947 133.435 205.949V197.245H138.025V214.109H134.081L133.707 211.355H133.605C133.084 212.33 132.347 213.101 131.395 213.667C130.443 214.234 129.264 214.517 127.859 214.517ZM156.313 221.555C154.703 221.555 153.287 221.363 152.063 220.977C150.861 220.592 149.921 220.014 149.241 219.243C148.583 218.473 148.255 217.532 148.255 216.421C148.255 215.628 148.459 214.891 148.867 214.211C149.275 213.531 149.875 212.919 150.669 212.375C151.462 211.809 152.437 211.31 153.593 210.879L155.293 213.157C154.273 213.497 153.536 213.905 153.083 214.381C152.629 214.88 152.403 215.424 152.403 216.013C152.403 216.512 152.561 216.92 152.879 217.237C153.219 217.577 153.683 217.827 154.273 217.985C154.885 218.167 155.565 218.257 156.313 218.257C157.061 218.257 157.695 218.167 158.217 217.985C158.738 217.804 159.135 217.543 159.407 217.203C159.701 216.863 159.849 216.478 159.849 216.047C159.849 215.435 159.633 214.948 159.203 214.585C158.772 214.245 157.933 214.03 156.687 213.939C155.531 213.849 154.511 213.724 153.627 213.565C152.743 213.384 151.961 213.18 151.281 212.953C150.623 212.704 150.057 212.432 149.581 212.137C149.105 211.843 148.719 211.548 148.425 211.253V210.471L152.063 206.663L154.953 207.683L151.077 211.831L152.335 209.723C152.561 209.837 152.799 209.95 153.049 210.063C153.298 210.154 153.604 210.245 153.967 210.335C154.329 210.426 154.794 210.517 155.361 210.607C155.95 210.698 156.687 210.777 157.571 210.845C159.067 210.981 160.291 211.253 161.243 211.661C162.195 212.069 162.897 212.636 163.351 213.361C163.804 214.064 164.031 214.925 164.031 215.945C164.031 216.875 163.747 217.77 163.181 218.631C162.637 219.493 161.798 220.195 160.665 220.739C159.531 221.283 158.081 221.555 156.313 221.555ZM156.347 209.111C154.919 209.111 153.683 208.839 152.641 208.295C151.621 207.751 150.827 207.015 150.261 206.085C149.717 205.156 149.445 204.125 149.445 202.991C149.445 201.858 149.717 200.827 150.261 199.897C150.827 198.968 151.621 198.231 152.641 197.687C153.683 197.121 154.919 196.837 156.347 196.837C157.775 196.837 158.999 197.121 160.019 197.687C161.061 198.231 161.855 198.968 162.399 199.897C162.943 200.827 163.215 201.858 163.215 202.991C163.215 204.125 162.943 205.156 162.399 206.085C161.855 207.015 161.061 207.751 160.019 208.295C158.999 208.839 157.775 209.111 156.347 209.111ZM156.347 205.745C157.208 205.745 157.911 205.519 158.455 205.065C159.021 204.589 159.305 203.898 159.305 202.991C159.305 202.107 159.021 201.439 158.455 200.985C157.911 200.509 157.208 200.271 156.347 200.271C155.463 200.271 154.737 200.509 154.171 200.985C153.627 201.439 153.355 202.107 153.355 202.991C153.355 203.898 153.627 204.589 154.171 205.065C154.737 205.519 155.463 205.745 156.347 205.745ZM159.101 200.373L158.353 197.245H165.425V199.829L159.101 200.373ZM176.179 214.517C174.547 214.517 173.073 214.143 171.759 213.395C170.444 212.647 169.401 211.605 168.631 210.267C167.883 208.93 167.509 207.4 167.509 205.677C167.509 203.932 167.894 202.402 168.665 201.087C169.435 199.75 170.478 198.707 171.793 197.959C173.107 197.211 174.569 196.837 176.179 196.837C177.811 196.837 179.284 197.211 180.599 197.959C181.913 198.707 182.945 199.75 183.693 201.087C184.463 202.402 184.849 203.932 184.849 205.677C184.849 207.423 184.463 208.964 183.693 210.301C182.922 211.616 181.879 212.647 180.565 213.395C179.273 214.143 177.811 214.517 176.179 214.517ZM176.179 210.607C176.904 210.607 177.561 210.426 178.151 210.063C178.763 209.701 179.25 209.157 179.613 208.431C179.998 207.683 180.191 206.765 180.191 205.677C180.191 204.567 179.998 203.649 179.613 202.923C179.25 202.198 178.763 201.654 178.151 201.291C177.561 200.929 176.915 200.747 176.213 200.747C175.487 200.747 174.819 200.929 174.207 201.291C173.595 201.654 173.107 202.209 172.745 202.957C172.382 203.683 172.201 204.589 172.201 205.677C172.201 206.765 172.382 207.683 172.745 208.431C173.107 209.157 173.583 209.701 174.173 210.063C174.785 210.426 175.453 210.607 176.179 210.607ZM194.695 214.109C193.493 214.109 192.439 213.928 191.533 213.565C190.649 213.18 189.957 212.557 189.459 211.695C188.96 210.811 188.711 209.61 188.711 208.091V200.985H185.821V197.245H188.711L189.221 192.655H193.301V197.245H197.789V200.985H193.301V208.159C193.301 208.953 193.471 209.508 193.811 209.825C194.151 210.12 194.729 210.267 195.545 210.267H197.687V214.109H194.695ZM215.048 214.109C213.847 214.109 212.793 213.928 211.886 213.565C211.002 213.18 210.311 212.557 209.812 211.695C209.314 210.811 209.064 209.61 209.064 208.091V200.985H206.174V197.245H209.064L209.574 192.655H213.654V197.245H218.142V200.985H213.654V208.159C213.654 208.953 213.824 209.508 214.164 209.825C214.504 210.12 215.082 210.267 215.898 210.267H218.04V214.109H215.048ZM220.581 214.109V190.037H225.137V199.965H225.205C225.795 198.968 226.565 198.197 227.517 197.653C228.469 197.109 229.591 196.837 230.883 196.837C232.243 196.837 233.399 197.143 234.351 197.755C235.326 198.345 236.063 199.217 236.561 200.373C237.06 201.529 237.309 202.957 237.309 204.657V214.109H232.753V205.065C232.753 203.66 232.47 202.583 231.903 201.835C231.359 201.087 230.475 200.713 229.251 200.713C228.481 200.713 227.778 200.906 227.143 201.291C226.531 201.654 226.044 202.187 225.681 202.889C225.341 203.569 225.171 204.408 225.171 205.405V214.109H220.581ZM240.876 214.109V197.245H245.466V214.109H240.876ZM243.154 195.001C242.338 195.001 241.658 194.752 241.114 194.253C240.592 193.755 240.332 193.131 240.332 192.383C240.332 191.635 240.592 191.023 241.114 190.547C241.658 190.049 242.338 189.799 243.154 189.799C243.992 189.799 244.672 190.049 245.194 190.547C245.738 191.023 246.01 191.647 246.01 192.417C246.01 193.143 245.738 193.755 245.194 194.253C244.672 194.752 243.992 195.001 243.154 195.001ZM256.272 214.517C254.776 214.517 253.45 214.268 252.294 213.769C251.138 213.271 250.22 212.591 249.54 211.729C248.86 210.845 248.464 209.848 248.35 208.737H252.906C253.02 209.145 253.212 209.531 253.484 209.893C253.756 210.233 254.119 210.517 254.572 210.743C255.048 210.947 255.592 211.049 256.204 211.049C256.816 211.049 257.315 210.97 257.7 210.811C258.086 210.63 258.369 210.403 258.55 210.131C258.754 209.859 258.856 209.576 258.856 209.281C258.856 208.828 258.709 208.488 258.414 208.261C258.142 208.012 257.734 207.797 257.19 207.615C256.669 207.434 256.046 207.253 255.32 207.071C254.595 206.89 253.847 206.686 253.076 206.459C252.328 206.21 251.637 205.915 251.002 205.575C250.368 205.235 249.858 204.793 249.472 204.249C249.087 203.683 248.894 202.98 248.894 202.141C248.894 201.144 249.166 200.249 249.71 199.455C250.254 198.662 251.036 198.027 252.056 197.551C253.099 197.075 254.346 196.837 255.796 196.837C257.836 196.837 259.457 197.302 260.658 198.231C261.86 199.161 262.574 200.441 262.8 202.073H258.482C258.346 201.507 258.052 201.076 257.598 200.781C257.145 200.464 256.544 200.305 255.796 200.305C255.003 200.305 254.391 200.453 253.96 200.747C253.552 201.042 253.348 201.405 253.348 201.835C253.348 202.153 253.484 202.436 253.756 202.685C254.051 202.912 254.459 203.105 254.98 203.263C255.502 203.422 256.125 203.603 256.85 203.807C258.074 204.102 259.174 204.431 260.148 204.793C261.146 205.133 261.939 205.621 262.528 206.255C263.14 206.867 263.446 207.763 263.446 208.941C263.469 210.007 263.186 210.959 262.596 211.797C262.007 212.636 261.168 213.305 260.08 213.803C259.015 214.279 257.746 214.517 256.272 214.517Z" fill="white"/>
  <path d="M1103.74 34.6659C1103.74 34.6659 1045.57 17.5349 988.11 52.1849C930.651 86.8349 901.394 151.438 876.264 203.283C851.134 255.127 865.057 305.902 908.594 327.231C952.13 348.559 982.067 312.499 1043.37 307.795C1104.67 303.09 1121.1 310.741 1172.17 274.848C1223.25 238.954 1232.97 159.643 1193.23 103.269C1153.5 46.8943 1103.74 34.6659 1103.74 34.6659Z" fill="#F58220"/>
  <path opacity="0.8" d="M1103.74 34.6659C1103.74 34.6659 1045.57 17.5349 988.11 52.1849C930.651 86.8349 901.394 151.438 876.264 203.283C851.134 255.127 865.057 305.902 908.594 327.231C952.13 348.559 982.067 312.499 1043.37 307.795C1104.67 303.09 1121.1 310.741 1172.17 274.848C1223.25 238.954 1232.97 159.643 1193.23 103.269C1153.5 46.8943 1103.74 34.6659 1103.74 34.6659Z" fill="white"/>
  <path d="M899.968 336.323C899.968 336.323 880.35 294.537 884.611 293.333C888.872 292.129 897.806 298.782 897.806 298.782C897.806 298.782 871.591 228.532 878.378 223.083C885.166 217.634 897.838 245.52 897.838 245.52C897.838 245.52 884.302 202.491 885.894 186.12C887.486 169.749 904.681 185.518 904.681 185.518C904.681 185.518 890.908 126.775 903.698 123.742C916.489 120.709 916.062 190.959 916.062 190.959C916.062 190.959 920.259 140.691 925.383 154.622C930.508 168.553 919.736 215.178 919.736 215.178C919.736 215.178 926.762 199.434 930.666 213.967C934.571 228.5 922.904 287.243 922.904 287.243C922.904 287.243 932.82 277.556 933.747 289.666C934.674 301.776 913.218 339.325 913.218 339.325L901.077 340.56L899.968 336.323Z" fill="#F58220"/>
  <path opacity="0.6" d="M899.968 336.323C899.968 336.323 880.35 294.537 884.611 293.333C888.872 292.129 897.806 298.782 897.806 298.782C897.806 298.782 871.591 228.532 878.378 223.083C885.166 217.634 897.838 245.52 897.838 245.52C897.838 245.52 884.302 202.491 885.894 186.12C887.486 169.749 904.681 185.518 904.681 185.518C904.681 185.518 890.908 126.775 903.698 123.742C916.489 120.709 916.062 190.959 916.062 190.959C916.062 190.959 920.259 140.691 925.383 154.622C930.508 168.553 919.736 215.178 919.736 215.178C919.736 215.178 926.762 199.434 930.666 213.967C934.571 228.5 922.904 287.243 922.904 287.243C922.904 287.243 932.82 277.556 933.747 289.666C934.674 301.776 913.218 339.325 913.218 339.325L901.077 340.56L899.968 336.323Z" fill="white"/>
  <path d="M904.15 338.184C904.15 338.184 887.803 309.118 890.828 303.661C893.854 298.204 902.938 310.931 902.938 310.931C902.938 310.931 882.346 259.451 885.379 254.612C888.413 249.773 898.099 270.967 898.099 270.967C898.099 270.967 894.479 200.075 900.514 202.491C906.549 204.906 907.151 238.828 907.151 238.828C907.151 238.828 903.524 158.289 908.973 160.713C914.422 163.136 913.82 252.759 913.82 252.759C913.82 252.759 924.718 218.236 926.492 233.981C928.266 249.726 912.569 292.121 912.569 292.121C912.569 292.121 927.743 258.81 929.589 276.408C931.434 294.006 917.447 326.637 917.447 326.637C917.447 326.637 922.896 313.315 922.896 320.578C922.896 327.84 918.659 336.933 918.659 336.933" stroke="#263238" stroke-linecap="round" stroke-linejoin="round"/>
  <path d="M883.732 303.7L873.302 338.073H901.552L912.3 303.882L883.732 303.7Z" fill="#263238" stroke="#263238" stroke-linecap="round" stroke-linejoin="round"/>
  <path d="M949.603 338.018H890.734L883.732 303.7H942.602L949.603 338.018Z" fill="white" stroke="#263238" stroke-linecap="round" stroke-linejoin="round"/>
  <path d="M943.537 332.212H894.433L890.766 314.258H939.87L943.537 332.212Z" stroke="#263238" stroke-linecap="round" stroke-linejoin="round"/>
  <path d="M894.986 314.329L898.622 332.133" stroke="#263238" stroke-linecap="round" stroke-linejoin="round"/>
  <path d="M899.493 314.329L903.128 332.133" stroke="#263238" stroke-linecap="round" stroke-linejoin="round"/>
  <path d="M904 314.329L907.635 332.133" stroke="#263238" stroke-linecap="round" stroke-linejoin="round"/>
  <path d="M908.498 314.329L912.133 332.133" stroke="#263238" stroke-linecap="round" stroke-linejoin="round"/>
  <path d="M913.005 314.329L916.64 332.133" stroke="#263238" stroke-linecap="round" stroke-linejoin="round"/>
  <path d="M917.511 314.329L921.146 332.133" stroke="#263238" stroke-linecap="round" stroke-linejoin="round"/>
  <path d="M922.01 314.329L925.645 332.133" stroke="#263238" stroke-linecap="round" stroke-linejoin="round"/>
  <path d="M926.517 314.329L930.152 332.133" stroke="#263238" stroke-linecap="round" stroke-linejoin="round"/>
  <path d="M931.015 314.329L934.65 332.133" stroke="#263238" stroke-linecap="round" stroke-linejoin="round"/>
  <path d="M935.521 314.329L939.157 332.133" stroke="#263238" stroke-linecap="round" stroke-linejoin="round"/>
  <path d="M891.604 317.806H940.431" stroke="#263238" stroke-linecap="round" stroke-linejoin="round"/>
  <path d="M892.334 321.386H941.161" stroke="#263238" stroke-linecap="round" stroke-linejoin="round"/>
  <path d="M893.07 324.973H941.889" stroke="#263238" stroke-linecap="round" stroke-linejoin="round"/>
  <path d="M893.799 328.553H942.626" stroke="#263238" stroke-linecap="round" stroke-linejoin="round"/>
  <path d="M912.157 311.153H890.353L890.005 309.411H911.801L912.157 311.153Z" fill="#263238"/>
  <path d="M1209.7 250.272H1138.69C1135.34 250.351 1132.14 251.622 1129.65 253.856C1127.17 256.09 1125.56 259.139 1125.13 262.453L1116.41 339.459H1199.57L1209.7 250.272Z" fill="white" stroke="#263238" stroke-linecap="round" stroke-linejoin="round"/>
  <path d="M1210.07 250.272C1207.29 250.337 1204.63 251.394 1202.57 253.25C1200.5 255.106 1199.17 257.64 1198.81 260.394L1189.85 339.459H1210.08L1219.04 260.394C1219.23 259.119 1219.13 257.82 1218.76 256.586C1218.39 255.352 1217.76 254.214 1216.9 253.25C1216.05 252.286 1215 251.521 1213.82 251.006C1212.63 250.492 1211.36 250.241 1210.07 250.272Z" fill="#263238" stroke="#263238" stroke-linecap="round" stroke-linejoin="round"/>
  <path d="M1115.68 227.138C1110.69 230.701 1105.29 233.662 1099.61 235.961C1089.53 240.158 1085.47 241.425 1085.47 241.425L1088.27 337.891H1161.46C1161.46 337.891 1152.08 277.406 1152.08 257.107C1152.08 236.808 1152.92 232.848 1152.92 232.848L1128.84 226.686L1115.68 227.138Z" fill="#F58220" stroke="#263238" stroke-linecap="round" stroke-linejoin="round"/>
  <path d="M1107.69 231.201C1105.41 247.585 1104.06 264.085 1103.64 280.621C1103.22 305.403 1107.98 338.437 1107.98 338.437H1054.35C1061.02 325.822 1065.79 312.292 1068.51 298.283C1072.47 278.222 1075.63 244.213 1076.47 243.793C1077.31 243.374 1105.74 232.848 1107.69 231.201Z" fill="#263238" stroke="#263238" stroke-linecap="round" stroke-linejoin="round"/>
  <path d="M1083.34 338.445C1083.34 338.445 1077.88 301.483 1078.15 292.802C1078.43 284.122 1079.81 254.723 1079.81 254.723" stroke="#616161" stroke-linecap="round" stroke-linejoin="round"/>
  <path d="M1137.8 228.682C1137.8 228.682 1130.94 260.18 1130.38 286.086C1129.81 311.993 1128 338.588 1128 338.588H1171.36C1171.36 338.588 1171.93 314.923 1171.36 306.805C1170.8 298.687 1170.8 300.366 1170.8 300.366L1187.61 304.706C1187.61 304.706 1176.82 252.759 1174.86 247.025C1172.91 241.291 1173.88 239.461 1172.62 238.479C1171.36 237.497 1137.8 228.682 1137.8 228.682Z" fill="#263238" stroke="#263238" stroke-linecap="round" stroke-linejoin="round"/>
  <path d="M1059.48 317.03C1060.61 318.763 1061.94 320.357 1063.44 321.782C1065.36 323.429 1069.49 322.574 1071.68 324.823C1073.88 327.072 1071.48 333.939 1068.7 336.339C1063.95 340.433 1066.47 328.007 1066.47 328.007C1064.79 329.155 1062.94 330.025 1060.99 330.581C1058.3 331.199 1051.37 329.092 1049.05 328.997C1046.73 328.902 1043.5 328.458 1042.27 325.876C1041.03 323.294 1048.7 320.182 1052.1 318.946C1054.51 318.12 1056.97 317.48 1059.48 317.03Z" fill="white" stroke="#263238" stroke-linecap="round" stroke-linejoin="round"/>
  <path d="M1044.81 320.673C1044.08 320.478 1043.3 320.501 1042.58 320.74C1041.87 320.98 1041.23 321.424 1040.76 322.019C1039.18 324.102 1036.01 333.511 1036.94 335.325C1037.86 337.139 1040.26 334.596 1041.4 331.61C1041.89 330.171 1042.54 328.792 1043.34 327.5C1043.34 327.5 1044.59 328.11 1045.47 326.478C1046.35 324.847 1047.23 322.399 1044.81 320.673Z" fill="white" stroke="#263238" stroke-linecap="round" stroke-linejoin="round"/>
  <path d="M1049.29 319.033C1048.52 318.592 1047.63 318.429 1046.75 318.574C1045.88 318.718 1045.08 319.16 1044.5 319.825C1042.28 322.201 1043.8 332.189 1044.98 335.246C1046.16 338.303 1048.4 337.923 1048.73 336.038C1049.06 334.153 1049.44 324.752 1049.56 322.574C1049.66 321.387 1049.57 320.192 1049.29 319.033Z" fill="white" stroke="#263238" stroke-linecap="round" stroke-linejoin="round"/>
  <path d="M1054.04 317.956C1053.29 317.48 1052.38 317.297 1051.5 317.443C1050.62 317.589 1049.82 318.053 1049.25 318.748C1047.04 321.259 1048.67 331.824 1049.89 335.071C1051.1 338.319 1053.33 337.938 1053.65 335.919C1053.97 333.899 1054.25 323.976 1054.35 321.663C1054.43 320.419 1054.32 319.171 1054.04 317.956Z" fill="white" stroke="#263238" stroke-linecap="round" stroke-linejoin="round"/>
  <path d="M1061 319.239C1061 319.239 1059.15 315.113 1056.14 315.794C1053.13 316.475 1052.18 320.546 1052.74 326.724C1053.29 332.901 1054.45 337.812 1056.13 337.986C1057.81 338.16 1059.64 334.43 1059.97 329.607C1060.3 324.783 1060.8 321.9 1060.8 321.9" fill="white"/>
  <path d="M1061 319.239C1061 319.239 1059.15 315.113 1056.14 315.794C1053.13 316.475 1052.18 320.546 1052.74 326.724C1053.29 332.901 1054.45 337.812 1056.13 337.986C1057.81 338.16 1059.64 334.43 1059.97 329.607C1060.3 324.783 1060.8 321.9 1060.8 321.9" stroke="#263238" stroke-linecap="round" stroke-linejoin="round"/>
  <path d="M1099.69 276.067H1081.03V304.722H1099.69V276.067Z" fill="#F58220" stroke="#263238" stroke-linecap="round" stroke-linejoin="round"/>
  <path d="M1091.66 267.72H1088.23V280.978H1091.66V267.72Z" fill="white" stroke="#263238" stroke-linecap="round" stroke-linejoin="round"/>
  <path d="M1093.63 284.09H1085.61V294.569H1093.63V284.09Z" fill="white" stroke="#263238" stroke-linecap="round" stroke-linejoin="round"/>
  <path d="M1084.3 297.681H1095.27" stroke="#263238" stroke-linecap="round" stroke-linejoin="round"/>
  <path d="M1082.66 299.97H1096.74" stroke="#263238" stroke-linecap="round" stroke-linejoin="round"/>
  <path d="M1113.72 223.083C1113.72 223.083 1107.69 227.138 1106.59 230.361C1105.49 233.585 1100.85 247.302 1099.03 252.482C1097.21 257.661 1086.85 262.144 1088.25 263.126C1089.65 264.108 1103.24 265.36 1103.24 265.36C1103.24 265.36 1106.32 277.406 1107.01 280.487C1107.71 283.568 1111.92 292.945 1111.92 292.945C1111.92 292.945 1124.37 277.96 1126.34 273.937C1127.69 271.216 1129.23 268.596 1130.96 266.096C1130.96 266.096 1136.28 267.355 1139.67 267.918C1143.06 268.48 1152.27 269.312 1151.85 267.775C1151.43 266.239 1146.81 259.515 1144.99 252.933C1143.17 246.352 1144.29 231.929 1142.05 226.33C1139.82 220.73 1134.92 219.891 1133.23 219.471C1131.53 219.051 1116.24 220.699 1113.72 223.083Z" fill="#F58220" stroke="#263238" stroke-linecap="round" stroke-linejoin="round"/>
  <path d="M1111.76 218.742C1111.76 218.742 1113.58 228.959 1113.34 237.22C1113.1 245.48 1110.12 263.966 1110.26 273.486C1110.4 279.809 1110.92 286.119 1111.8 292.383C1111.8 292.383 1125.52 273.486 1130.56 258.081C1135.6 242.677 1137 229.522 1137 228.54C1137 227.557 1137.28 204.74 1137.28 204.74C1137.28 204.74 1122.68 220.002 1111.76 218.742Z" fill="white" stroke="#263238" stroke-linecap="round" stroke-linejoin="round"/>
  <path d="M1137.13 214.426C1137.18 209.294 1137.24 204.74 1137.24 204.74C1137.24 204.74 1122.68 220.002 1111.76 218.742C1111.76 218.742 1112.27 221.617 1112.71 225.554C1114.14 226.532 1115.72 227.258 1117.4 227.7C1122.45 228.714 1128.11 225.886 1131.95 221.031C1133.37 219.241 1135.25 216.802 1137.13 214.426Z" fill="#263238" stroke="#263238" stroke-linecap="round" stroke-linejoin="round"/>
  <path d="M1147.11 168.054C1154.81 168.054 1161.04 161.881 1161.04 154.266C1161.04 146.65 1154.81 140.477 1147.11 140.477C1139.42 140.477 1133.18 146.65 1133.18 154.266C1133.18 161.881 1139.42 168.054 1147.11 168.054Z" fill="#263238" stroke="#263238" stroke-linecap="round" stroke-linejoin="round"/>
  <path d="M1090.7 178.358C1090.7 178.358 1083.22 176.331 1081.99 172.292C1080.75 168.252 1085.23 154.076 1099.78 146.813C1114.34 139.55 1127.69 143.574 1133.55 145.189C1139.41 146.805 1143.67 149.846 1147.51 160.562C1151.35 171.278 1151.55 179.57 1150.34 183.609C1149.62 186.025 1148.74 188.39 1147.71 190.69C1147.71 190.69 1140.23 191.482 1138.2 188.464C1136.17 185.447 1136.99 170.248 1128.29 166.629C1119.6 163.009 1103.02 165.045 1098.99 168.648C1094.96 172.252 1090.7 178.358 1090.7 178.358Z" fill="#263238" stroke="#263238" stroke-linecap="round" stroke-linejoin="round"/>
  <path d="M1089.49 175.729C1089.49 175.729 1091.31 187.253 1091.31 193.517C1091.31 199.782 1096.36 208.486 1098.99 210.941C1101.62 213.396 1110.32 221.657 1115.37 222.671C1120.42 223.685 1126.08 220.849 1129.93 215.994C1133.77 211.139 1141.25 201.437 1141.25 201.437C1142.92 201.623 1144.6 201.22 1146 200.297C1147.41 199.374 1148.44 197.99 1148.93 196.384C1150.96 190.516 1149.95 183.847 1146.51 183.039C1143.07 182.231 1140.65 186.27 1140.65 186.27C1140.65 186.27 1137.81 175.357 1134.18 169.892L1128.92 161.972L1135.63 153.585C1135.7 153.494 1135.76 153.388 1135.79 153.276C1135.82 153.163 1135.82 153.045 1135.81 152.929C1135.79 152.813 1135.75 152.702 1135.69 152.602C1135.63 152.503 1135.55 152.416 1135.45 152.349C1135.27 152.22 1135.05 152.165 1134.83 152.196C1134.61 152.227 1134.41 152.341 1134.27 152.515L1127.71 160.966C1127.71 160.966 1114.77 158.741 1103.44 164.403C1092.12 170.066 1089.49 175.729 1089.49 175.729Z" fill="white" stroke="#263238" stroke-linecap="round" stroke-linejoin="round"/>
  <path d="M1131.03 187.11L1129.21 189.541" stroke="#263238" stroke-linecap="round" stroke-linejoin="round"/>
  <path d="M1106.07 201.002C1106.07 201.002 1106.48 202.213 1109.1 202.823C1110.33 203.109 1111.61 203.032 1112.8 202.601C1113.98 202.171 1115.02 201.406 1115.77 200.4" stroke="#263238" stroke-linecap="round" stroke-linejoin="round"/>
  <path d="M1109.11 207.504C1111.61 208.066 1114.2 207.971 1116.65 207.227C1119.09 206.482 1121.3 205.115 1123.06 203.259C1123.06 203.259 1121.25 210.941 1117.6 212.359C1113.96 213.777 1113.76 209.928 1113.76 209.928L1109.11 207.504Z" stroke="#263238" stroke-linecap="round" stroke-linejoin="round"/>
  <path d="M1116.38 192.108C1118.06 190.53 1120.1 189.391 1122.32 188.791C1124.54 188.192 1126.88 188.15 1129.12 188.67" stroke="#263238" stroke-width="2" stroke-linecap="round" stroke-linejoin="round"/>
  <path d="M1103.24 191.704C1103.24 191.704 1098.79 187.253 1094.14 189.676" stroke="#263238" stroke-width="2" stroke-linecap="round" stroke-linejoin="round"/>
  <path d="M1092.73 188.67L1094.94 190.896" stroke="#263238" stroke-linecap="round" stroke-linejoin="round"/>
  <path d="M1114.96 181.186C1114.96 181.186 1120.99 174.24 1129.7 180.782" stroke="#263238" stroke-linecap="round" stroke-linejoin="round"/>
  <path d="M1102.83 180.98C1102.83 180.98 1097.37 176.735 1091.91 181.59" stroke="#263238" stroke-linecap="round" stroke-linejoin="round"/>
  <path d="M1121.14 191.022C1121.15 191.22 1121.1 191.415 1120.99 191.582C1120.89 191.75 1120.74 191.882 1120.56 191.961C1120.37 192.04 1120.17 192.063 1119.98 192.026C1119.79 191.99 1119.61 191.895 1119.47 191.756C1119.33 191.616 1119.23 191.437 1119.2 191.243C1119.16 191.049 1119.18 190.849 1119.26 190.668C1119.34 190.487 1119.47 190.334 1119.64 190.229C1119.81 190.124 1120 190.072 1120.2 190.08C1120.45 190.09 1120.68 190.192 1120.86 190.367C1121.03 190.542 1121.13 190.776 1121.14 191.022Z" fill="#263238"/>
  <path d="M1098.02 190.175C1098.03 190.37 1097.97 190.56 1097.86 190.723C1097.76 190.885 1097.6 191.012 1097.42 191.088C1097.24 191.164 1097.05 191.184 1096.85 191.147C1096.66 191.11 1096.49 191.017 1096.35 190.88C1096.21 190.743 1096.12 190.568 1096.08 190.377C1096.04 190.187 1096.06 189.989 1096.13 189.809C1096.21 189.629 1096.33 189.475 1096.5 189.367C1096.66 189.259 1096.85 189.201 1097.04 189.201C1097.3 189.201 1097.55 189.303 1097.73 189.486C1097.92 189.668 1098.02 189.916 1098.02 190.175Z" fill="#263238"/>
  <path d="M1145.81 170.454C1145.81 170.454 1146.5 179.554 1144.82 186.413L1147.48 187.253C1147.48 187.253 1149.58 176.751 1148.6 170.874L1145.81 170.454Z" fill="#F58220" stroke="#263238" stroke-linecap="round" stroke-linejoin="round"/>
  <path d="M1127.72 143.835C1130.64 145.296 1133.25 147.323 1135.39 149.798C1137.53 152.274 1139.16 155.149 1140.18 158.257C1143.4 168.617 1142.98 171.84 1144.93 172.957C1146.89 174.074 1150.68 174.779 1150.81 172.26C1150.95 169.741 1150.07 158.503 1144.47 151.533C1140.28 146.227 1131.22 143.978 1127.72 143.835Z" fill="#F58220" stroke="#263238" stroke-linecap="round" stroke-linejoin="round"/>
  <path d="M1146.91 184.409C1142.88 183.174 1138.46 185.993 1137.01 190.674C1135.68 195.006 1137.38 199.426 1140.82 201.057C1138.29 207.47 1134.54 213.327 1129.77 218.299C1128.84 218.184 1127.9 218.422 1127.14 218.964C1125.7 219.938 1125.06 221.53 1125.74 222.528C1126.41 223.526 1128.11 223.542 1129.56 222.576C1131.01 221.61 1131.53 220.2 1131.07 219.234C1135.95 214.141 1139.77 208.137 1142.33 201.564C1146.18 202.356 1150.25 199.6 1151.6 195.141C1153.04 190.452 1150.95 185.645 1146.91 184.409Z" fill="#F58220" stroke="#263238" stroke-linecap="round" stroke-linejoin="round"/>
  <path d="M1150.34 193.565C1149.65 196.559 1146.95 198.507 1144.3 197.905C1141.65 197.303 1140.05 194.381 1140.73 191.387C1141.41 188.393 1144.11 186.445 1146.76 187.039C1149.42 187.633 1151.02 190.563 1150.34 193.565Z" fill="#F58220" stroke="#263238" stroke-linecap="round" stroke-linejoin="round"/>
  <path d="M1149.56 242.962C1149.56 242.962 1145.64 233.165 1144.81 231.343C1143.98 229.522 1150.83 218.742 1151.94 217.198C1153.04 215.654 1155.15 212.446 1155.15 211.741C1155.15 211.036 1147.18 203.196 1145.49 201.936C1143.8 200.677 1141.01 203.52 1141.01 203.52C1141.01 203.52 1133.74 213.183 1133.74 214.299C1133.74 215.416 1137.23 218.917 1137.23 218.917C1137.23 218.917 1131.77 226.758 1132.48 229.838C1133.18 232.919 1135.98 235.58 1135.98 235.58L1139.9 250.7L1149.56 242.962Z" fill="white" stroke="#263238" stroke-linecap="round" stroke-linejoin="round"/>
  <path d="M1137.24 218.877C1137.24 218.877 1141.99 215.099 1141.58 213.983C1141.41 213.651 1141.15 213.378 1140.83 213.202C1140.5 213.027 1140.13 212.956 1139.76 213" stroke="#263238" stroke-linecap="round" stroke-linejoin="round"/>
  <path d="M1140.6 204.74C1141.02 204.74 1153.34 212.858 1153.06 214.244C1152.82 215.267 1152.44 216.255 1151.94 217.182" stroke="#263238" stroke-linecap="round" stroke-linejoin="round"/>
  <path d="M1142 203.481C1142 203.481 1153.62 210.759 1153.88 212.018C1153.94 212.432 1153.89 212.852 1153.74 213.243C1153.59 213.633 1153.36 213.982 1153.04 214.26" stroke="#263238" stroke-linecap="round" stroke-linejoin="round"/>
  <path d="M1143.26 202.221C1143.26 202.221 1155.44 210.482 1155.14 211.725C1154.81 212.745 1154.29 213.693 1153.61 214.521" stroke="#263238" stroke-linecap="round" stroke-linejoin="round"/>
  <path d="M1151.24 241.845L1132.48 252.648C1132.48 252.648 1156.84 310.607 1161.32 318.447C1165.8 326.288 1177.84 328.11 1184.15 326.011C1190.45 323.912 1193.52 311.311 1191.43 305.989C1189.33 300.667 1174.2 277.406 1166.93 265.779C1159.66 254.153 1151.24 241.845 1151.24 241.845Z" fill="#263238" stroke="#263238" stroke-linecap="round" stroke-linejoin="round"/>
  <path d="M1141.32 272.448C1141.32 272.448 1161.92 312.048 1167.19 319.968" stroke="#616161" stroke-linecap="round" stroke-linejoin="round"/>
  <path d="M1152.93 246.542L1181.98 290.894" stroke="#616161" stroke-linecap="round" stroke-linejoin="round"/>
  <path d="M1070.58 189.177V163.683C1070.58 162.7 1070.19 161.757 1069.5 161.062C1068.8 160.367 1067.86 159.976 1066.87 159.976H1004.69C1003.71 159.976 1002.77 160.367 1002.07 161.062C1001.38 161.757 1000.99 162.7 1000.99 163.683V189.177C1000.99 190.16 1001.38 191.103 1002.07 191.798C1002.77 192.493 1003.71 192.884 1004.69 192.884H1058.09L1070.25 204.582L1067.82 192.749C1068.61 192.541 1069.31 192.079 1069.81 191.433C1070.31 190.787 1070.58 189.994 1070.58 189.177Z" fill="white" stroke="#263238" stroke-linecap="round" stroke-linejoin="round"/>
  <path d="M1023.5 178.707C1025.04 178.707 1026.28 177.462 1026.28 175.927C1026.28 174.392 1025.04 173.147 1023.5 173.147C1021.97 173.147 1020.72 174.392 1020.72 175.927C1020.72 177.462 1021.97 178.707 1023.5 178.707Z" fill="#263238"/>
  <path d="M1035.78 178.707C1037.32 178.707 1038.56 177.462 1038.56 175.927C1038.56 174.392 1037.32 173.147 1035.78 173.147C1034.25 173.147 1033 174.392 1033 175.927C1033 177.462 1034.25 178.707 1035.78 178.707Z" fill="#263238"/>
  <path d="M1048.07 178.707C1049.6 178.707 1050.84 177.462 1050.84 175.927C1050.84 174.392 1049.6 173.147 1048.07 173.147C1046.53 173.147 1045.29 174.392 1045.29 175.927C1045.29 177.462 1046.53 178.707 1048.07 178.707Z" fill="#263238"/>
  <path d="M1011.09 188.591V182.889L1005.09 181.558C1004.76 180.4 1004.3 179.284 1003.72 178.232L1007.01 173.052L1002.98 169.021L997.804 172.315C996.758 171.726 995.643 171.266 994.486 170.945L993.147 164.95H987.445L986.114 170.945C984.954 171.265 983.837 171.725 982.788 172.315L977.64 169.021L973.609 173.052L976.848 178.2C976.258 179.249 975.797 180.366 975.478 181.526L969.482 182.857V188.559L975.478 189.898C975.797 191.066 976.257 192.191 976.848 193.248L973.553 198.428L977.585 202.459L982.764 199.164C983.814 199.754 984.931 200.217 986.091 200.542L987.421 206.53H993.124L994.462 200.542C995.619 200.215 996.732 199.753 997.781 199.164L1002.96 202.459L1006.99 198.428L1003.72 193.248C1004.3 192.198 1004.76 191.085 1005.09 189.93L1011.09 188.591ZM990.312 193.105C988.855 193.105 987.431 192.673 986.22 191.864C985.009 191.055 984.065 189.904 983.507 188.559C982.95 187.213 982.804 185.732 983.088 184.303C983.372 182.874 984.074 181.562 985.104 180.532C986.134 179.501 987.446 178.8 988.875 178.516C990.304 178.232 991.785 178.377 993.131 178.935C994.477 179.492 995.627 180.436 996.436 181.648C997.246 182.859 997.678 184.283 997.678 185.74C997.678 186.707 997.487 187.665 997.117 188.559C996.747 189.452 996.204 190.264 995.52 190.948C994.836 191.632 994.024 192.175 993.131 192.545C992.237 192.915 991.279 193.105 990.312 193.105Z" fill="#263238" stroke="#263238" stroke-linecap="round" stroke-linejoin="round"/>
  <path d="M960.825 338.374H1091.82V333.091H960.825V338.374Z" fill="white" stroke="#263238" stroke-linecap="round" stroke-linejoin="round"/>
  <path d="M940.709 338.374H1054.88V333.091H940.709V338.374Z" fill="white" stroke="#263238" stroke-linecap="round" stroke-linejoin="round"/>
  <path d="M938.5 323.69H1047.73L1035.96 240.301H926.723L938.5 323.69Z" fill="white" stroke="#263238" stroke-linecap="round" stroke-linejoin="round"/>
  <path d="M933.977 323.69H1043.21L1031.43 240.301H922.2L933.977 323.69Z" fill="#263238" stroke="#263238" stroke-linecap="round" stroke-linejoin="round"/>
  <path d="M967.447 284.93L956.485 338.374H984.673L995.634 284.93H967.447ZM986.566 300.77C986.52 300.994 986.398 301.196 986.22 301.34C986.042 301.485 985.82 301.563 985.591 301.562L969.625 301.404C969.475 301.402 969.328 301.366 969.194 301.3C969.06 301.233 968.943 301.138 968.851 301.02C968.759 300.902 968.694 300.765 968.663 300.619C968.631 300.473 968.632 300.321 968.666 300.176L970.108 294.18C970.154 293.956 970.276 293.755 970.453 293.61C970.631 293.466 970.853 293.388 971.082 293.388L987.057 293.539C987.205 293.542 987.352 293.578 987.485 293.645C987.618 293.712 987.734 293.808 987.825 293.926C987.916 294.043 987.98 294.18 988.011 294.326C988.043 294.471 988.041 294.622 988.007 294.767L986.566 300.77Z" fill="white" stroke="#263238" stroke-linecap="round" stroke-linejoin="round"/>
  <path d="M858.246 342.207L1226.92 342.207V338.374L858.246 338.374V342.207Z" fill="#263238" stroke="#263238" stroke-linecap="round" stroke-linejoin="round"/>
  <path d="M1122.47 85.1638L1120.14 78.408H1096.75L1098.86 118.008H1153.24V85.1638H1122.47Z" stroke="#263238" stroke-linecap="round" stroke-linejoin="round"/>
  <path d="M1153.24 118.008L1157.88 81.7265H1121.05" stroke="#263238" stroke-linecap="round" stroke-linejoin="round"/>
  <path d="M995.919 104.785C999.37 90.0714 990.24 75.3464 975.527 71.8955C960.814 68.4445 946.089 77.5744 942.638 92.2876C939.187 107.001 948.317 121.726 963.03 125.177C977.743 128.628 992.468 119.498 995.919 104.785Z" stroke="#263238" stroke-linecap="round" stroke-linejoin="round"/>
  <path d="M990.733 103.679C993.565 91.836 986.26 79.9388 974.417 77.1063C962.573 74.2739 950.676 81.5788 947.843 93.4223C945.011 105.266 952.316 117.163 964.159 119.995C976.003 122.828 987.9 115.523 990.733 103.679Z" stroke="#263238" stroke-linecap="round" stroke-linejoin="round"/>
  <path d="M972.206 98.5407C972.206 99.1187 972.035 99.6837 971.714 100.164C971.393 100.645 970.936 101.019 970.402 101.241C969.868 101.462 969.281 101.52 968.714 101.407C968.147 101.294 967.626 101.016 967.217 100.607C966.809 100.198 966.53 99.6777 966.417 99.1108C966.305 98.5439 966.363 97.9563 966.584 97.4223C966.805 96.8883 967.18 96.4318 967.66 96.1107C968.141 95.7896 968.706 95.6182 969.284 95.6182C970.059 95.6182 970.802 95.9261 971.35 96.4742C971.898 97.0222 972.206 97.7656 972.206 98.5407Z" stroke="#263238" stroke-linecap="round" stroke-linejoin="round"/>
  <path d="M969.197 78.1466V83.6035" stroke="#263238" stroke-linecap="round" stroke-linejoin="round"/>
  <path d="M969.197 113.589V119.038" stroke="#263238" stroke-linecap="round" stroke-linejoin="round"/>
  <path d="M954.743 84.1342L958.592 87.9912" stroke="#263238" stroke-linecap="round" stroke-linejoin="round"/>
  <path d="M979.802 109.193L983.651 113.05" stroke="#263238" stroke-linecap="round" stroke-linejoin="round"/>
  <path d="M948.756 98.5961H954.205" stroke="#263238" stroke-linecap="round" stroke-linejoin="round"/>
  <path d="M984.189 98.5961H989.638" stroke="#263238" stroke-linecap="round" stroke-linejoin="round"/>
  <path d="M954.743 113.05L958.592 109.193" stroke="#263238" stroke-linecap="round" stroke-linejoin="round"/>
  <path d="M979.802 87.9912L983.651 84.1342" stroke="#263238" stroke-linecap="round" stroke-linejoin="round"/>
  <path d="M966.361 98.5406H958.291" stroke="#263238" stroke-linecap="round" stroke-linejoin="round"/>
  <path d="M969.284 95.6182V84.9658" stroke="#263238" stroke-linecap="round" stroke-linejoin="round"/>
  <path d="M1076.7 78.408H1013.87V118.539H1076.7V78.408Z" stroke="#263238" stroke-linecap="round" stroke-linejoin="round"/>
  <path d="M1013.87 78.408L1045.28 98.4694L1076.7 78.408" stroke="#263238" stroke-linecap="round" stroke-linejoin="round"/>
  <path d="M1013.87 118.539L1037.63 96.8854" stroke="#263238" stroke-linecap="round" stroke-linejoin="round"/>
  <path d="M1076.4 118.539L1052.64 96.8854" stroke="#263238" stroke-linecap="round" stroke-linejoin="round"/>
  <defs>
    <filter id="filter0_d_114_779" x="0.625977" y="5.39551" width="1330.53" height="357.428" filterUnits="userSpaceOnUse" color-interpolation-filters="sRGB">
      <feFlood flood-opacity="0" result="BackgroundImageFix"/>
      <feColorMatrix in="SourceAlpha" type="matrix" values="0 0 0 0 0 0 0 0 0 0 0 0 0 0 0 0 0 0 127 0" result="hardAlpha"/>
      <feOffset dy="5"/>
      <feGaussianBlur stdDeviation="7"/>
      <feColorMatrix type="matrix" values="0 0 0 0 0.0323264 0 0 0 0 0.0598209 0 0 0 0 0.204167 0 0 0 0.04 0"/>
      <feBlend mode="normal" in2="BackgroundImageFix" result="effect1_dropShadow_114_779"/>
      <feBlend mode="normal" in="SourceGraphic" in2="effect1_dropShadow_114_779" result="shape"/>
    </filter>
  </defs>
</svg>
