<svg width="1023" height="1023" viewBox="0 0 1023 1023" fill="none" xmlns="http://www.w3.org/2000/svg">
  <path d="M1023 782.39H0V782.902H1023V782.39Z" fill="#EBEBEB"/>
  <path d="M920.496 815.311H876.139V815.822H920.496V815.311Z" fill="#EBEBEB"/>
  <path d="M705.194 804.712H635.405V805.224H705.194V804.712Z" fill="#EBEBEB"/>
  <path d="M902.531 796.324H811.423V796.835H902.531V796.324Z" fill="#EBEBEB"/>
  <path d="M353.998 806.635H331.206V807.147H353.998V806.635Z" fill="#EBEBEB"/>
  <path d="M312.977 806.635H234.431V807.147H312.977V806.635Z" fill="#EBEBEB"/>
  <path d="M192.344 798.001H135.67V798.513H192.344V798.001Z" fill="#EBEBEB"/>
  <path d="M484.902 691.139H89.8399C86.745 691.133 83.7788 689.9 81.5923 687.71C79.4058 685.52 78.1777 682.551 78.1777 679.456V124.11C78.2047 121.033 79.4446 118.091 81.6282 115.923C83.8118 113.754 86.7627 112.535 89.8399 112.53H484.902C488.001 112.53 490.972 113.761 493.163 115.952C495.354 118.143 496.585 121.114 496.585 124.213V679.456C496.585 682.555 495.354 685.526 493.163 687.717C490.972 689.908 488.001 691.139 484.902 691.139ZM89.8399 112.939C86.8807 112.945 84.0445 114.124 81.954 116.218C79.8634 118.313 78.6892 121.151 78.6892 124.11V679.456C78.6892 682.415 79.8634 685.254 81.954 687.348C84.0445 689.443 86.8807 690.622 89.8399 690.627H484.902C487.863 690.622 490.701 689.443 492.795 687.349C494.889 685.256 496.068 682.417 496.073 679.456V124.11C496.068 121.149 494.889 118.311 492.795 116.217C490.701 114.123 487.863 112.945 484.902 112.939H89.8399Z" fill="#EBEBEB"/>
  <path d="M927.472 691.139H532.39C529.293 691.133 526.325 689.901 524.135 687.711C521.945 685.521 520.712 682.553 520.707 679.456V124.11C520.739 121.031 521.984 118.089 524.171 115.921C526.357 113.754 529.311 112.535 532.39 112.53H927.472C930.546 112.541 933.492 113.762 935.671 115.93C937.85 118.098 939.087 121.037 939.114 124.11V679.456C939.114 682.548 937.889 685.513 935.707 687.703C933.525 689.892 930.564 691.128 927.472 691.139ZM532.39 112.939C529.429 112.945 526.59 114.123 524.496 116.217C522.403 118.311 521.224 121.149 521.219 124.11V679.456C521.224 682.417 522.403 685.256 524.496 687.349C526.59 689.443 529.429 690.622 532.39 690.627H927.472C930.433 690.622 933.272 689.443 935.366 687.349C937.459 685.256 938.638 682.417 938.643 679.456V124.11C938.638 121.149 937.459 118.311 935.366 116.217C933.272 114.123 930.433 112.945 927.472 112.939H532.39Z" fill="#EBEBEB"/>
  <path d="M442.08 411.001L443 384.116L426.51 378.715C425.801 369.604 424.322 360.569 422.09 351.707L436.085 341.477L426.591 316.23L409.282 317.621C405.178 309.487 400.387 301.718 394.96 294.399L403.922 279.443L385.508 259.781L370.04 267.699C363.085 261.753 355.653 256.388 347.82 251.658L350.317 234.472L325.765 223.341L314.512 236.518C305.83 233.741 296.934 231.688 287.914 230.38L283.822 213.541L256.855 212.62L251.536 229.132C242.434 229.847 233.407 231.319 224.549 233.53L214.155 219.618L188.908 229.05L190.299 246.359C182.169 250.525 174.401 255.364 167.077 260.824L152.018 251.658L132.274 270.072L140.192 285.622C134.245 292.542 128.906 299.963 124.234 307.8L107.068 305.222L95.8555 329.774L109.114 341.007C106.317 349.683 104.264 358.581 102.976 367.605L85.9324 371.881L85.0117 398.765L101.584 404.167C102.27 413.272 103.742 422.302 105.983 431.154L91.9886 441.384L101.502 466.652L118.812 465.26C122.905 473.401 127.697 481.171 133.134 488.483L124.152 503.439L142.566 523.101L158.033 515.183C164.971 521.127 172.389 526.485 180.212 531.203L177.634 548.369L202.186 559.52L213.501 546.343C222.181 549.146 231.077 551.233 240.099 552.584L244.191 569.422L271.157 570.343L276.476 553.832C285.584 553.108 294.617 551.637 303.484 549.433L313.714 563.346L338.961 553.914L337.652 536.604C345.767 532.412 353.533 527.574 360.874 522.139L375.748 531.101L395.492 512.687L387.574 497.137C393.523 490.218 398.862 482.797 403.533 474.958L420.699 477.536L431.911 452.984L418.653 441.731C421.497 433.062 423.585 424.163 424.893 415.133L442.08 411.001ZM260.415 498.099C239.317 497.386 218.904 490.432 201.758 478.116C184.613 465.8 171.505 448.676 164.093 428.909C156.681 409.142 155.298 387.622 160.119 367.069C164.94 346.516 175.748 327.855 191.177 313.446C206.605 299.037 225.96 289.527 246.794 286.12C267.628 282.713 289.004 285.561 308.219 294.304C327.433 303.048 343.623 317.293 354.741 335.24C365.858 353.186 371.403 374.026 370.674 395.124C369.703 423.398 357.542 450.13 336.866 469.441C316.19 488.751 288.69 499.059 260.415 498.099Z" fill="#EBEBEB"/>
  <path d="M902.286 322.081L909.058 315.759L906.378 310.419C908.423 308.026 910.264 305.467 911.882 302.767L917.815 303.647L921.641 295.176L917.099 291.31C918.077 288.315 918.796 285.241 919.247 282.123L925.079 280.67L925.365 271.381L919.677 269.54C919.427 266.394 918.921 263.274 918.163 260.21L922.971 256.63L919.698 247.934L913.744 248.405C912.308 245.6 910.645 242.918 908.772 240.385L911.861 235.27L905.498 228.477L900.179 231.198C897.782 229.158 895.223 227.317 892.527 225.694L893.386 219.761L884.936 215.894L881.049 220.457C878.048 219.522 874.975 218.838 871.862 218.411L870.409 212.6L861.121 212.252L859.259 217.981C856.125 218.22 853.017 218.727 849.97 219.495L846.41 214.687L837.694 217.94L838.185 223.914C835.372 225.336 832.689 227 830.165 228.886L825.009 225.797L818.216 232.119L820.855 237.336C818.796 239.722 816.947 242.282 815.331 244.988L809.418 244.108L805.572 252.579L810.134 256.466C809.188 259.457 808.504 262.523 808.088 265.632L802.237 267.085L801.95 276.374L807.659 278.215C807.891 281.362 808.391 284.483 809.152 287.545L804.324 291.105L807.597 299.8L813.572 299.35C815.007 302.155 816.67 304.837 818.543 307.371L815.454 312.486L821.817 319.278L827.136 316.557C829.528 318.604 832.088 320.445 834.789 322.061L833.909 327.974L842.379 331.841L846.267 327.299C849.27 328.223 852.341 328.907 855.453 329.345L856.906 335.155L866.195 335.503L868.056 329.774C871.19 329.536 874.298 329.03 877.345 328.26L880.905 333.068L889.621 329.815L889.151 323.841C891.956 322.417 894.632 320.754 897.151 318.869L902.286 322.081ZM853.96 282.941C852.173 281.027 850.994 278.625 850.573 276.041C850.151 273.456 850.505 270.805 851.591 268.422C852.677 266.039 854.444 264.031 856.671 262.653C858.898 261.275 861.484 260.588 864.101 260.68C866.718 260.772 869.249 261.638 871.374 263.168C873.499 264.698 875.122 266.825 876.038 269.278C876.955 271.731 877.123 274.401 876.521 276.949C875.92 279.498 874.576 281.811 872.66 283.596C871.388 284.795 869.891 285.73 868.256 286.347C866.62 286.963 864.879 287.25 863.132 287.189C861.385 287.128 859.668 286.721 858.08 285.992C856.491 285.263 855.063 284.226 853.878 282.941H853.96Z" fill="#EBEBEB"/>
  <path d="M654.72 598.128L633.564 583.499C631.49 575.881 628.638 568.497 625.053 561.463L630.475 540.185L599.785 507.326L578.179 511.275C571.401 507.214 564.222 503.861 556.757 501.27L543.622 479.153L498.61 477.618L484.002 498.774C476.393 500.846 469.016 503.691 461.987 507.265L440.708 501.843L407.85 532.533L411.798 554.098C407.741 560.89 404.395 568.082 401.814 575.56L379.697 588.696L378.162 633.708L399.338 648.316C401.377 655.975 404.224 663.396 407.829 670.454L402.346 691.548L433.036 724.407L454.498 720.479C461.328 724.544 468.553 727.903 476.063 730.504L489.178 752.58L534.19 754.135L548.778 732.98C556.455 730.906 563.9 728.054 570.998 724.468L592.153 729.87L625.032 699.18L621.084 677.615C625.153 670.822 628.5 663.622 631.068 656.132L653.185 642.996L654.72 598.128ZM514.671 666.444C504.679 666.102 495.012 662.805 486.893 656.97C478.774 651.135 472.567 643.023 469.058 633.661C465.549 624.299 464.894 614.106 467.177 604.372C469.461 594.637 474.579 585.799 481.885 578.973C489.191 572.148 498.357 567.642 508.224 566.025C518.091 564.408 528.216 565.754 537.318 569.891C546.42 574.028 554.091 580.771 559.362 589.268C564.632 597.765 567.264 607.633 566.926 617.626C566.457 631.028 560.688 643.696 550.887 652.849C541.086 662.001 528.053 666.891 514.651 666.444H514.671Z" fill="#EBEBEB"/>
  <path d="M702.904 470.58H702.761L667.324 469.373C666.606 469.36 665.903 469.165 665.281 468.808C664.658 468.45 664.137 467.941 663.764 467.327L654.209 451.266C649.059 449.382 644.077 447.069 639.314 444.35L624.031 446.99C623.318 447.12 622.585 447.068 621.898 446.839C621.211 446.61 620.594 446.212 620.102 445.68L595.898 419.778C595.39 419.241 595.029 418.583 594.85 417.866C594.671 417.149 594.679 416.398 594.875 415.686L598.742 400.525C596.346 395.612 594.388 390.498 592.89 385.241L577.484 374.602C576.887 374.192 576.403 373.637 576.077 372.99C575.751 372.342 575.595 371.623 575.622 370.899L576.829 335.462C576.853 334.747 577.052 334.048 577.409 333.427C577.766 332.807 578.269 332.283 578.875 331.902L594.977 322.347C596.834 317.209 599.142 312.246 601.872 307.514L599.049 292.107C598.917 291.392 598.968 290.655 599.197 289.965C599.425 289.275 599.825 288.653 600.358 288.159L626.261 263.975C626.796 263.465 627.454 263.101 628.17 262.919C628.887 262.736 629.638 262.74 630.353 262.931L645.575 266.819C650.475 264.422 655.576 262.457 660.818 260.947L671.457 245.54C671.852 244.929 672.404 244.433 673.055 244.106C673.706 243.779 674.433 243.631 675.16 243.679L710.576 244.906C711.296 244.921 712.001 245.117 712.627 245.474C713.252 245.831 713.778 246.34 714.157 246.952L723.712 263.034C728.825 264.911 733.767 267.225 738.484 269.949L753.952 267.105C754.664 266.973 755.398 267.024 756.085 267.253C756.772 267.482 757.39 267.882 757.88 268.415L782.084 294.317C782.589 294.856 782.947 295.514 783.126 296.23C783.305 296.946 783.299 297.696 783.107 298.409L779.22 313.611C781.617 318.514 783.588 323.613 785.112 328.854L800.498 339.493C801.095 339.903 801.579 340.458 801.905 341.105C802.231 341.753 802.387 342.472 802.36 343.196L801.153 378.612C801.129 379.331 800.929 380.032 800.573 380.656C800.216 381.28 799.713 381.807 799.107 382.193L783.005 391.748C781.135 396.874 778.828 401.83 776.11 406.561L778.933 421.988C779.065 422.7 779.015 423.434 778.786 424.121C778.557 424.808 778.157 425.426 777.624 425.916L751.558 450.12C751.021 450.628 750.363 450.989 749.646 451.168C748.929 451.347 748.178 451.339 747.466 451.143L732.325 447.276C727.392 449.662 722.265 451.626 717.001 453.148L706.464 468.534C706.084 469.141 705.561 469.646 704.94 470.003C704.319 470.359 703.62 470.558 702.904 470.58ZM669.984 460.821L700.674 461.864L710.904 447.153C711.47 446.295 712.34 445.681 713.338 445.435C719.096 443.86 724.682 441.715 730.013 439.031C730.943 438.583 731.999 438.474 733.001 438.724L747.322 442.386L769.829 421.415L767.251 406.622C767.052 405.588 767.241 404.517 767.783 403.614C770.821 398.548 773.324 393.179 775.25 387.594C775.575 386.582 776.259 385.723 777.174 385.18L792.58 376.055L793.623 345.365L778.892 335.135C778.116 334.605 777.534 333.836 777.235 332.946C777.235 332.843 777.235 332.721 777.235 332.598C775.659 326.942 773.52 321.459 770.852 316.23C770.378 315.294 770.262 314.217 770.524 313.202L774.207 298.716L753.235 276.21L738.525 278.911C737.497 279.097 736.437 278.908 735.538 278.379C730.461 275.334 725.086 272.818 719.497 270.87C719.176 270.767 718.867 270.63 718.576 270.461C717.987 270.093 717.495 269.587 717.144 268.988L707.917 253.54L677.227 252.476L666.997 267.228C666.386 268.093 665.486 268.71 664.46 268.967C658.761 270.524 653.236 272.656 647.969 275.33C647.04 275.804 645.97 275.921 644.961 275.658L630.475 271.975L607.969 292.946L610.67 307.616C610.83 308.542 610.694 309.494 610.281 310.337L610.077 310.685C607.034 315.771 604.531 321.161 602.609 326.767C602.27 327.728 601.604 328.539 600.727 329.058L585.32 338.204L584.277 368.894L599.028 379.124C599.869 379.699 600.479 380.555 600.747 381.538C602.281 387.283 604.413 392.852 607.11 398.152C607.256 398.453 607.373 398.769 607.458 399.093C607.612 399.766 607.612 400.465 607.458 401.139L603.775 415.461L624.747 437.967L639.355 435.287C640.376 435.1 641.43 435.289 642.322 435.818C647.437 438.858 652.845 441.373 658.465 443.327C659.479 443.628 660.336 444.31 660.859 445.23L669.984 460.821ZM688.95 422.008C688.193 422.008 687.436 422.008 686.679 422.008C669.671 421.709 653.469 414.703 641.601 402.517C629.732 390.331 623.157 373.95 623.307 356.94C623.456 339.93 630.319 323.667 642.4 311.692C654.481 299.716 670.804 292.997 687.815 292.997C704.825 292.997 721.148 299.716 733.229 311.692C745.31 323.667 752.173 339.93 752.322 356.94C752.472 373.95 745.897 390.331 734.029 402.517C722.16 414.703 705.958 421.709 688.95 422.008ZM688.95 301.11C674.087 301.366 659.927 307.483 649.552 318.13C639.178 328.776 633.429 343.09 633.557 357.955C633.685 372.82 639.68 387.032 650.236 397.498C660.793 407.964 675.057 413.836 689.922 413.836C704.787 413.836 719.051 407.964 729.607 397.498C740.164 387.032 746.159 372.82 746.287 357.955C746.415 343.09 740.666 328.776 730.292 318.13C719.917 307.483 705.757 301.366 690.894 301.11H688.95Z" fill="#EBEBEB"/>
  <path d="M784.518 215.485L769.828 211.556L765.899 196.866L771.649 191.137L777.705 203.679L790.267 209.756L784.518 215.485Z" fill="#E0E0E0"/>
  <path d="M785.419 205.664C786.054 205.028 786.558 204.274 786.902 203.444C787.246 202.614 787.423 201.724 787.423 200.825C787.423 199.926 787.246 199.037 786.902 198.206C786.558 197.376 786.054 196.622 785.419 195.986C784.783 195.351 784.029 194.847 783.199 194.503C782.368 194.159 781.479 193.982 780.58 193.982C779.681 193.982 778.792 194.159 777.961 194.503C777.131 194.847 776.377 195.351 775.741 195.986L783.045 185.02L792.825 189.971L794.974 200.201L785.419 205.664Z" fill="#E0E0E0"/>
  <path d="M770.482 192.324L781.244 181.562L795.894 185.47L799.843 200.14L789.081 210.902L774.411 206.953L770.482 192.324ZM790.022 201.122C790.98 200.163 791.632 198.942 791.896 197.612C792.16 196.283 792.023 194.905 791.504 193.653C790.985 192.401 790.107 191.331 788.98 190.578C787.853 189.825 786.528 189.424 785.173 189.424C783.817 189.424 782.493 189.825 781.366 190.578C780.239 191.331 779.36 192.401 778.841 193.653C778.322 194.905 778.186 196.283 778.45 197.612C778.714 198.942 779.366 200.163 780.324 201.122C781.62 202.393 783.365 203.102 785.181 203.094C786.997 203.087 788.736 202.363 790.022 201.081V201.122Z" fill="#F0F0F0"/>
  <path d="M184.59 607.069L192.468 604.941L194.575 597.064L191.506 593.995L188.253 600.726L181.501 603.979L184.59 607.069Z" fill="#E0E0E0"/>
  <path d="M184.14 601.79C183.524 601.087 183.199 600.176 183.23 599.242C183.261 598.308 183.646 597.421 184.307 596.76C184.968 596.099 185.855 595.714 186.789 595.683C187.723 595.652 188.634 595.978 189.337 596.593L185.429 590.721L180.048 593.34L178.902 598.864L184.14 601.79Z" fill="#E0E0E0"/>
  <path d="M192.12 594.609L186.35 588.839L178.473 590.885L176.427 598.762L182.094 604.593L189.971 602.547L192.12 594.609ZM181.644 599.335C181.265 599.003 180.958 598.596 180.742 598.141C180.526 597.685 180.406 597.19 180.389 596.686C180.373 596.182 180.46 595.68 180.645 595.211C180.83 594.742 181.109 594.316 181.466 593.96C181.822 593.603 182.248 593.324 182.717 593.139C183.186 592.954 183.688 592.867 184.192 592.883C184.696 592.9 185.191 593.02 185.647 593.236C186.102 593.452 186.509 593.759 186.841 594.138C187.457 594.841 187.782 595.752 187.751 596.686C187.72 597.62 187.335 598.507 186.674 599.168C186.013 599.829 185.126 600.214 184.192 600.245C183.258 600.276 182.347 599.95 181.644 599.335Z" fill="#F0F0F0"/>
  <path d="M156.232 175.26L162.78 181.808C163.598 182.612 164.701 183.063 165.849 183.063C166.997 183.063 168.099 182.612 168.918 181.808C169.718 180.986 170.165 179.885 170.165 178.739C170.165 177.592 169.718 176.491 168.918 175.67L162.391 169.143C161.57 168.343 160.468 167.895 159.322 167.895C158.175 167.895 157.074 168.343 156.253 169.143C155.452 169.958 155.001 171.054 154.997 172.197C154.993 173.341 155.437 174.44 156.232 175.26Z" fill="#F0F0F0"/>
  <path d="M151.629 158.995C153.338 158.52 155.148 158.554 156.837 159.093C158.526 159.632 160.021 160.653 161.139 162.03C162.256 163.407 162.947 165.08 163.126 166.845C163.306 168.609 162.966 170.387 162.149 171.961C161.333 173.535 160.074 174.836 158.528 175.704C156.982 176.573 155.216 176.971 153.447 176.85C151.678 176.729 149.982 176.094 148.569 175.023C147.156 173.952 146.086 172.491 145.491 170.821C145.114 169.641 144.973 168.399 145.077 167.165C145.182 165.931 145.529 164.73 146.1 163.631C146.67 162.531 147.453 161.556 148.402 160.76C149.35 159.965 150.447 159.365 151.629 158.995Z" fill="#E0E0E0"/>
  <path d="M144.508 169.725L145.456 172.363L164.904 165.377L163.956 162.739L144.508 169.725Z" fill="#F0F0F0"/>
  <path d="M511.5 874.788C730.591 874.788 908.199 864.418 908.199 851.627C908.199 838.836 730.591 828.466 511.5 828.466C292.409 828.466 114.801 838.836 114.801 851.627C114.801 864.418 292.409 874.788 511.5 874.788Z" fill="#F5F5F5"/>
  <path d="M177.429 246.85C175.383 237.827 176.283 230.257 180.171 224.078C184.058 217.899 190.401 213.848 199.424 211.802C208.447 209.756 216.242 210.574 222.339 214.38C228.436 218.185 232.569 224.61 234.615 233.408C236.059 238.838 236.179 244.535 234.963 250.021C233.773 254.577 231.26 258.678 227.74 261.806C223.56 265.326 218.542 267.707 213.173 268.722C207.909 270.119 202.397 270.308 197.05 269.274C192.402 268.144 188.198 265.651 184.979 262.113C181.133 257.799 178.524 252.525 177.429 246.85ZM194.493 243.044C195.761 248.609 197.705 252.374 200.324 254.338C201.676 255.24 203.196 255.858 204.793 256.157C206.39 256.456 208.031 256.429 209.618 256.077C211.204 255.725 212.703 255.057 214.024 254.111C215.345 253.165 216.461 251.962 217.306 250.574C218.779 247.73 218.799 243.208 217.408 237.049C216.221 231.853 214.305 228.293 211.659 226.369C210.326 225.413 208.797 224.768 207.182 224.481C205.567 224.194 203.909 224.273 202.329 224.712C200.748 225.008 199.254 225.659 197.96 226.616C196.667 227.573 195.607 228.811 194.861 230.236C193.347 233.244 193.204 237.336 194.493 243.044Z" fill="#263238"/>
  <path d="M242.635 240.098C241.908 237.31 241.779 234.4 242.255 231.558C242.731 228.716 243.802 226.007 245.397 223.607C247.186 221.058 249.461 218.888 252.09 217.22C254.72 215.552 257.653 214.42 260.722 213.889C268.728 212.075 275.303 213.023 280.445 216.733C284.773 220.088 287.715 224.917 288.711 230.301C289.707 235.686 288.688 241.248 285.847 245.929C282.655 250.799 277.458 254.045 270.256 255.668C264.708 257.219 258.788 256.741 253.561 254.318C250.766 252.952 248.325 250.957 246.429 248.49C244.534 246.023 243.235 243.151 242.635 240.098ZM258.001 236.559C258.415 239.418 259.811 242.043 261.949 243.986C262.797 244.627 263.775 245.077 264.813 245.302C265.852 245.528 266.928 245.525 267.966 245.294C269.004 245.062 269.978 244.607 270.823 243.961C271.667 243.315 272.36 242.492 272.855 241.551C273.926 238.803 274.027 235.771 273.141 232.958C272.711 230.166 271.33 227.607 269.233 225.715C268.419 225.055 267.464 224.592 266.442 224.361C265.42 224.13 264.359 224.139 263.341 224.385C262.279 224.605 261.281 225.064 260.424 225.727C259.566 226.39 258.87 227.239 258.389 228.211C257.288 230.862 257.15 233.816 258.001 236.559Z" fill="#263238"/>
  <path d="M303.995 263.054L291.453 207.812L305.775 204.539L307.125 210.452C308.136 208.093 309.603 205.959 311.443 204.17C313.461 202.457 315.872 201.269 318.46 200.713C320.852 200.062 323.37 200.024 325.78 200.604C328.19 201.183 330.415 202.36 332.25 204.027C336.294 207.807 339.037 212.771 340.087 218.206C341.601 224.855 341.15 230.298 338.777 234.574C337.648 236.618 336.088 238.393 334.205 239.774C332.322 241.156 330.161 242.111 327.872 242.574C325.666 243.097 323.38 243.187 321.141 242.84C318.992 242.463 316.945 241.648 315.125 240.446L319.463 259.535L303.995 263.054ZM311.381 224.467C311.757 227.022 313.034 229.359 314.982 231.055C315.763 231.653 316.67 232.067 317.633 232.265C318.597 232.463 319.593 232.441 320.547 232.2C321.433 232.023 322.265 231.64 322.976 231.082C323.687 230.524 324.256 229.807 324.639 228.988C325.509 226.428 325.509 223.651 324.639 221.091C324.265 218.523 323.032 216.157 321.141 214.38C320.439 213.797 319.613 213.383 318.726 213.171C317.839 212.958 316.915 212.951 316.026 213.152C315.086 213.355 314.203 213.768 313.445 214.36C312.687 214.951 312.072 215.706 311.647 216.569C310.646 219.091 310.552 221.883 311.381 224.467Z" fill="#263238"/>
  <path d="M346.654 225.674L361.549 220.784C362.341 222.224 363.574 223.371 365.068 224.057C366.675 224.523 368.375 224.56 370.001 224.165C371.627 223.77 373.121 222.957 374.336 221.807C374.676 221.446 374.922 221.007 375.054 220.53C375.186 220.052 375.199 219.549 375.093 219.065C374.97 218.511 374.684 218.007 374.272 217.617C373.86 217.227 373.341 216.969 372.781 216.876C370.469 216.622 368.137 216.622 365.825 216.876C361.944 217.206 358.043 217.206 354.163 216.876C351.891 216.546 349.761 215.574 348.025 214.073C346.172 212.469 344.892 210.306 344.379 207.91C343.866 205.514 344.147 203.016 345.181 200.794C346.374 198.417 348.228 196.435 350.521 195.086C353.784 193.232 357.33 191.926 361.017 191.219C364.536 190.264 368.174 189.823 371.819 189.91C374.109 190.057 376.328 190.759 378.285 191.956C380.37 193.363 382.14 195.188 383.482 197.316L369.16 202.043C368.624 200.977 367.735 200.13 366.643 199.649C365.151 199.115 363.532 199.044 361.999 199.444C360.644 199.633 359.387 200.258 358.418 201.224C358.111 201.554 357.888 201.953 357.77 202.388C357.653 202.823 357.643 203.281 357.743 203.72C357.854 204.204 358.109 204.643 358.474 204.979C358.839 205.315 359.298 205.532 359.789 205.603C362.076 205.868 364.389 205.82 366.664 205.459C370.609 204.888 374.612 204.833 378.571 205.296C381.062 205.647 383.395 206.722 385.282 208.385C386.988 209.932 388.175 211.969 388.679 214.216C389.203 216.626 389.011 219.137 388.126 221.439C387.044 224.164 385.161 226.497 382.725 228.129C379.136 230.475 375.116 232.082 370.899 232.855C363.601 234.519 358.145 234.663 354.531 233.285C351.009 231.879 348.18 229.145 346.654 225.674Z" fill="#263238"/>
  <path d="M396.617 175.076H413.415V187.966L410.325 213.889H399.932L396.617 188.007V175.076ZM397.436 217.797H413.108V231.669H397.436V217.797Z" fill="#263238"/>
  <path d="M263.279 351.053H262.911C253.704 347.472 248.2 343.994 245.336 339.8C243.094 340.225 240.774 339.909 238.727 338.899C236.33 337.726 234.341 335.858 233.019 333.539C232.324 334.072 231.506 334.421 230.64 334.553C229.775 334.686 228.89 334.597 228.068 334.296C225.546 333.352 223.394 331.624 221.93 329.365C221.013 330.048 219.874 330.362 218.738 330.245C212.6 329.754 204.416 317.641 203.823 304.752C203.816 304.48 203.915 304.216 204.098 304.014C204.28 303.812 204.533 303.688 204.805 303.667C204.939 303.662 205.073 303.683 205.199 303.729C205.326 303.776 205.441 303.847 205.54 303.938C205.639 304.029 205.719 304.139 205.775 304.261C205.832 304.383 205.863 304.515 205.869 304.649C206.441 316.925 214.278 327.831 218.922 328.199C219.26 328.237 219.602 328.208 219.929 328.113C220.255 328.018 220.56 327.859 220.825 327.646C219.225 324.729 218.22 321.524 217.869 318.215C217.517 314.906 217.827 311.561 218.779 308.373C220.538 302.235 222.093 299.821 223.976 300.189C227.495 301.069 227.024 314.511 225.162 323.288C224.88 324.871 224.297 326.386 223.444 327.749C224.65 329.771 226.471 331.356 228.64 332.27C229.219 332.491 229.848 332.54 230.454 332.413C231.06 332.286 231.616 331.988 232.057 331.554C230.461 327.606 230.011 322.204 232.303 315.33C235.167 306.266 236.395 306.02 237.029 305.857C237.268 305.806 237.515 305.822 237.746 305.901C237.976 305.98 238.181 306.12 238.339 306.307C240.241 308.455 237.97 322.531 235.597 329.488C235.319 330.325 234.934 331.123 234.451 331.861C235.549 334.074 237.337 335.87 239.546 336.976C240.994 337.681 242.605 337.984 244.211 337.856C244.026 337.467 243.863 337.078 243.699 336.669C242.083 332.27 242.881 327.217 246.134 321.161C248.282 317.171 250.042 315.289 251.678 315.289C252.113 315.294 252.537 315.425 252.899 315.664C253.262 315.903 253.548 316.242 253.724 316.639C255.504 319.933 254.215 330.797 250.696 336.199C249.872 337.437 248.726 338.427 247.382 339.063C250.124 342.664 255.341 345.835 263.75 349.068C263.876 349.113 263.992 349.184 264.09 349.275C264.189 349.366 264.268 349.475 264.323 349.597C264.378 349.72 264.409 349.851 264.412 349.985C264.416 350.119 264.392 350.253 264.343 350.377C264.264 350.591 264.117 350.772 263.925 350.894C263.733 351.016 263.506 351.071 263.279 351.053ZM251.658 317.355C251.658 317.355 250.492 317.355 247.914 322.163C244.947 327.646 244.19 332.168 245.602 335.974C245.773 336.445 245.978 336.903 246.216 337.344C247.324 336.887 248.266 336.101 248.916 335.094C251.781 330.715 253.152 321.713 252.088 318.194C251.944 317.478 251.658 317.355 251.658 317.355ZM236.968 308.741C235.86 311.071 234.943 313.486 234.226 315.964C232.657 320.258 232.386 324.919 233.449 329.365L233.633 328.833C235.781 322.348 236.927 315.572 237.029 308.741H236.968ZM223.505 302.296C223.157 302.603 222.155 303.892 220.743 308.885C219.073 314.487 219.6 320.516 222.216 325.744C222.636 324.829 222.945 323.867 223.137 322.879C225.326 312.833 224.712 303.749 223.566 302.296H223.505Z" fill="#263238"/>
  <path d="M341.069 458.304C337.798 458.336 334.578 457.495 331.739 455.869C331.505 455.729 331.336 455.502 331.267 455.239C331.198 454.975 331.236 454.694 331.371 454.458C331.438 454.342 331.528 454.242 331.635 454.161C331.742 454.081 331.864 454.023 331.993 453.991C332.123 453.958 332.258 453.952 332.39 453.973C332.522 453.993 332.648 454.04 332.762 454.11C340.066 458.386 349.498 455.399 351.442 452.268C351.582 452.072 351.682 451.85 351.735 451.614C351.787 451.379 351.792 451.135 351.749 450.898C348.014 451.112 344.315 450.06 341.253 447.91C336.036 444.657 335.626 443.675 335.667 442.898C335.677 442.674 335.747 442.458 335.87 442.271C335.992 442.083 336.162 441.933 336.363 441.834C338.409 440.811 347.636 445.046 351.483 447.583C351.944 447.889 352.37 448.246 352.751 448.647C354.263 448.304 355.625 447.487 356.639 446.315C357.209 445.644 357.622 444.854 357.846 444.003H357.437C354.163 444.33 350.89 442.918 347.391 439.685C344.977 437.476 344.056 435.941 344.363 434.734C344.456 434.395 344.644 434.089 344.905 433.854C345.166 433.618 345.489 433.462 345.836 433.404C348.659 432.688 355.657 435.675 358.501 438.806C359.135 439.486 359.586 440.317 359.81 441.22C362.49 439.972 365.314 437.128 368.649 432.484C368.726 432.373 368.825 432.279 368.939 432.206C369.053 432.134 369.181 432.085 369.314 432.062C369.447 432.039 369.583 432.043 369.715 432.073C369.847 432.104 369.971 432.16 370.081 432.238C370.3 432.398 370.448 432.637 370.494 432.904C370.54 433.172 370.48 433.446 370.327 433.67C366.46 439.072 363.227 442.141 359.994 443.389C359.827 444.901 359.206 446.327 358.214 447.481C357.035 448.851 355.487 449.852 353.754 450.366C353.851 450.854 353.851 451.357 353.753 451.845C353.654 452.333 353.46 452.797 353.181 453.21C351.463 456.135 346.511 458.304 341.069 458.304ZM339.248 444.105C339.944 444.616 340.926 445.292 342.337 446.151C344.537 447.635 347.065 448.562 349.703 448.852C346.41 446.877 342.902 445.284 339.248 444.105ZM346.388 435.409C346.976 436.516 347.792 437.485 348.782 438.253C351.81 441.056 354.572 442.345 357.232 442.018H357.887C357.742 441.382 357.431 440.797 356.987 440.32C354.122 437.087 347.821 435.082 346.388 435.409Z" fill="#263238"/>
  <path d="M368.158 455.501L336.281 461.291L307.33 303.299L245.827 314.47L145.573 492.472L156.335 551.213L284.926 527.868L293.724 575.908L355.227 564.696L346.429 516.656L378.306 510.866L368.158 455.501ZM206.83 484.902L260.026 391.666L274.86 472.565L206.83 484.902Z" fill="#F97316"/>
  <path d="M624.91 292.578C623.942 282.646 621.743 272.873 618.363 263.484C614.886 254.49 610.056 246.08 604.041 238.543C596.92 229.775 588.077 222.561 578.057 217.347C567.145 211.359 552.673 207.192 534.641 204.846C497.199 199.962 468.023 206.605 447.113 224.774C426.203 242.942 412.426 277.724 405.784 329.12C403.132 348.328 402.446 367.756 403.738 387.103C405.102 404.835 408.362 419.11 413.518 429.926C420.079 444.513 430.429 457.074 443.492 466.304C456.409 475.375 474.141 481.369 496.688 484.288C536.762 489.512 566.477 481.813 585.832 461.189C605.187 440.565 618.009 405.715 624.297 356.638C627.092 335.388 627.298 313.878 624.91 292.578Z" fill="#F97316"/>
  <path d="M515.121 463.276C510.191 463.112 504.891 462.662 499.551 461.966C480.81 459.532 466.324 454.785 456.463 447.869C446.628 440.925 438.852 431.452 433.957 420.453L433.854 420.228C429.926 412.044 427.348 400.279 426.223 385.446C425.031 367.628 425.661 349.735 428.105 332.045C435.409 275.33 450.488 251.658 461.844 241.796C475.102 230.298 493.004 225.101 516.533 225.919C521.362 226.083 526.477 226.513 531.735 227.188C546.834 229.234 558.804 232.507 567.274 237.131C574.593 240.901 581.073 246.114 586.322 252.456C590.915 258.184 594.606 264.58 597.268 271.422C599.986 279.052 601.746 286.99 602.506 295.054C604.688 314.593 604.489 334.324 601.913 353.815C596.245 397.886 585.279 428.862 569.34 445.885C557.514 458.488 539.776 464.299 515.101 463.358L515.121 463.276Z" fill="#263238"/>
  <path d="M555.162 293.171L555.428 285.417L550.661 283.862C550.458 281.239 550.033 278.639 549.392 276.087L553.484 273.1L550.743 265.816L545.75 266.226C544.577 263.885 543.208 261.647 541.658 259.535L544.236 255.218L538.917 249.551L534.457 251.842C532.461 250.126 530.326 248.58 528.073 247.218L528.789 242.267L521.71 239.055L518.477 242.86C515.974 242.049 513.408 241.447 510.805 241.06L509.598 236.211L501.823 235.945L500.288 240.692C497.666 240.901 495.066 241.326 492.514 241.96L489.506 237.868L482.222 240.589L482.631 245.581C480.291 246.756 478.053 248.125 475.941 249.673L471.644 247.075L465.957 252.374L468.248 256.855C466.527 258.849 464.987 260.992 463.645 263.259L458.693 262.502L455.461 269.581L459.287 272.814C458.456 275.319 457.853 277.893 457.486 280.507L452.617 281.734L452.351 289.468L457.118 291.023C457.318 293.653 457.742 296.261 458.386 298.818L454.294 301.785L457.036 309.069L462.028 308.66C463.19 311.007 464.56 313.246 466.12 315.35L463.522 319.667L468.841 325.335L473.302 323.063C475.298 324.773 477.433 326.313 479.685 327.667L478.949 332.618L486.028 335.831L489.281 332.045C491.791 332.852 494.364 333.448 496.974 333.825L498.181 338.695L505.935 338.961L507.47 334.194C510.1 333.994 512.708 333.57 515.265 332.925L518.232 337.017L525.516 334.296L525.127 329.324C527.459 328.134 529.696 326.766 531.817 325.232L536.114 327.81L541.802 322.511L539.531 318.03C541.245 316.043 542.778 313.906 544.114 311.647L549.065 312.383L552.298 305.304L548.492 302.072C549.306 299.57 549.902 297.003 550.272 294.399L555.162 293.171ZM502.785 318.276C496.725 318.054 490.866 316.043 485.948 312.495C481.031 308.947 477.274 304.021 475.153 298.34C473.032 292.659 472.642 286.477 474.031 280.575C475.421 274.672 478.528 269.313 482.96 265.175C487.392 261.036 492.951 258.303 498.935 257.321C504.919 256.339 511.06 257.152 516.582 259.657C522.105 262.162 526.762 266.247 529.965 271.396C533.168 276.545 534.773 282.528 534.579 288.588C534.45 292.628 533.524 296.603 531.854 300.284C530.185 303.965 527.804 307.28 524.85 310.038C521.896 312.797 518.426 314.944 514.639 316.358C510.852 317.772 506.824 318.423 502.785 318.276Z" fill="#F97316"/>
  <path opacity="0.3" d="M587.447 435.532L588.02 430.294L584.87 429.026C584.865 427.243 584.714 425.464 584.419 423.706L587.263 421.885L585.811 416.832H582.414C581.743 415.188 580.928 413.606 579.98 412.105L581.903 409.323L578.629 405.231L575.499 406.54C574.23 405.285 572.862 404.136 571.407 403.103L572.164 399.788L567.56 397.251L565.146 399.686C563.502 399.009 561.805 398.469 560.072 398.07L559.499 394.735L554.282 394.141L552.993 397.292C551.216 397.301 549.442 397.465 547.694 397.783L545.873 394.878L540.819 396.372V399.768C539.175 400.447 537.594 401.268 536.093 402.223L533.31 400.177L529.218 403.451L530.528 406.581C529.28 407.851 528.138 409.219 527.111 410.673L523.796 409.937L521.28 414.54L523.694 416.934C523.008 418.582 522.467 420.287 522.078 422.028L518.722 422.581L518.17 427.798L521.3 429.108C521.302 430.878 521.459 432.644 521.771 434.386L518.886 436.207L520.359 441.261H523.776C524.459 442.896 525.28 444.471 526.231 445.967L524.185 448.749L527.459 452.841L530.63 451.511C531.889 452.77 533.259 453.914 534.722 454.928L534.006 458.304L538.609 460.821L541.003 458.427C542.65 459.088 544.346 459.614 546.077 460.002L546.671 463.358L551.888 463.931L553.157 460.8C554.966 460.798 556.773 460.647 558.558 460.35L560.379 463.235L565.412 461.762V458.365C567.057 457.674 568.644 456.853 570.159 455.91L572.9 457.956L576.992 454.662L575.663 451.532C576.923 450.263 578.079 448.894 579.12 447.44L582.414 448.176L584.951 443.573L582.537 441.199C583.195 439.552 583.722 437.856 584.112 436.125L587.447 435.532ZM561.115 433.486C560.25 435.07 558.934 436.362 557.333 437.198C555.733 438.034 553.921 438.376 552.127 438.182C550.332 437.988 548.635 437.266 547.251 436.107C545.866 434.948 544.857 433.405 544.35 431.672C543.843 429.939 543.862 428.095 544.403 426.373C544.944 424.651 545.984 423.128 547.392 421.997C548.799 420.866 550.51 420.178 552.308 420.02C554.106 419.861 555.911 420.24 557.494 421.108C559.611 422.274 561.18 424.231 561.858 426.55C562.537 428.869 562.27 431.363 561.115 433.486Z" fill="#F97316"/>
  <path d="M616.44 347.104L610.302 342.889C609.698 340.698 608.875 338.573 607.847 336.547L609.402 330.409L600.563 320.936L594.425 322.081C592.478 320.922 590.422 319.956 588.287 319.196L584.502 312.813L571.551 312.383L567.336 318.521C565.142 319.116 563.016 319.939 560.993 320.977L554.855 319.401L545.382 328.26L546.528 334.398C545.352 336.337 544.385 338.394 543.643 340.536L537.28 344.321L536.83 357.273L542.968 361.487C543.563 363.695 544.386 365.834 545.423 367.871L543.868 374.009L552.707 383.482L558.845 382.357C560.793 383.514 562.849 384.48 564.983 385.241L568.748 391.604L581.719 392.055L585.914 385.917C588.126 385.316 590.271 384.494 592.318 383.461L598.456 385.016L607.929 376.178L606.803 370.04C607.966 368.094 608.932 366.038 609.688 363.902L616.051 360.116L616.44 347.104ZM576.072 366.786C573.193 366.688 570.407 365.737 568.068 364.055C565.728 362.373 563.94 360.035 562.93 357.337C561.919 354.638 561.732 351.701 562.391 348.896C563.05 346.091 564.526 343.544 566.632 341.578C568.738 339.612 571.38 338.315 574.224 337.851C577.067 337.386 579.985 337.775 582.607 338.969C585.23 340.163 587.439 342.107 588.956 344.557C590.474 347.006 591.23 349.851 591.131 352.73C590.992 356.589 589.329 360.236 586.507 362.871C583.684 365.505 579.932 366.914 576.072 366.786Z" fill="white"/>
  <path d="M660.858 243.72L661.922 241.162C662.646 240.754 663.33 240.282 663.968 239.75H666.342L669.124 235.658L668.224 233.469C668.569 232.74 668.843 231.979 669.042 231.198L671.088 229.316L670.229 224.508L667.651 223.444C667.247 222.718 666.774 222.033 666.239 221.398V219.024L662.25 216.242L660.04 217.162C659.232 216.878 658.395 216.686 657.544 216.59L655.662 214.544L650.874 215.403L649.789 217.981C649.03 218.374 648.311 218.84 647.641 219.372H645.288L642.506 223.464L643.406 225.653C643.131 226.464 642.939 227.3 642.833 228.149L640.787 230.052L641.646 234.84L644.224 235.904C644.615 236.633 645.081 237.319 645.616 237.95V240.303L649.708 243.085L651.897 242.185C652.716 242.451 653.559 242.636 654.413 242.737L656.296 244.783L660.858 243.72ZM650.628 230.461C650.435 229.394 650.562 228.293 650.995 227.298C651.427 226.303 652.145 225.459 653.058 224.872C653.97 224.285 655.036 223.982 656.121 224.001C657.206 224.02 658.261 224.361 659.152 224.98C660.043 225.599 660.73 226.468 661.127 227.478C661.524 228.488 661.612 229.592 661.381 230.652C661.15 231.712 660.609 232.68 659.828 233.433C659.046 234.185 658.059 234.689 656.991 234.881C655.562 235.132 654.092 234.808 652.901 233.98C651.709 233.153 650.892 231.888 650.628 230.461Z" fill="#F97316"/>
  <path d="M604.819 230.155L603.243 228.825C606.619 224.637 610.792 221.16 615.519 218.595L616.481 220.395C611.985 222.843 608.021 226.161 604.819 230.155Z" fill="#F97316"/>
  <path d="M621.146 218.513L620.348 216.631C627.903 213.347 636.165 212.024 644.368 212.784L644.163 214.83C636.303 214.089 628.383 215.356 621.146 218.513Z" fill="#F97316"/>
  <path d="M617.278 232.671L615.601 231.525C620.53 224.869 627.704 220.224 635.795 218.451L636.183 220.497C628.622 222.149 621.91 226.471 617.278 232.671Z" fill="#F97316"/>
  <path d="M481.506 429.66C481.227 429.652 480.963 429.534 480.77 429.333L476.493 424.913C474.313 424.716 472.156 424.318 470.049 423.727L463.358 426.673C463.211 426.753 463.045 426.796 462.877 426.796C462.709 426.796 462.544 426.753 462.397 426.673L451.184 419.246C451.04 419.151 450.922 419.019 450.843 418.865C450.765 418.711 450.727 418.539 450.734 418.366V411.082C449.366 409.371 448.16 407.535 447.133 405.599L441.384 403.389C441.223 403.327 441.08 403.225 440.97 403.092C440.859 402.96 440.783 402.802 440.75 402.632L438.09 389.456C438.055 389.288 438.063 389.113 438.113 388.949C438.163 388.784 438.253 388.635 438.376 388.515L442.796 384.239C443.007 382.061 443.404 379.904 443.983 377.794L441.036 371.103C440.956 370.956 440.913 370.791 440.913 370.623C440.913 370.455 440.956 370.289 441.036 370.142L448.463 358.93C448.555 358.782 448.686 358.662 448.841 358.583C448.996 358.504 449.169 358.468 449.343 358.48L456.627 358.582C458.333 357.207 460.17 356.001 462.11 354.981L464.34 349.232C464.399 349.072 464.498 348.93 464.626 348.819C464.755 348.708 464.91 348.632 465.077 348.597L478.253 345.938C478.421 345.9 478.596 345.907 478.761 345.957C478.926 346.008 479.075 346.099 479.194 346.224L483.47 350.643C485.657 350.843 487.821 351.24 489.936 351.83L496.606 348.884C496.757 348.803 496.925 348.761 497.097 348.761C497.268 348.761 497.437 348.803 497.588 348.884L508.779 356.311C508.921 356.41 509.038 356.542 509.12 356.695C509.201 356.847 509.246 357.017 509.25 357.191L509.127 364.474C510.502 366.186 511.714 368.021 512.749 369.958L518.477 372.188C518.637 372.247 518.779 372.345 518.89 372.474C519.001 372.603 519.077 372.758 519.112 372.924L521.792 386.101C521.823 386.269 521.814 386.442 521.764 386.606C521.714 386.77 521.625 386.92 521.505 387.042L517.066 391.338C516.861 393.511 516.464 395.661 515.879 397.763L518.825 404.453C518.906 404.604 518.948 404.773 518.948 404.944C518.948 405.116 518.906 405.284 518.825 405.435L511.501 416.545C511.404 416.684 511.276 416.798 511.126 416.876C510.977 416.955 510.81 416.995 510.641 416.995L503.337 416.893C501.624 418.25 499.796 419.455 497.874 420.494L495.644 426.243C495.583 426.405 495.482 426.549 495.349 426.66C495.216 426.771 495.057 426.846 494.887 426.877L481.711 429.66H481.506ZM469.987 421.476C470.082 421.457 470.179 421.457 470.274 421.476C472.483 422.12 474.752 422.538 477.046 422.724C477.292 422.753 477.521 422.861 477.701 423.031L481.793 427.328L493.864 424.893L496.033 419.287C496.133 419.06 496.306 418.873 496.524 418.755C498.568 417.698 500.495 416.429 502.273 414.97C502.461 414.811 502.703 414.731 502.948 414.745L510.048 414.847L516.841 404.617L513.976 398.111C513.895 397.886 513.895 397.64 513.976 397.415C514.609 395.203 515.027 392.935 515.224 390.643C515.245 390.395 515.354 390.163 515.531 389.988L519.828 385.896L517.393 373.825L511.807 371.656C511.567 371.569 511.37 371.393 511.255 371.165C510.193 369.124 508.925 367.197 507.47 365.416C507.324 365.229 507.245 364.998 507.245 364.761V357.641L497.015 350.848L490.529 353.712C490.297 353.795 490.044 353.795 489.813 353.712C487.596 353.072 485.32 352.654 483.02 352.464C482.775 352.435 482.545 352.328 482.365 352.157L478.273 347.861L466.202 350.316L464.054 356.004C463.968 356.238 463.801 356.435 463.583 356.556C461.532 357.611 459.597 358.879 457.813 360.341C457.725 360.421 457.622 360.482 457.509 360.521C457.397 360.56 457.277 360.575 457.159 360.567L450.059 360.464L443.246 370.694L446.11 377.201C446.176 377.338 446.21 377.488 446.21 377.64C446.21 377.793 446.176 377.943 446.11 378.08C445.504 380.24 445.107 382.453 444.924 384.689C444.904 384.937 444.795 385.17 444.617 385.344L440.32 389.436L442.775 401.507L448.341 403.676C448.589 403.779 448.792 403.968 448.913 404.208C449.968 406.235 451.23 408.148 452.678 409.916C452.83 410.1 452.91 410.332 452.903 410.571V417.691L463.133 424.484L469.639 421.619C469.746 421.551 469.864 421.503 469.987 421.476ZM480.033 414.847C475.108 414.843 470.277 413.504 466.052 410.973C461.828 408.442 458.368 404.814 456.04 400.474C453.713 396.134 452.605 391.244 452.834 386.325C453.064 381.406 454.622 376.64 457.343 372.536C459.946 368.598 463.526 365.403 467.733 363.263C471.941 361.124 476.631 360.113 481.347 360.329C486.062 360.546 490.64 361.983 494.634 364.499C498.628 367.015 501.9 370.525 504.131 374.685C506.361 378.844 507.474 383.512 507.361 388.231C507.247 392.95 505.911 397.558 503.482 401.606C501.053 405.653 497.616 409.001 493.506 411.322C489.395 413.643 484.753 414.858 480.033 414.847ZM459.062 373.661C456.308 377.816 454.847 382.695 454.866 387.679C454.884 392.664 456.38 397.532 459.165 401.667C461.949 405.801 465.897 409.018 470.51 410.909C475.122 412.8 480.191 413.281 485.077 412.291C489.963 411.302 494.445 408.886 497.958 405.348C501.471 401.811 503.856 397.312 504.811 392.42C505.767 387.527 505.251 382.461 503.328 377.862C501.405 373.263 498.161 369.338 494.007 366.582C491.252 364.738 488.16 363.458 484.908 362.816C481.655 362.173 478.308 362.182 475.059 362.84C471.81 363.498 468.724 364.793 465.978 366.65C463.232 368.508 460.882 370.89 459.062 373.661Z" fill="white"/>
  <path d="M871.248 473.956L839.126 469.618L860.364 310.419L798.411 302.072L648.132 440.422L640.234 499.613L769.726 517.086L763.26 565.514L825.213 573.862L831.679 525.454L863.801 529.791L871.248 473.956ZM708.755 452.023L788.058 379.738L777.173 461.25L708.755 452.023Z" fill="#F97316"/>
  <path d="M806.391 572.348H806.125C805.859 572.298 805.624 572.146 805.471 571.923C805.318 571.701 805.258 571.427 805.306 571.161L853.183 309.396C853.237 309.133 853.391 308.902 853.612 308.749C853.833 308.597 854.104 308.535 854.369 308.578C854.635 308.628 854.87 308.78 855.023 309.003C855.176 309.225 855.236 309.499 855.188 309.764L807.414 571.509C807.366 571.746 807.239 571.959 807.052 572.112C806.866 572.264 806.632 572.348 806.391 572.348Z" fill="#263238"/>
  <path d="M848.742 313.795C848.726 314.24 848.534 314.66 848.207 314.963C847.881 315.266 847.448 315.428 847.003 315.411C846.558 315.395 846.138 315.203 845.835 314.877C845.532 314.55 845.371 314.117 845.387 313.672C845.403 313.227 845.596 312.807 845.922 312.504C846.248 312.201 846.681 312.04 847.126 312.056C847.571 312.072 847.991 312.265 848.294 312.591C848.597 312.917 848.759 313.35 848.742 313.795Z" fill="#263238"/>
  <path d="M841.929 349.191C841.917 349.522 841.807 349.843 841.612 350.112C841.418 350.38 841.148 350.585 840.837 350.701C840.526 350.817 840.188 350.837 839.865 350.761C839.543 350.684 839.25 350.514 839.024 350.271C838.798 350.028 838.649 349.723 838.597 349.396C838.544 349.068 838.589 348.732 838.727 348.431C838.865 348.129 839.089 347.875 839.372 347.701C839.654 347.526 839.982 347.44 840.313 347.452C840.533 347.46 840.75 347.511 840.951 347.603C841.151 347.694 841.332 347.825 841.482 347.986C841.632 348.148 841.749 348.337 841.826 348.544C841.902 348.751 841.938 348.97 841.929 349.191Z" fill="#263238"/>
  <path d="M835.116 384.648C835.108 384.868 835.057 385.085 834.965 385.286C834.874 385.486 834.743 385.667 834.582 385.817C834.42 385.967 834.231 386.084 834.024 386.161C833.817 386.237 833.598 386.273 833.377 386.264C833.158 386.259 832.942 386.21 832.741 386.121C832.541 386.031 832.36 385.903 832.21 385.743C832.059 385.583 831.942 385.395 831.865 385.189C831.788 384.984 831.753 384.765 831.761 384.546C831.766 384.324 831.816 384.105 831.906 383.902C831.997 383.699 832.127 383.516 832.288 383.364C832.45 383.212 832.641 383.093 832.849 383.015C833.057 382.937 833.278 382.901 833.5 382.909C833.943 382.93 834.361 383.124 834.663 383.449C834.965 383.774 835.128 384.205 835.116 384.648Z" fill="#263238"/>
  <path d="M821.695 421.476C821.649 421.886 821.454 422.266 821.146 422.541C820.839 422.816 820.44 422.969 820.027 422.969C819.614 422.969 819.216 422.816 818.908 422.541C818.601 422.266 818.405 421.886 818.36 421.476C818.334 421.242 818.358 421.004 818.429 420.779C818.501 420.555 818.62 420.348 818.777 420.172C818.935 419.996 819.127 419.856 819.343 419.759C819.558 419.663 819.791 419.613 820.027 419.613C820.263 419.613 820.497 419.663 820.712 419.759C820.927 419.856 821.12 419.996 821.277 420.172C821.435 420.348 821.553 420.555 821.625 420.779C821.697 421.004 821.721 421.242 821.695 421.476Z" fill="#263238"/>
  <path d="M821.47 455.378C821.464 455.6 821.415 455.817 821.324 456.019C821.233 456.221 821.103 456.403 820.941 456.553C820.779 456.704 820.588 456.821 820.38 456.896C820.173 456.972 819.952 457.006 819.73 456.995C819.399 456.982 819.079 456.872 818.81 456.678C818.541 456.483 818.336 456.213 818.22 455.903C818.105 455.592 818.084 455.253 818.161 454.931C818.237 454.608 818.408 454.315 818.651 454.089C818.894 453.863 819.198 453.715 819.526 453.662C819.853 453.609 820.189 453.654 820.491 453.792C820.792 453.93 821.046 454.155 821.221 454.437C821.395 454.719 821.482 455.047 821.47 455.378Z" fill="#263238"/>
  <path d="M814.656 490.774C814.647 491.107 814.54 491.429 814.348 491.701C814.156 491.972 813.888 492.181 813.577 492.299C813.266 492.418 812.927 492.442 812.603 492.367C812.279 492.293 811.984 492.124 811.756 491.881C811.529 491.639 811.378 491.335 811.323 491.006C811.269 490.678 811.313 490.341 811.451 490.038C811.588 489.736 811.813 489.48 812.096 489.305C812.378 489.13 812.707 489.043 813.039 489.055C813.481 489.071 813.898 489.261 814.201 489.583C814.503 489.904 814.667 490.333 814.656 490.774Z" fill="#263238"/>
  <path d="M807.843 526.17C807.827 526.617 807.635 527.039 807.31 527.346C806.984 527.652 806.551 527.818 806.104 527.807C805.883 527.799 805.667 527.747 805.466 527.656C805.266 527.564 805.085 527.434 804.935 527.272C804.785 527.111 804.668 526.921 804.591 526.714C804.515 526.508 804.479 526.288 804.487 526.068C804.494 525.847 804.544 525.63 804.635 525.429C804.725 525.228 804.854 525.047 805.015 524.896C805.176 524.745 805.364 524.627 805.57 524.549C805.777 524.471 805.996 524.434 806.216 524.441C806.437 524.448 806.654 524.498 806.854 524.588C807.055 524.679 807.237 524.808 807.388 524.969C807.539 525.129 807.657 525.318 807.735 525.524C807.813 525.73 807.85 525.95 807.843 526.17Z" fill="#263238"/>
  <path d="M801.01 561.586C800.997 561.918 800.887 562.238 800.692 562.507C800.498 562.776 800.228 562.981 799.917 563.096C799.606 563.212 799.268 563.233 798.945 563.156C798.623 563.079 798.33 562.909 798.104 562.666C797.878 562.423 797.73 562.118 797.677 561.791C797.624 561.463 797.669 561.128 797.807 560.826C797.945 560.524 798.17 560.27 798.452 560.096C798.734 559.922 799.062 559.835 799.393 559.847C799.614 559.852 799.832 559.902 800.034 559.992C800.236 560.083 800.418 560.213 800.568 560.376C800.719 560.538 800.836 560.728 800.911 560.936C800.987 561.144 801.021 561.365 801.01 561.586Z" fill="#263238"/>
  <path d="M820.017 422.397C819.786 422.397 819.563 422.318 819.384 422.172C819.205 422.027 819.082 421.824 819.035 421.599C819.004 421.467 819.001 421.331 819.023 421.198C819.046 421.064 819.095 420.937 819.168 420.823C819.24 420.709 819.334 420.61 819.445 420.533C819.555 420.455 819.68 420.4 819.812 420.371L824.886 419.287C825.019 419.257 825.157 419.254 825.291 419.278C825.426 419.302 825.554 419.353 825.668 419.427C825.782 419.502 825.881 419.598 825.957 419.711C826.034 419.824 826.087 419.951 826.114 420.085C826.141 420.216 826.141 420.352 826.116 420.484C826.09 420.616 826.039 420.742 825.965 420.854C825.891 420.966 825.795 421.062 825.684 421.137C825.573 421.213 825.448 421.265 825.316 421.292L820.242 422.376L820.017 422.397Z" fill="#263238"/>
  <path d="M836.978 403.553C834.565 409.813 832.515 416.207 830.84 422.704C829.305 429.926 829.224 446.089 829.224 446.089" fill="#263238"/>
  <path d="M829.224 447.112C828.953 447.102 828.695 446.988 828.505 446.794C828.315 446.6 828.206 446.341 828.201 446.069C828.201 445.414 828.324 429.701 829.858 422.499C831.524 415.946 833.573 409.497 835.996 403.185C836.037 403.05 836.106 402.925 836.197 402.818C836.288 402.711 836.401 402.624 836.527 402.563C836.654 402.501 836.792 402.466 836.932 402.46C837.073 402.454 837.213 402.478 837.344 402.528C837.476 402.579 837.595 402.656 837.695 402.756C837.795 402.855 837.874 402.973 837.926 403.104C837.978 403.235 838.002 403.375 837.998 403.515C837.993 403.656 837.96 403.794 837.899 403.921C835.488 410.133 833.439 416.48 831.761 422.929C830.268 429.967 830.165 445.926 830.145 446.089C830.146 446.344 830.053 446.59 829.882 446.779C829.712 446.968 829.477 447.087 829.224 447.112Z" fill="#263238"/>
  <path d="M455.133 623.703C457.977 577.872 452.759 494.539 538.916 505.587C631.252 517.392 604.839 625.38 604.839 625.38L455.133 623.703Z" fill="#263238"/>
  <path d="M514.589 596.164C535.358 596.164 552.194 579.327 552.194 558.558C552.194 537.789 535.358 520.953 514.589 520.953C493.82 520.953 476.983 537.789 476.983 558.558C476.983 579.327 493.82 596.164 514.589 596.164Z" fill="white"/>
  <path d="M519.54 521.014C501.72 517.986 482.712 531.101 480.81 544.4L551.417 550.906C548.921 535.745 533.658 523.428 519.54 521.014Z" fill="#263238"/>
  <path d="M543.376 557.617C542.865 567.458 537.504 575.172 531.407 574.844C525.31 574.517 520.768 566.312 521.177 556.43C521.586 546.548 527.049 538.876 533.146 539.203C539.243 539.53 543.867 547.796 543.376 557.617Z" fill="#263238"/>
  <path d="M514.589 598.209C506.747 598.209 499.08 595.884 492.56 591.527C486.039 587.17 480.957 580.977 477.956 573.732C474.955 566.487 474.169 558.514 475.699 550.822C477.229 543.131 481.006 536.066 486.551 530.52C492.097 524.975 499.162 521.198 506.853 519.668C514.545 518.138 522.518 518.924 529.763 521.925C537.008 524.926 543.201 530.008 547.558 536.529C551.915 543.049 554.241 550.716 554.241 558.558C554.23 569.071 550.049 579.15 542.615 586.584C535.181 594.018 525.102 598.199 514.589 598.209ZM514.589 523.019C507.555 523.019 500.679 525.105 494.831 529.013C488.983 532.921 484.425 538.476 481.734 544.975C479.044 551.474 478.341 558.625 479.714 565.523C481.088 572.422 484.477 578.758 489.452 583.73C494.427 588.702 500.765 592.087 507.664 593.457C514.563 594.827 521.714 594.12 528.211 591.425C534.708 588.731 540.261 584.17 544.166 578.319C548.07 572.469 550.153 565.592 550.149 558.558C550.138 549.132 546.387 540.096 539.72 533.433C533.053 526.77 524.015 523.024 514.589 523.019Z" fill="#F97316"/>
  <path opacity="0.3" d="M594.343 622.557H594.097C593.966 622.528 593.841 622.473 593.732 622.395C593.622 622.318 593.529 622.218 593.458 622.104C593.388 621.989 593.341 621.862 593.32 621.729C593.3 621.596 593.307 621.46 593.34 621.329C593.34 621.063 599.928 593.32 593.156 565.269C593.091 564.998 593.136 564.712 593.282 564.474C593.428 564.236 593.662 564.066 593.934 564C594.205 563.935 594.491 563.981 594.729 564.126C594.967 564.272 595.137 564.507 595.202 564.778C602.097 593.422 595.448 621.534 595.386 621.8C595.325 622.027 595.189 622.226 594.999 622.364C594.809 622.501 594.577 622.57 594.343 622.557Z" fill="white"/>
  <path opacity="0.3" d="M588.634 549.883C588.437 549.881 588.246 549.824 588.079 549.719C587.913 549.614 587.779 549.466 587.693 549.29C585.15 543.669 581.89 538.401 577.995 533.617C577.825 533.408 577.745 533.14 577.772 532.872C577.798 532.604 577.93 532.357 578.138 532.185C578.242 532.098 578.363 532.032 578.492 531.992C578.622 531.952 578.759 531.939 578.894 531.952C579.029 531.965 579.161 532.005 579.28 532.07C579.4 532.135 579.505 532.222 579.59 532.328C583.582 537.251 586.93 542.662 589.554 548.43C589.613 548.551 589.646 548.682 589.653 548.816C589.66 548.949 589.64 549.083 589.594 549.209C589.548 549.335 589.478 549.45 589.387 549.549C589.295 549.647 589.186 549.726 589.063 549.781C588.929 549.843 588.782 549.878 588.634 549.883Z" fill="white"/>
  <path d="M263.381 838.696H262.624C259.911 838.62 257.339 837.47 255.475 835.498C253.61 833.525 252.605 830.893 252.681 828.18C252.757 825.467 253.907 822.895 255.88 821.03C257.852 819.165 260.484 818.16 263.197 818.236H263.381C269.294 818.236 283.514 811.055 313.263 764.161C314.053 762.915 315.102 761.855 316.34 761.053C317.577 760.251 318.974 759.727 320.433 759.515C321.893 759.303 323.38 759.409 324.795 759.826C326.209 760.243 327.517 760.961 328.628 761.93C351.991 782.014 377.47 799.494 404.617 814.063C405.873 814.634 407.001 815.454 407.932 816.472C408.863 817.491 409.579 818.687 410.035 819.99C410.492 821.292 410.68 822.673 410.589 824.05C410.498 825.428 410.129 826.772 409.505 828.003C408.88 829.234 408.013 830.325 406.956 831.212C405.899 832.099 404.673 832.763 403.352 833.164C402.031 833.565 400.643 833.694 399.271 833.544C397.899 833.395 396.572 832.969 395.369 832.292C370.139 818.886 346.29 803.028 324.168 784.948C299.227 822.492 280.731 838.696 263.381 838.696Z" fill="#263238"/>
  <path d="M326.685 760.089H325.805C324.197 759.856 322.747 758.995 321.773 757.695C320.799 756.395 320.38 754.761 320.608 753.153C322.061 742.923 320.26 704.806 307.35 675.139C306.777 673.828 306.681 672.358 307.077 670.983C307.473 669.609 308.336 668.415 309.519 667.61C337.549 648.521 397.251 646.229 399.788 646.147C400.594 646.12 401.398 646.253 402.153 646.536C402.908 646.82 403.6 647.249 404.188 647.8C404.777 648.351 405.252 649.013 405.585 649.747C405.919 650.482 406.104 651.275 406.131 652.081C406.158 652.887 406.026 653.69 405.742 654.445C405.458 655.2 405.029 655.892 404.478 656.481C403.927 657.07 403.265 657.544 402.531 657.878C401.796 658.211 401.004 658.396 400.198 658.423C399.645 658.423 347.452 660.469 320.649 675.2C332.066 704.745 334.664 741.552 332.761 754.872C332.541 756.325 331.806 757.651 330.691 758.608C329.576 759.565 328.154 760.091 326.685 760.089Z" fill="#263238"/>
  <path d="M336.997 752.15C332.905 742.514 314.491 743.598 303.708 751.864C297.938 756.263 290.123 769.542 289.386 774.37C289.14 775.517 289.177 776.707 289.493 777.837C289.809 778.967 290.395 780.003 291.2 780.857C292.005 781.71 293.006 782.355 294.115 782.736C295.225 783.118 296.41 783.224 297.57 783.045C304.629 782.431 314.306 772.181 314.306 772.181C307.861 778.503 316.189 782.963 328.628 773.818C335.421 768.723 341.559 762.933 336.997 752.15Z" fill="#F97316"/>
  <path d="M688.908 626.403C688.814 626.425 688.716 626.425 688.622 626.403C688.491 626.368 688.369 626.307 688.263 626.224C688.157 626.14 688.068 626.036 688.003 625.918C687.938 625.799 687.898 625.669 687.885 625.534C687.871 625.4 687.886 625.264 687.926 625.135C690.647 615.642 693.614 609.851 697.522 606.721C696.909 604.52 697.024 602.181 697.849 600.051C698.802 597.565 700.486 595.425 702.678 593.913C702.082 593.269 701.659 592.485 701.448 591.634C701.236 590.782 701.244 589.891 701.471 589.044C702.211 586.48 703.744 584.217 705.849 582.578C705.09 581.729 704.674 580.628 704.683 579.489C704.683 573.351 715.956 564.103 728.744 562.343C729.015 562.305 729.29 562.377 729.509 562.542C729.728 562.707 729.872 562.952 729.91 563.223C729.948 563.494 729.877 563.77 729.712 563.988C729.547 564.207 729.301 564.351 729.03 564.389C716.877 566.046 706.688 574.844 706.729 579.489C706.725 580.181 706.988 580.848 707.465 581.351C710.218 579.484 713.314 578.185 716.574 577.528C719.834 576.871 723.192 576.87 726.452 577.525C732.733 578.732 735.291 580.062 735.004 581.964C734.432 585.545 721.071 586.302 712.11 585.238C710.504 585.092 708.942 584.641 707.506 583.908C705.577 585.281 704.142 587.24 703.414 589.494C703.239 590.09 703.24 590.724 703.418 591.32C703.596 591.916 703.943 592.447 704.417 592.849C708.222 590.803 713.562 590.067 720.621 591.621C729.889 593.667 730.237 594.793 730.462 595.468C730.534 595.707 730.54 595.96 730.479 596.202C730.418 596.443 730.292 596.663 730.115 596.839C728.171 598.885 713.951 597.923 706.811 596.164C705.948 595.967 705.116 595.657 704.335 595.243C702.221 596.527 700.595 598.478 699.711 600.788C699.12 602.282 698.957 603.911 699.24 605.493C699.605 605.275 699.98 605.077 700.366 604.9C704.601 602.854 709.716 603.222 716.038 605.923C720.13 607.703 722.176 609.299 722.381 610.915C722.39 611.33 722.286 611.739 722.08 612.1C721.875 612.46 721.576 612.758 721.214 612.961C718.084 615.007 707.158 614.721 701.471 611.693C700.163 610.982 699.073 609.928 698.32 608.644C694.985 611.713 692.284 617.176 689.829 625.749C689.754 625.935 689.628 626.095 689.465 626.211C689.301 626.328 689.108 626.394 688.908 626.403ZM699.997 607.314C700.567 608.373 701.435 609.241 702.494 609.81C707.117 612.266 716.202 612.818 719.598 611.447C720.294 611.161 720.396 610.936 720.396 610.936C720.396 610.936 720.294 609.79 715.281 607.642C709.552 605.186 705.051 604.839 701.307 606.578C700.855 606.795 700.418 607.041 699.997 607.314ZM706.831 593.872L707.343 594.015C714.005 595.551 720.862 596.068 727.68 595.55C725.261 594.653 722.77 593.968 720.232 593.504C715.826 592.31 711.165 592.438 706.831 593.872ZM709.409 582.374C710.353 582.712 711.336 582.932 712.335 583.028C722.565 584.235 731.547 582.824 732.795 581.535C732.447 581.228 731.076 580.348 726.002 579.386C720.292 578.248 714.363 579.315 709.409 582.374Z" fill="#263238"/>
  <path d="M422.561 835.28C423.911 834.85 423.461 833.541 421.947 833.541H394.244C341.498 827.955 304.65 835.443 327.872 837.203C351.094 838.962 326.235 838.594 309.274 845.019C292.312 851.443 435.409 853.059 448.402 845.019C460.35 837.612 403.86 841.274 422.561 835.28Z" fill="#263238"/>
  <path d="M620.9 843.443L379.881 835.443L369.876 601.749L654.495 608.112L620.9 843.443Z" fill="#F97316"/>
  <path d="M455.132 838.962C454.875 838.963 454.626 838.867 454.436 838.692C454.247 838.518 454.13 838.278 454.109 838.021L434.795 603.304C434.778 603.034 434.866 602.768 435.042 602.561C435.218 602.355 435.467 602.225 435.736 602.199C436.005 602.187 436.269 602.278 436.474 602.452C436.679 602.627 436.81 602.873 436.841 603.141L456.258 837.858C456.269 837.992 456.253 838.127 456.212 838.256C456.171 838.384 456.104 838.503 456.017 838.606C455.929 838.709 455.823 838.793 455.702 838.854C455.582 838.915 455.451 838.952 455.316 838.962H455.132Z" fill="#263238"/>
  <path d="M620.899 843.443L685.676 833.581L706.074 616.276L654.495 608.112L620.899 843.443Z" fill="#F97316"/>
  <path opacity="0.2" d="M620.899 843.443L685.676 833.581L706.074 616.276L654.495 608.112L620.899 843.443Z" fill="black"/>
  <path d="M400.463 790.411L394.53 651.549C394.383 648.118 394.942 644.694 396.172 641.488C397.401 638.283 399.276 635.363 401.678 632.91C404.081 630.458 406.962 628.524 410.142 627.229C413.321 625.934 416.733 625.305 420.166 625.38L600.337 629.472C603.885 629.553 607.375 630.384 610.578 631.912C613.781 633.439 616.623 635.629 618.918 638.335C621.213 641.042 622.908 644.205 623.892 647.614C624.875 651.024 625.124 654.603 624.623 658.116L604.654 797.94C603.79 804.064 600.696 809.653 595.965 813.637C591.234 817.62 585.199 819.717 579.018 819.525L424.77 814.41C418.437 814.215 412.413 811.633 407.905 807.182C403.397 802.731 400.739 796.74 400.463 790.411Z" fill="#263238"/>
  <path d="M419.941 667.999L447.807 668.878L447.582 676.06L430.13 675.507L429.966 680.868L446.15 681.379L445.925 688.254L429.741 687.722L429.537 694.372L447.48 694.944L447.234 702.556L418.856 701.655L419.941 667.999Z" fill="white"/>
  <path d="M452.984 702.74L454.048 669.083L471.398 669.635C473.886 669.623 476.362 669.981 478.744 670.699C480.432 671.265 481.876 672.391 482.836 673.891C483.547 674.984 484.025 676.211 484.241 677.496C484.457 678.782 484.406 680.098 484.092 681.363C483.777 682.628 483.205 683.814 482.412 684.849C481.618 685.883 480.62 686.743 479.48 687.374C478.317 687.973 477.067 688.387 475.777 688.602C476.728 688.908 477.631 689.349 478.457 689.911C479.054 690.466 479.589 691.083 480.053 691.753C480.58 692.39 481.046 693.075 481.444 693.799L486.17 703.722L474.426 703.333L469.189 692.878C468.773 691.88 468.161 690.975 467.388 690.218C466.654 689.687 465.777 689.388 464.872 689.359H463.951L463.521 703.006L452.984 702.74ZM464.074 683.057L468.452 683.2C469.382 683.144 470.305 683.014 471.214 682.812C471.899 682.707 472.52 682.35 472.953 681.809C473.396 681.264 473.647 680.588 473.669 679.886C473.708 679.418 473.642 678.948 473.476 678.509C473.309 678.07 473.047 677.673 472.708 677.349C471.566 676.611 470.218 676.26 468.861 676.346L464.278 676.203L464.074 683.057Z" fill="white"/>
  <path d="M489.566 703.824L490.63 670.167L507.96 670.72C510.448 670.705 512.924 671.064 515.305 671.784C516.997 672.343 518.443 673.471 519.397 674.975C520.436 676.615 520.923 678.543 520.788 680.479C520.794 682.112 520.358 683.716 519.526 685.121C518.694 686.526 517.497 687.679 516.062 688.458C514.897 689.054 513.649 689.468 512.359 689.686C513.304 689.991 514.2 690.432 515.019 690.996C515.63 691.534 516.173 692.145 516.635 692.816C517.158 693.456 517.624 694.141 518.026 694.862L522.753 704.765L511.008 704.397L505.771 693.942C505.352 692.945 504.74 692.041 503.97 691.282C503.239 690.73 502.349 690.429 501.433 690.423H500.533L500.083 704.09L489.566 703.824ZM500.635 684.141L505.034 684.264C505.964 684.229 506.889 684.106 507.796 683.896C508.477 683.795 509.092 683.436 509.515 682.893C509.973 682.357 510.227 681.676 510.231 680.97C510.275 680.504 510.214 680.033 510.051 679.594C509.888 679.155 509.628 678.758 509.29 678.433C508.149 677.677 506.788 677.324 505.423 677.431L500.86 677.287L500.635 684.141Z" fill="white"/>
  <path d="M524.431 688.193C524.273 685.844 524.637 683.49 525.497 681.298C526.357 679.107 527.692 677.134 529.406 675.52C531.119 673.906 533.169 672.692 535.408 671.965C537.646 671.237 540.019 671.015 542.353 671.313C544.71 671.235 547.058 671.631 549.258 672.478C551.458 673.325 553.466 674.606 555.161 676.244C556.675 677.987 557.818 680.019 558.521 682.217C559.225 684.416 559.474 686.734 559.253 689.032C559.27 692.374 558.484 695.672 556.962 698.648C555.582 701.083 553.52 703.06 551.029 704.336C548.092 705.739 544.843 706.36 541.596 706.136C538.359 706.163 535.157 705.464 532.226 704.09C529.73 702.736 527.693 700.671 526.374 698.157C524.827 695.076 524.155 691.629 524.431 688.193ZM534.824 688.561C534.517 691.14 535.102 693.746 536.481 695.947C537.127 696.667 537.91 697.25 538.785 697.661C539.66 698.072 540.609 698.302 541.575 698.338C542.541 698.375 543.505 698.216 544.408 697.872C545.312 697.528 546.137 697.005 546.834 696.336C548.351 694.039 549.07 691.307 548.88 688.561C549.155 686.095 548.554 683.611 547.182 681.543C546.562 680.828 545.795 680.255 544.933 679.863C544.072 679.472 543.136 679.27 542.19 679.272C541.235 679.203 540.277 679.352 539.387 679.706C538.498 680.061 537.7 680.612 537.054 681.318C535.505 683.407 534.718 685.963 534.824 688.561Z" fill="white"/>
  <path d="M564.512 706.3L565.576 672.623L582.905 673.175C585.392 673.171 587.867 673.529 590.25 674.239C591.934 674.813 593.376 675.937 594.342 677.431C595.376 679.072 595.863 680.999 595.734 682.934C595.743 684.571 595.309 686.179 594.477 687.588C593.644 688.997 592.445 690.153 591.007 690.934C589.838 691.513 588.59 691.92 587.304 692.141C588.251 692.453 589.147 692.901 589.964 693.471C590.576 694.009 591.118 694.621 591.58 695.292C592.107 695.929 592.573 696.614 592.972 697.338L597.698 707.261L585.954 706.893L580.716 696.418C580.299 695.426 579.687 694.528 578.916 693.778C578.182 693.229 577.295 692.921 576.378 692.898H575.478L575.028 706.566L564.512 706.3ZM575.581 686.597L579.979 686.74C580.91 686.705 581.835 686.581 582.742 686.372C583.419 686.263 584.032 685.905 584.46 685.369C584.943 684.799 585.198 684.07 585.176 683.323C585.221 682.86 585.159 682.392 584.996 681.956C584.833 681.52 584.573 681.127 584.235 680.807C583.094 680.051 581.733 679.698 580.368 679.804L575.806 679.661L575.581 686.597Z" fill="white"/>
  <path d="M581.064 763.485C580.68 763.493 580.299 763.418 579.946 763.266C579.593 763.115 579.277 762.889 579.018 762.606L561.504 743.435L542.599 760.703C542.075 761.183 541.382 761.435 540.672 761.404C539.963 761.374 539.294 761.063 538.814 760.539L521.3 741.368L502.395 758.636C501.871 759.116 501.178 759.369 500.469 759.338C499.759 759.307 499.09 758.996 498.61 758.473L481.076 739.302L462.191 756.57C461.916 756.819 461.592 757.01 461.24 757.13C460.888 757.249 460.515 757.295 460.145 757.266C459.434 757.223 458.767 756.908 458.283 756.386L440.769 737.235L421.885 754.483C421.358 754.964 420.661 755.217 419.948 755.186C419.235 755.156 418.563 754.844 418.079 754.319C417.84 754.06 417.655 753.756 417.535 753.424C417.415 753.093 417.362 752.741 417.379 752.388C417.396 752.036 417.483 751.691 417.635 751.372C417.787 751.054 418 750.769 418.263 750.534L439.133 731.445C439.66 730.964 440.356 730.711 441.069 730.742C441.782 730.772 442.454 731.084 442.938 731.609L460.452 750.78L479.337 733.512C479.872 733.041 480.567 732.792 481.28 732.816C481.992 732.854 482.661 733.17 483.142 733.696L500.656 752.867L519.561 735.598C519.819 735.358 520.122 735.172 520.453 735.05C520.784 734.928 521.135 734.873 521.488 734.888C521.84 734.904 522.186 734.989 522.505 735.139C522.824 735.289 523.11 735.501 523.346 735.762L540.86 754.933L559.765 737.665C560.289 737.185 560.981 736.933 561.691 736.963C562.401 736.994 563.069 737.305 563.55 737.829L583.11 759.066C583.459 759.457 583.687 759.941 583.767 760.459C583.846 760.977 583.772 761.507 583.555 761.984C583.339 762.462 582.987 762.865 582.545 763.146C582.103 763.427 581.588 763.574 581.064 763.567V763.485Z" fill="white"/>
  <path d="M257.284 848.415L244.476 842.297L233.06 786.708L239.259 779.894L257.284 848.415Z" fill="#F97316"/>
  <path d="M257.284 848.415L274.286 838.471L259.719 792.682L239.259 779.894L257.284 848.415Z" fill="#F97316"/>
  <path opacity="0.2" d="M257.284 848.415L274.286 838.471L259.719 792.682L239.259 779.894L257.284 848.415Z" fill="black"/>
  <path d="M536.052 858.522H534.64C531.927 858.449 529.354 857.301 527.487 855.331C525.621 853.36 524.613 850.729 524.686 848.016C524.76 845.303 525.908 842.73 527.878 840.863C529.848 838.996 532.479 837.989 535.193 838.062C550.947 838.574 584.297 828.896 603.365 810.4C604.517 809.271 605.919 808.429 607.457 807.945C639.764 798.247 651.774 817.827 652.265 818.666L634.669 829.08C634.731 829.211 634.806 829.334 634.894 829.448C634.71 829.182 630.127 823.31 615.559 826.911C591.642 848.722 554.936 858.522 536.052 858.522Z" fill="#263238"/>
  <path d="M534.804 872.107L497.546 869.775L494.62 801.07L544.686 802.932L534.804 872.107Z" fill="#F97316"/>
  <path d="M534.804 872.108L543.52 863.433L548.921 820.61L544.686 802.932L534.804 872.108Z" fill="#F97316"/>
  <path opacity="0.2" d="M534.804 872.108L543.52 863.433L548.921 820.61L544.686 802.932L534.804 872.108Z" fill="black"/>
  <path d="M750.697 846.103C749.36 846.101 748.06 845.663 746.994 844.855C725.716 828.691 696.969 799.986 685.942 772.304C685.776 771.903 685.659 771.484 685.594 771.056C680.213 739.056 675.077 671.722 674.852 668.878C674.792 668.072 674.891 667.262 675.143 666.494C675.396 665.726 675.797 665.016 676.324 664.403C677.389 663.166 678.902 662.402 680.53 662.28C682.158 662.158 683.767 662.687 685.005 663.752C686.242 664.817 687.006 666.33 687.128 667.958C687.128 668.633 692.386 736.621 697.624 768.355C708.632 795.28 738.544 822.922 754.462 835.075C755.487 835.852 756.242 836.932 756.62 838.162C756.997 839.392 756.979 840.71 756.568 841.928C756.156 843.147 755.372 844.206 754.326 844.955C753.28 845.704 752.025 846.106 750.738 846.103H750.697Z" fill="#263238"/>
  <path d="M779.076 849.192C774.329 849.192 768.948 847.044 763.076 842.809C761.757 841.854 760.872 840.414 760.615 838.806C760.358 837.199 760.75 835.555 761.705 834.236C762.66 832.918 764.1 832.032 765.708 831.775C767.315 831.518 768.959 831.91 770.278 832.865C775.352 836.528 778.114 836.957 779.076 836.957C780.704 836.957 782.265 837.604 783.416 838.755C784.567 839.906 785.214 841.467 785.214 843.095C785.214 844.723 784.567 846.284 783.416 847.436C782.265 848.587 780.704 849.233 779.076 849.233V849.192Z" fill="#263238"/>
  <path d="M764.794 842.625C771.362 823.126 798.287 826.973 807.576 829.878C815.511 832.181 823.121 835.481 830.225 839.699C835.238 842.972 835.32 848.476 828.629 851.607C820.445 855.453 799.658 852.036 799.658 852.036C810.379 856.722 799.658 864.312 780.814 856.865C774.697 854.451 762.482 849.786 764.794 842.625Z" fill="#F97316"/>
  <path d="M699.445 677.226C697.011 693.799 683.282 706.013 672.111 704.376C660.94 702.74 660.49 688.008 662.924 671.354C665.359 654.7 669.779 642.71 680.95 644.347C692.121 645.984 701.88 660.715 699.445 677.226Z" fill="#263238"/>
  <path d="M429.414 611.14C430.341 611.14 431.092 610.389 431.092 609.462C431.092 608.536 430.341 607.785 429.414 607.785C428.487 607.785 427.736 608.536 427.736 609.462C427.736 610.389 428.487 611.14 429.414 611.14Z" fill="#263238"/>
  <path d="M446.457 621.534C446.457 621.866 446.359 622.19 446.174 622.466C445.99 622.742 445.728 622.957 445.421 623.084C445.115 623.211 444.777 623.244 444.452 623.179C444.127 623.115 443.828 622.955 443.593 622.72C443.358 622.486 443.199 622.187 443.134 621.861C443.069 621.536 443.102 621.198 443.229 620.892C443.356 620.585 443.571 620.323 443.847 620.139C444.123 619.955 444.447 619.856 444.779 619.856C445.224 619.856 445.651 620.033 445.966 620.348C446.28 620.662 446.457 621.089 446.457 621.534Z" fill="#263238"/>
  <path d="M448.34 819.791C448.34 820.123 448.241 820.447 448.057 820.723C447.873 820.999 447.611 821.214 447.304 821.341C446.998 821.468 446.66 821.502 446.335 821.437C446.009 821.372 445.71 821.212 445.476 820.978C445.241 820.743 445.081 820.444 445.017 820.119C444.952 819.793 444.985 819.456 445.112 819.149C445.239 818.843 445.454 818.581 445.73 818.396C446.006 818.212 446.33 818.114 446.662 818.114C447.107 818.114 447.534 818.29 447.848 818.605C448.163 818.92 448.34 819.346 448.34 819.791Z" fill="#263238"/>
  <path d="M463.705 831.883C463.705 832.215 463.607 832.539 463.422 832.815C463.238 833.091 462.976 833.306 462.669 833.433C462.363 833.56 462.025 833.593 461.7 833.529C461.375 833.464 461.076 833.304 460.841 833.069C460.606 832.835 460.447 832.536 460.382 832.21C460.317 831.885 460.35 831.548 460.477 831.241C460.604 830.934 460.819 830.672 461.095 830.488C461.371 830.304 461.696 830.205 462.027 830.205C462.472 830.205 462.899 830.382 463.214 830.697C463.528 831.011 463.705 831.438 463.705 831.883Z" fill="#263238"/>
  <path d="M168.815 851.995C165.87 851.858 162.993 851.06 160.397 849.661C157.801 848.262 155.553 846.298 153.818 843.914C153.733 843.804 153.671 843.678 153.636 843.544C153.601 843.409 153.594 843.269 153.615 843.132C153.636 842.995 153.685 842.863 153.759 842.746C153.832 842.628 153.929 842.526 154.043 842.447C154.157 842.368 154.286 842.312 154.422 842.285C154.558 842.257 154.698 842.257 154.834 842.285C154.97 842.313 155.098 842.369 155.212 842.448C155.326 842.528 155.423 842.629 155.496 842.747C159.322 848.272 167.772 851.197 171.455 849.458C171.823 849.302 172.152 849.064 172.416 848.763C170.555 847.944 168.925 846.679 167.669 845.08C166.413 843.482 165.57 841.598 165.214 839.597C164.744 836.998 164.375 833.459 166.503 833.008C169.449 832.354 173.296 839.453 174.687 844.834C174.939 845.725 175.029 846.654 174.953 847.576C176.133 847.928 177.374 848.025 178.595 847.862C179.145 847.82 179.68 847.664 180.166 847.403C180.652 847.142 181.079 846.783 181.419 846.348C180.072 845.332 178.955 844.044 178.141 842.566C177.326 841.089 176.833 839.457 176.692 837.776C175.915 832.17 176.508 831.208 177.122 830.717C177.321 830.564 177.558 830.47 177.807 830.445C178.057 830.42 178.308 830.464 178.534 830.574C180.723 831.494 183.362 839.433 183.874 843.934C183.935 844.403 183.935 844.877 183.874 845.346C184.756 845.685 185.691 845.865 186.636 845.878C188.371 845.945 190.087 845.497 191.567 844.589C191.28 844.405 191.014 844.2 190.748 843.995C188.702 842.175 187.761 839.269 188.129 835.136C188.416 831.924 189.132 830.165 190.421 829.612C190.837 829.445 191.292 829.403 191.732 829.49C192.171 829.577 192.576 829.79 192.897 830.103C194.278 831.628 195.31 833.436 195.921 835.401C196.532 837.365 196.708 839.439 196.436 841.479C196.259 842.328 195.903 843.13 195.393 843.832C199.157 844.486 204.436 843.423 208.999 842.297C209.133 842.265 209.272 842.26 209.409 842.281C209.545 842.303 209.676 842.351 209.794 842.423C209.912 842.496 210.014 842.59 210.095 842.702C210.177 842.814 210.235 842.94 210.267 843.075C210.299 843.209 210.305 843.348 210.283 843.485C210.262 843.621 210.213 843.752 210.141 843.87C210.069 843.988 209.974 844.09 209.862 844.171C209.751 844.253 209.624 844.311 209.49 844.343C203.945 845.714 197.971 846.839 193.756 845.612C191.699 847.176 189.179 848.011 186.595 847.985C185.448 847.97 184.313 847.755 183.239 847.351C182.763 848.087 182.125 848.704 181.373 849.155C180.621 849.605 179.776 849.877 178.902 849.949C177.364 850.147 175.802 850.015 174.319 849.561C173.842 850.365 173.127 851.001 172.273 851.382C171.176 851.824 169.998 852.033 168.815 851.995ZM167.056 835.054C166.773 836.445 166.829 837.884 167.219 839.249C167.508 840.885 168.187 842.427 169.198 843.745C170.21 845.063 171.524 846.117 173.03 846.819C173.001 846.334 172.919 845.854 172.784 845.387C171.189 839.535 168.12 835.505 167.056 835.054ZM178.452 833.274C178.465 834.686 178.581 836.095 178.8 837.489C179.025 839.984 180.127 842.318 181.91 844.077C181.406 840.3 180.235 836.642 178.452 833.274ZM191.321 831.494C191.321 831.494 190.544 831.883 190.257 835.3C189.971 838.717 190.564 841.07 192.16 842.44C192.538 842.746 192.95 843.007 193.388 843.218C193.926 842.642 194.306 841.938 194.492 841.172C194.857 837.951 193.987 834.713 192.058 832.108C191.628 831.576 191.383 831.494 191.321 831.494Z" fill="#263238"/>
  <path d="M468.267 867.463L473.812 857.847L468.267 848.231H462.334L465.689 857.847L462.334 867.463H468.267Z" fill="#263238"/>
  <path d="M462.723 862.86C462.039 862.903 461.354 862.806 460.709 862.575C460.064 862.343 459.473 861.982 458.974 861.513C458.474 861.044 458.075 860.478 457.803 859.849C457.531 859.22 457.39 858.542 457.39 857.857C457.39 857.172 457.531 856.494 457.803 855.865C458.075 855.236 458.474 854.67 458.974 854.201C459.473 853.732 460.064 853.371 460.709 853.139C461.354 852.908 462.039 852.811 462.723 852.855L453.311 850.972L450.795 858.584L455.01 865.008L462.723 862.86Z" fill="#263238"/>
  <path d="M463.541 848.231H452.431L446.887 857.847L452.431 867.463H463.541L469.086 857.847L463.541 848.231ZM457.997 862.86C457.004 862.864 456.033 862.573 455.206 862.025C454.379 861.476 453.733 860.695 453.351 859.779C452.968 858.864 452.866 857.855 453.057 856.882C453.248 855.908 453.724 855.013 454.424 854.31C455.125 853.607 456.018 853.127 456.991 852.932C457.963 852.737 458.972 852.835 459.89 853.214C460.807 853.593 461.591 854.235 462.142 855.06C462.694 855.885 462.989 856.855 462.989 857.847C462.989 859.173 462.463 860.445 461.528 861.384C460.592 862.324 459.322 862.854 457.997 862.86Z" fill="#F97316"/>
  <path d="M855.003 847.576L850.891 840.435L855.003 833.295H859.402L856.926 840.435L859.402 847.576H855.003Z" fill="#F97316"/>
  <path d="M859.115 844.159C859.626 844.197 860.139 844.129 860.623 843.96C861.106 843.79 861.549 843.523 861.925 843.174C862.3 842.826 862.6 842.404 862.804 841.934C863.009 841.465 863.115 840.958 863.115 840.446C863.115 839.933 863.009 839.427 862.804 838.957C862.6 838.488 862.3 838.065 861.925 837.717C861.549 837.368 861.106 837.101 860.623 836.931C860.139 836.762 859.626 836.694 859.115 836.732L866.113 835.341L867.974 840.988L864.864 845.755L859.115 844.159Z" fill="#F97316"/>
  <path d="M858.522 833.295H866.706L870.798 840.435L866.706 847.576H858.522L854.43 840.435L858.522 833.295ZM862.614 844.159C863.351 844.163 864.073 843.948 864.688 843.542C865.303 843.135 865.784 842.555 866.069 841.875C866.354 841.195 866.43 840.445 866.289 839.722C866.147 838.998 865.794 838.333 865.274 837.81C864.755 837.287 864.091 836.93 863.368 836.785C862.645 836.64 861.896 836.712 861.214 836.993C860.532 837.275 859.95 837.752 859.539 838.365C859.129 838.977 858.91 839.698 858.91 840.435C858.908 840.925 859.002 841.411 859.188 841.864C859.375 842.317 859.649 842.728 859.995 843.075C860.341 843.421 860.753 843.695 861.206 843.881C861.659 844.067 862.144 844.162 862.634 844.159H862.614Z" fill="#263238"/>
  <path d="M701.778 857.069H711.026C712.183 857.064 713.292 856.6 714.109 855.78C714.925 854.959 715.384 853.849 715.384 852.691C715.384 851.533 714.925 850.423 714.109 849.602C713.292 848.782 712.183 848.318 711.026 848.312H701.778C700.617 848.313 699.503 848.774 698.682 849.595C697.861 850.416 697.399 851.53 697.399 852.691C697.399 853.852 697.861 854.966 698.682 855.787C699.503 856.608 700.617 857.069 701.778 857.069Z" fill="#263238"/>
  <path d="M686.903 848.804C687.761 847.243 689.058 845.967 690.632 845.134C692.207 844.301 693.99 843.947 695.764 844.116C697.537 844.285 699.222 844.969 700.611 846.084C702 847.199 703.033 848.696 703.581 850.39C704.13 852.085 704.17 853.903 703.698 855.621C703.225 857.338 702.26 858.88 700.922 860.055C699.584 861.231 697.931 861.989 696.167 862.237C694.403 862.484 692.605 862.21 690.995 861.448C688.782 860.307 687.111 858.337 686.344 855.969C685.577 853.6 685.778 851.025 686.903 848.804Z" fill="#F97316"/>
  <path d="M689.398 861.445L691.934 862.641L700.745 843.949L698.21 842.754L689.398 861.445Z" fill="#263238"/>
</svg>
