<svg width="718" height="512" viewBox="0 0 718 512" fill="none" xmlns="http://www.w3.org/2000/svg">
  <path d="M718 437.854H0V438.187H718V437.854Z" fill="#EBEBEB"/>
  <path d="M646.056 459.278H598.496V459.612H646.056V459.278Z" fill="#EBEBEB"/>
  <path d="M475.632 462.9H419.312V463.234H475.632V462.9Z" fill="#EBEBEB"/>
  <path d="M597.058 446.922H515.178V447.255H597.058V446.922Z" fill="#EBEBEB"/>
  <path d="M349.105 449.159H250.553V449.492H349.105V449.159Z" fill="#EBEBEB"/>
  <path d="M370.975 449.159H361.885V449.492H370.975V449.159Z" fill="#EBEBEB"/>
  <path d="M323.3 454.778H141.201V455.111H323.3V454.778Z" fill="#EBEBEB"/>
  <path d="M340.332 378.466H63.0543C60.8822 378.463 58.8003 377.66 57.2657 376.235C55.731 374.809 54.8691 372.877 54.8691 370.863V9.44069C54.888 7.43807 55.7583 5.52324 57.2909 4.11211C58.8234 2.70099 60.8946 1.90754 63.0543 1.90411H340.332C342.506 1.90411 344.592 2.70516 346.13 4.13103C347.667 5.55689 348.531 7.49078 348.531 9.50726V370.863C348.531 372.88 347.667 374.814 346.13 376.24C344.592 377.665 342.506 378.466 340.332 378.466ZM63.0543 2.17042C60.9774 2.17395 58.9868 2.94148 57.5195 4.30453C56.0522 5.66759 55.2281 7.5148 55.2281 9.44069V370.863C55.2281 372.789 56.0522 374.636 57.5195 375.999C58.9868 377.362 60.9774 378.13 63.0543 378.134H340.332C342.41 378.13 344.402 377.363 345.872 376C347.341 374.638 348.168 372.79 348.172 370.863V9.44069C348.168 7.51357 347.341 5.6664 345.872 4.30372C344.402 2.94105 342.41 2.17394 340.332 2.17042H63.0543Z" fill="#EBEBEB"/>
  <path d="M650.954 378.466H373.662C371.489 378.463 369.406 377.661 367.869 376.236C366.332 374.811 365.467 372.879 365.463 370.863V9.44069C365.486 7.43685 366.359 5.52204 367.894 4.11128C369.429 2.70053 371.501 1.90751 373.662 1.90411H650.954C653.111 1.91104 655.179 2.70604 656.708 4.11679C658.238 5.52754 659.106 7.44037 659.125 9.44069V370.863C659.125 372.875 658.265 374.805 656.733 376.23C655.202 377.655 653.124 378.459 650.954 378.466ZM373.662 2.17042C371.584 2.17394 369.592 2.94105 368.123 4.30372C366.653 5.6664 365.826 7.51357 365.822 9.44069V370.863C365.826 372.79 366.653 374.638 368.123 376C369.592 377.363 371.584 378.13 373.662 378.134H650.954C653.032 378.13 655.024 377.363 656.494 376C657.964 374.638 658.791 372.79 658.795 370.863V9.44069C658.791 7.51357 657.964 5.6664 656.494 4.30372C655.024 2.94105 653.032 2.17394 650.954 2.17042H373.662Z" fill="#EBEBEB"/>
  <path d="M417.402 254.499V36.338L101.87 36.338V254.499L417.402 254.499Z" fill="#EBEBEB"/>
  <path d="M419.312 254.499V36.338H417.403V254.499H419.312Z" fill="#E0E0E0"/>
  <path d="M117.48 239.999L401.779 239.999V50.7987L117.48 50.7987V239.999Z" fill="#F5F5F5"/>
  <path d="M326.172 250.145H376.748V184.499H326.172V250.145Z" fill="white"/>
  <path d="M251.99 227.043H302.552L306.185 161.397H255.623L251.99 227.043Z" fill="white"/>
  <path d="M220.326 250.145H270.902V184.499H220.326V250.145Z" fill="white"/>
  <path d="M146.141 227.043H196.717L200.35 161.397H149.788L146.141 227.043Z" fill="white"/>
  <path d="M188.904 145.072L257.746 149.626L269.579 60.5988L200.723 56.0449L188.904 145.072Z" fill="white"/>
  <path d="M354.391 110.239H404.952L408.6 44.5937H358.024L354.391 110.239Z" fill="white"/>
  <path d="M287.949 147.816L338.477 149.87L341.577 84.2876L291.05 82.2338L287.949 147.816Z" fill="white"/>
  <path d="M110.814 129.57L161.369 128.211L159.318 62.5931L108.764 63.9516L110.814 129.57Z" fill="white"/>
  <path d="M483.371 230.012L611.836 230.012V54.8331L483.371 54.8331V230.012Z" fill="#E0E0E0"/>
  <path d="M475.631 230.012L608.332 230.012V54.8331L475.631 54.8331V230.012Z" fill="#F5F5F5"/>
  <path d="M486.746 68.6414V216.217H597.218V68.6414H486.746Z" fill="white"/>
  <path d="M555.732 149.56V160.785C552.121 160.786 548.546 160.129 545.209 158.849C541.873 157.569 538.841 155.692 536.288 153.325C533.734 150.958 531.708 148.148 530.326 145.055C528.944 141.962 528.232 138.647 528.232 135.299V124.061C535.526 124.061 542.52 126.747 547.677 131.529C552.835 136.311 555.732 142.797 555.732 149.56Z" fill="#F5F5F5"/>
  <path d="M555.732 111.664V122.902C548.439 122.902 541.444 120.215 536.287 115.433C531.13 110.651 528.232 104.166 528.232 97.4028V86.1778C531.843 86.1761 535.419 86.834 538.755 88.114C542.091 89.394 545.123 91.271 547.677 93.6378C550.23 96.0045 552.256 98.8147 553.638 101.908C555.02 105.001 555.732 108.316 555.732 111.664Z" fill="#F5F5F5"/>
  <path d="M555.732 187.442V198.68C548.439 198.68 541.444 195.994 536.287 191.212C531.13 186.43 528.232 179.944 528.232 173.181V161.943C535.526 161.943 542.52 164.63 547.677 169.412C552.835 174.194 555.732 180.679 555.732 187.442Z" fill="#F5F5F5"/>
  <path d="M373.533 429.039H413.842V290.012H373.533V429.039Z" fill="#F0F0F0"/>
  <path d="M130.459 437.854L400.844 437.854V429.039L130.459 429.039V437.854Z" fill="#F0F0F0"/>
  <path d="M373.531 290.025H117.492V429.052H373.531V290.025Z" fill="#F5F5F5"/>
  <path d="M346.95 307.135H144.072V352.728H346.95V307.135Z" fill="#F0F0F0"/>
  <path d="M346.95 366.336H144.072V411.928H346.95V366.336Z" fill="#F0F0F0"/>
  <path d="M215.099 354.232H275.928C277.57 354.232 278.9 352.998 278.9 351.476V350.73C278.9 349.208 277.57 347.974 275.928 347.974H215.099C213.457 347.974 212.126 349.208 212.126 350.73V351.476C212.126 352.998 213.457 354.232 215.099 354.232Z" fill="#F5F5F5"/>
  <path d="M215.099 413.446H275.928C277.57 413.446 278.9 412.212 278.9 410.69V409.944C278.9 408.422 277.57 407.188 275.928 407.188H215.099C213.457 407.188 212.126 408.422 212.126 409.944V410.69C212.126 412.212 213.457 413.446 215.099 413.446Z" fill="#F5F5F5"/>
  <path d="M550.104 403.579C550.204 371.369 551.066 327.441 556.896 311.543L564.88 308.533C564.88 308.533 562.913 311.516 558.605 360.93C554.541 407.068 554.096 398.826 554.397 403.54C554.397 404.192 553.421 404.738 552.186 404.711C551.023 404.685 550.104 404.192 550.104 403.579Z" fill="#E6E6E6"/>
  <path d="M545.524 304.259C533.964 295.351 508.748 288.68 482.21 288.201C471.785 288.014 501.984 309.253 522.418 319.492C537.597 327.109 554.341 334.019 558.462 342.129C557.385 325.165 557.17 313.154 545.524 304.259Z" fill="#E6E6E6"/>
  <path d="M547.244 348.493C539.188 342.288 521.612 337.641 503.116 337.308C495.85 337.175 516.902 351.955 531.132 359.119C541.701 364.445 553.376 369.239 556.248 374.925C555.516 363.074 555.315 354.765 547.244 348.493Z" fill="#E6E6E6"/>
  <path d="M569.275 326.802C582.515 316.936 610.919 309.692 640.73 309.386C652.419 309.279 625.968 331.05 597.981 341.09C578.566 348.107 558.462 360.091 553.594 369.226C555.317 350.184 556.035 336.722 569.275 326.802Z" fill="#E6E6E6"/>
  <path d="M562.051 295.711C570.738 287.468 590.268 279.732 611.119 276.856C619.304 275.724 608.419 290.651 583.131 303.101C569.791 309.652 556.45 320.411 553.578 327.348C553.65 313.607 553.348 303.94 562.051 295.711Z" fill="#E6E6E6"/>
  <path d="M530.012 398.16L532.123 436.203C532.148 436.647 532.356 437.065 532.703 437.372C533.05 437.679 533.51 437.851 533.989 437.854H580.372C580.852 437.851 581.312 437.679 581.659 437.372C582.006 437.065 582.213 436.647 582.239 436.203L584.35 398.16H530.012Z" fill="#F0F0F0"/>
  <path d="M587.869 406.229H526.494L524.742 391.463H589.635L587.869 406.229Z" fill="#F0F0F0"/>
  <path d="M358.998 511.302C512.769 511.302 637.424 504.553 637.424 496.229C637.424 487.904 512.769 481.156 358.998 481.156C205.228 481.156 80.5723 487.904 80.5723 496.229C80.5723 504.553 205.228 511.302 358.998 511.302Z" fill="#F5F5F5"/>
  <path d="M547.645 37.856L546.281 37.4299C547.127 35.0771 547.559 32.6131 547.559 30.133H548.995C548.992 32.7576 548.536 35.3648 547.645 37.856Z" fill="#F97316"/>
  <path d="M546.513 23.4485C545.367 19.9333 543.353 16.7141 540.631 14.0467C537.909 11.3793 534.554 9.33718 530.832 8.08244L531.32 6.83078C535.254 8.15482 538.8 10.3132 541.675 13.1337C544.55 15.9543 546.674 19.3588 547.877 23.0757L546.513 23.4485Z" fill="#F97316"/>
  <path d="M543.972 30.1463C543.975 26.4581 542.886 22.8398 540.823 19.6863C538.761 16.5329 535.803 13.9655 532.274 12.2643C528.745 10.5631 524.78 9.79354 520.811 10.0396C516.842 10.2856 513.023 11.5378 509.769 13.6594C506.516 15.7811 503.953 18.6907 502.361 22.0707C500.77 25.4507 500.21 29.1712 500.743 32.8261C501.276 36.4811 502.881 39.93 505.384 42.7965C507.887 45.663 511.191 47.8369 514.936 49.0809L529.841 54.4071L527.012 49.8399C531.834 48.8368 536.143 46.3386 539.226 42.7579C542.31 39.1773 543.984 34.7284 543.972 30.1463Z" fill="#F97316"/>
  <path d="M488.729 43.0224C488.726 40.3198 489.524 37.6685 491.036 35.3579C492.547 33.0472 494.714 31.1659 497.3 29.9192C499.886 28.6726 502.792 28.1086 505.7 28.2887C508.608 28.4687 511.407 29.3861 513.791 30.9405C516.175 32.4949 518.053 34.6267 519.22 37.1032C520.386 39.5798 520.797 42.3059 520.407 44.9842C520.017 47.6624 518.841 50.1898 517.008 52.2906C515.174 54.3914 512.754 55.9849 510.01 56.8971L499.082 60.8918L501.164 57.4164C497.639 56.6798 494.488 54.854 492.228 52.2387C489.969 49.6233 488.735 46.3735 488.729 43.0224Z" fill="#263238"/>
  <path d="M573.308 86.3376C567.291 91.2644 554.511 94.9128 547.158 94.3269C543.41 116.67 563.557 134.46 563.557 134.46C563.557 134.46 589.305 124.673 594.546 102.583C587.467 100.665 576.984 92.9554 573.308 86.3376Z" fill="#F97316"/>
  <path opacity="0.3" d="M550.348 97.6425C549.213 113.088 560.127 126.031 564.378 130.439C570.122 127.775 585.286 119.373 590.226 104.607C583.221 101.453 577.101 96.8359 572.347 91.1179C565.658 94.8429 558.127 97.0764 550.348 97.6425Z" fill="white"/>
  <path d="M305.223 25.2462L324.867 5.88544L350.887 17.0039L305.223 25.2462Z" fill="#F97316"/>
  <path d="M350.895 17.0128L305.225 25.2522C303.131 25.63 301.764 27.5104 302.171 29.4522L307.089 52.8874C307.496 54.8292 309.524 56.0971 311.618 55.7193L357.288 47.48C359.382 47.1022 360.75 45.2218 360.342 43.28L355.425 19.8447C355.017 17.9029 352.989 16.635 350.895 17.0128Z" fill="#F97316"/>
  <path opacity="0.4" d="M305.223 25.2462L331.257 36.3513L350.887 17.0039L305.223 25.2462Z" fill="black"/>
  <path d="M305.695 10.4793L312.229 28.2289L331.256 36.3513L346.593 21.2382L338.766 0L305.695 10.4793Z" fill="#F97316"/>
  <g opacity="0.7">
    <path d="M305.695 10.4793L312.229 28.2289L331.256 36.3513L346.593 21.2382L338.766 0L305.695 10.4793Z" fill="white"/>
  </g>
  <path d="M302.723 87.5095L300.139 87.3763C299.603 86.6044 298.982 85.886 298.286 85.2325L298.717 82.8624L292.384 79.6267L290.46 81.2246C289.487 81.0357 288.496 80.9332 287.502 80.9183L286.066 78.9609L279.116 80.8251L278.972 83.2352C278.132 83.728 277.352 84.3039 276.646 84.9529L274.104 84.5401L270.614 90.4256L272.323 92.1965C272.118 93.1033 272.008 94.0264 271.993 94.9528L269.896 96.2844L271.907 102.729L274.477 102.862C275.019 103.635 275.639 104.357 276.33 105.019L275.899 107.376L282.246 110.612L284.156 109.014C285.134 109.204 286.129 109.306 287.128 109.32L288.564 111.278L295.515 109.413L295.644 107.017C296.475 106.507 297.253 105.927 297.97 105.286L300.512 105.685L304.001 99.813L302.264 98.0287C302.475 97.1539 302.59 96.2618 302.609 95.3656L304.719 94.0341L302.723 87.5095ZM289.282 101.544C287.919 101.908 286.469 101.888 285.117 101.488C283.765 101.088 282.571 100.326 281.686 99.2972C280.801 98.2684 280.264 97.0195 280.144 95.7082C280.024 94.3969 280.326 93.0821 281.012 91.9297C281.697 90.7774 282.736 89.8393 283.996 89.2339C285.256 88.6286 286.681 88.3831 288.092 88.5285C289.502 88.6738 290.835 89.2036 291.921 90.0508C293.007 90.898 293.798 92.0246 294.194 93.2884C294.457 94.1295 294.539 95.0105 294.435 95.881C294.33 96.7514 294.042 97.5943 293.586 98.3612C293.129 99.1281 292.514 99.804 291.776 100.35C291.038 100.896 290.19 101.302 289.282 101.544Z" fill="#F97316"/>
  <path d="M268.776 84.0874L267.197 84.0075C266.872 83.5265 266.492 83.08 266.062 82.676L266.335 81.2246L262.458 79.2405L261.266 80.2259C260.676 80.104 260.075 80.0415 259.471 80.0395L258.552 78.8411L254.244 79.9862L254.158 81.4509C253.639 81.7518 253.157 82.1045 252.722 82.5028L251.156 82.2498L249.017 85.845L250.065 86.9369C249.946 87.4942 249.879 88.06 249.864 88.628L248.586 89.4669L249.807 93.4615L251.386 93.5414C251.725 94.0166 252.109 94.4623 252.535 94.8729L252.262 96.311L256.139 98.295L257.317 97.323C257.918 97.4325 258.528 97.4949 259.141 97.5094L260.045 98.7078L264.353 97.5627L264.439 96.098C264.952 95.7885 265.432 95.4364 265.875 95.046L267.426 95.2857L269.566 91.6905L268.503 90.5987C268.633 90.0472 268.705 89.4853 268.719 88.9209L269.997 88.0687L268.776 84.0874ZM261.352 95.1126C259.987 95.4815 258.534 95.4662 257.179 95.0686C255.823 94.6711 254.625 93.9092 253.737 92.8796C252.848 91.85 252.31 90.5991 252.189 89.2853C252.069 87.9716 252.371 86.6542 253.059 85.5002C253.747 84.3463 254.789 83.4076 256.053 82.8034C257.316 82.1991 258.745 81.9563 260.158 82.1059C261.571 82.2555 262.904 82.7907 263.988 83.6437C265.072 84.4966 265.859 85.6289 266.249 86.897C266.768 88.5884 266.545 90.4018 265.627 91.9412C264.71 93.4805 263.173 94.6206 261.352 95.1126Z" fill="#263238"/>
  <path d="M421.968 57.0037C415.305 55.8452 412.476 59.6668 412.691 65.1261C412.907 70.5855 408.297 78.4416 414.127 79.4935C419.957 80.5455 429.162 58.242 421.968 57.0037Z" fill="#263238"/>
  <path d="M397.427 336.123C417.388 283.261 432.509 214.499 432.509 214.499L377.84 213.674C377.84 213.674 369.425 300.557 364.744 337.455C359.847 375.817 343.104 460.916 343.104 460.916L367.099 467.201C367.099 467.201 394.053 383.859 397.427 336.123Z" fill="#263238"/>
  <path opacity="0.2" d="M407.824 252.688C407.824 252.688 406.23 293.287 404.277 316.776C409.418 301.529 414.085 285.857 418.077 271.503L407.824 252.688Z" fill="black"/>
  <path d="M359.144 483.832L357.091 494.671C357.03 494.939 356.912 495.192 356.742 495.416C356.572 495.64 356.355 495.83 356.104 495.973C355.852 496.116 355.572 496.211 355.28 496.25C354.988 496.289 354.69 496.273 354.405 496.202C350.858 495.27 349.394 494.311 343.233 492.607C336.053 490.596 329.634 489.851 321.191 487.507C316.078 486.082 318.319 480.303 322.627 480.343C331.731 480.437 336.886 477.467 341.639 476.189C343.922 472.7 346.967 459.585 346.967 459.585L366.295 465.989C366.295 465.989 360.652 478.28 359.144 483.832Z" fill="#F97316"/>
  <path d="M343.205 464.165L365.161 470.263C365.606 470.381 366.081 470.346 366.501 470.165C366.92 469.984 367.255 469.669 367.444 469.278L370.69 462.714C370.803 462.496 370.865 462.259 370.871 462.018C370.877 461.777 370.827 461.537 370.725 461.315C370.623 461.093 370.471 460.894 370.279 460.731C370.087 460.568 369.86 460.445 369.613 460.37L345.818 453.379C345.556 453.308 345.28 453.289 345.009 453.323C344.738 453.356 344.477 453.443 344.245 453.576C344.012 453.709 343.812 453.886 343.657 454.095C343.503 454.304 343.398 454.541 343.348 454.791L341.912 462.248C341.834 462.659 341.923 463.082 342.162 463.436C342.401 463.79 342.772 464.05 343.205 464.165Z" fill="#263238"/>
  <path opacity="0.1" d="M343.205 464.165L365.161 470.263C365.606 470.381 366.081 470.346 366.501 470.165C366.92 469.984 367.255 469.669 367.444 469.278L370.69 462.714C370.803 462.496 370.865 462.259 370.871 462.018C370.877 461.777 370.827 461.537 370.725 461.315C370.623 461.093 370.471 460.894 370.279 460.731C370.087 460.568 369.86 460.445 369.613 460.37L345.818 453.379C345.556 453.308 345.28 453.289 345.009 453.323C344.738 453.356 344.477 453.443 344.245 453.576C344.012 453.709 343.812 453.886 343.657 454.095C343.503 454.304 343.398 454.541 343.348 454.791L341.912 462.248C341.834 462.659 341.923 463.082 342.162 463.436C342.401 463.79 342.772 464.05 343.205 464.165Z" fill="white"/>
  <path d="M458.429 492.461L456.189 483.14C455.499 477.467 455.959 464.325 455.959 464.325L436.659 464.778C436.659 464.778 438.095 476.762 438.023 480.983C434.318 483.393 430.599 486.761 422.572 488.972C418.795 489.997 419.154 496.069 424.152 496.149C432.437 496.282 438.31 495.39 445.376 495.51C451.407 495.603 452.11 496.149 455.571 496.149C456.049 496.146 456.519 496.038 456.943 495.835C457.367 495.632 457.733 495.338 458.012 494.979C458.29 494.619 458.473 494.204 458.546 493.766C458.618 493.328 458.578 492.881 458.429 492.461Z" fill="#F97316"/>
  <path d="M451.665 332.954C450 278.267 456.62 246.803 447.932 214.766L398.203 214.073C398.203 214.073 411.515 300.837 418.049 336.975C424.582 373.114 433.845 464.365 433.845 464.365L458.257 464.644C458.257 464.644 461.086 375.271 451.665 332.954Z" fill="#263238"/>
  <path d="M434.39 468.426L457.481 468.759C457.977 468.779 458.464 468.624 458.842 468.325C459.22 468.026 459.463 467.606 459.52 467.148L460.31 460.064C460.34 459.835 460.318 459.604 460.246 459.383C460.174 459.163 460.052 458.959 459.89 458.785C459.728 458.61 459.528 458.47 459.304 458.371C459.079 458.273 458.835 458.219 458.587 458.213L433.442 457.494C433.159 457.488 432.877 457.538 432.617 457.643C432.357 457.748 432.124 457.904 431.936 458.1C431.747 458.297 431.607 458.529 431.525 458.781C431.443 459.032 431.421 459.298 431.461 459.558L432.71 467.015C432.77 467.394 432.97 467.743 433.276 468C433.583 468.258 433.977 468.408 434.39 468.426Z" fill="#263238"/>
  <path opacity="0.1" d="M434.39 468.426L457.481 468.759C457.977 468.779 458.464 468.624 458.842 468.325C459.22 468.026 459.463 467.606 459.52 467.148L460.31 460.064C460.34 459.835 460.318 459.604 460.246 459.383C460.174 459.163 460.052 458.959 459.89 458.785C459.728 458.61 459.528 458.47 459.304 458.371C459.079 458.273 458.835 458.219 458.587 458.213L433.442 457.494C433.159 457.488 432.877 457.538 432.617 457.643C432.357 457.748 432.124 457.904 431.936 458.1C431.747 458.297 431.607 458.529 431.525 458.781C431.443 459.032 431.421 459.298 431.461 459.558L432.71 467.015C432.77 467.394 432.97 467.743 433.276 468C433.583 468.258 433.977 468.408 434.39 468.426Z" fill="white"/>
  <path d="M395.073 113.821H394.9L371.608 112.183C365.06 111.686 358.546 111.109 352.064 110.452C351.249 109.118 350.52 107.739 349.882 106.324C348.584 103.419 347.504 100.433 346.651 97.3896C345.746 94.2604 344.999 91.0114 344.367 87.7225C343.736 84.4336 343.204 81.0648 342.759 77.8025V77.5362C342.605 76.4502 342.038 75.4508 341.16 74.7173C340.283 73.9838 339.152 73.5642 337.972 73.5337C336.791 73.5033 335.637 73.864 334.717 74.5511C333.797 75.2382 333.171 76.2068 332.951 77.2832C332.261 80.976 331.848 84.7089 331.716 88.4549C331.543 92.2113 331.634 95.9743 331.989 99.7198C332.361 103.614 333.091 107.472 334.172 111.251C335.34 115.344 337.118 119.265 339.456 122.902C340.033 123.779 340.797 124.539 341.7 125.134C342.604 125.729 343.629 126.148 344.712 126.364L345.416 126.497C349.437 127.296 353.472 128.068 357.507 128.668C361.542 129.267 365.577 129.879 369.627 130.359C373.676 130.838 377.726 131.238 381.79 131.57C385.854 131.903 389.86 132.143 394.096 132.25C396.663 132.27 399.139 131.369 401.006 129.737C402.874 128.104 403.989 125.866 404.119 123.489C404.249 121.112 403.383 118.78 401.703 116.981C400.022 115.182 397.657 114.055 395.101 113.834L395.073 113.821Z" fill="#FF8B7B"/>
  <path d="M409.72 115.086C397.133 112.871 384.401 111.439 371.609 110.798C369.121 120.248 369.314 130.134 372.169 139.493C372.169 139.493 377.841 142.156 393.938 140.319C411.931 138.162 424.87 117.949 409.72 115.086Z" fill="#F97316"/>
  <path d="M451.68 120.026C438.195 117.06 424.42 115.378 410.567 115.006C395.575 114.726 383.843 121.597 380.985 135.259C375.359 162.607 373.798 190.54 376.347 218.281C376.462 223.221 444.011 222.795 449.583 218.281C452.01 200.638 449.339 181.73 461.818 142.236C464.374 134.114 460.468 121.97 451.68 120.026Z" fill="#F97316"/>
  <path d="M411.242 133.727C410.955 134.873 410.194 135.685 409.533 135.538C408.873 135.392 408.586 134.353 408.873 133.208C409.16 132.063 409.921 131.251 410.582 131.397C411.242 131.544 411.529 132.636 411.242 133.727Z" fill="white"/>
  <path d="M527.241 101.184C527.703 97.2364 527.861 93.2627 527.715 89.2937C527.663 88.135 527.167 87.0314 526.317 86.1811C525.466 85.3309 524.317 84.7898 523.074 84.655C521.832 84.5203 520.579 84.8007 519.54 85.4459C518.5 86.0912 517.743 87.0589 517.404 88.1752L517.318 88.4549C516.327 91.7305 515.236 95.2857 514.015 98.6146C512.795 101.943 511.502 105.272 510.023 108.415C508.633 111.488 507.016 114.469 505.184 117.336C504.278 118.72 503.285 120.054 502.212 121.331C495.319 121.109 488.397 120.794 481.447 120.385L456.776 118.814H456.647C453.867 118.576 451.099 119.371 448.951 121.026C446.803 122.68 445.452 125.058 445.195 127.636C444.938 130.214 445.796 132.781 447.58 134.772C449.364 136.764 451.928 138.016 454.709 138.255C459.16 138.747 463.325 139.04 467.704 139.293C472.084 139.546 476.32 139.68 480.628 139.733C484.936 139.786 489.244 139.733 493.552 139.733C497.86 139.733 502.24 139.427 506.591 139.16H507.367C508.536 139.086 509.676 138.791 510.718 138.295C511.76 137.798 512.682 137.109 513.427 136.271C516.472 132.793 518.972 128.933 520.851 124.806C522.613 121.007 524.016 117.073 525.044 113.049C526.058 109.143 526.792 105.18 527.241 101.184Z" fill="#FF8B7B"/>
  <path d="M441.109 117.949C454.657 117.406 468.229 117.704 481.733 118.841C482.799 129.092 480.978 139.424 476.449 148.827C476.449 148.827 470.059 150.838 453.473 146.617C434.992 141.89 424.753 118.867 441.109 117.949Z" fill="#F97316"/>
  <path d="M525.174 95.1126L536.432 87.4296L523.365 77.6027C523.365 77.6027 514.088 85.7918 517.807 91.118L525.174 95.1126Z" fill="#FF8B7B"/>
  <path d="M538.887 73.8078L533.703 71.1447C532.703 70.625 531.533 70.4613 530.412 70.6844C529.291 70.9075 528.297 71.502 527.615 72.3564L523.307 77.5761L536.374 87.4029L540.682 80.1593C541.344 79.0944 541.526 77.8308 541.19 76.642C540.854 75.4533 540.027 74.4351 538.887 73.8078Z" fill="#FF8B7B"/>
  <path d="M540.067 151.104C539.594 149.967 538.656 149.048 537.456 148.55C536.257 148.051 534.893 148.012 533.662 148.441H533.49C530.101 149.626 526.525 150.891 523.05 152.023C519.575 153.155 516.057 154.287 512.568 155.272C509.078 156.257 505.603 157.123 502.185 157.935C500.247 158.335 498.322 158.667 496.441 158.92C491.655 154.81 486.868 150.612 482.081 146.324L465.467 131.064L465.366 130.971C463.504 129.336 461.034 128.43 458.469 128.442C455.904 128.455 453.444 129.385 451.601 131.039C449.758 132.693 448.675 134.943 448.578 137.319C448.48 139.696 449.376 142.015 451.078 143.794C453.95 146.684 456.822 149.307 459.694 151.956C462.566 154.606 465.596 157.163 468.669 159.666C471.742 162.169 474.815 164.633 477.989 167.03C481.162 169.426 484.422 171.77 487.71 174.06L488.342 174.513C489.224 175.116 490.229 175.544 491.296 175.773C492.362 176.002 493.468 176.027 494.546 175.844C498.775 175.11 502.931 174.045 506.967 172.662C510.796 171.338 514.545 169.823 518.197 168.121C521.787 166.435 525.267 164.615 528.636 162.662C532.039 160.721 535.332 158.619 538.502 156.364C539.331 155.755 539.93 154.917 540.211 153.971C540.492 153.026 540.442 152.022 540.067 151.104Z" fill="#FF8B7B"/>
  <path d="M455.946 121.584C466.009 128.932 475.531 136.894 484.45 145.418C478.404 153.365 470.241 159.723 460.756 163.874C460.756 163.874 454.84 161.663 445.793 149.227C435.669 135.232 443.61 112.902 455.946 121.584Z" fill="#F97316"/>
  <path d="M537.954 156.644L550.49 152.649L541.185 140.665C541.185 140.665 530.544 145.991 532.569 151.783L537.954 156.644Z" fill="#FF8B7B"/>
  <path d="M556.034 140.958L552.027 137.309C551.257 136.608 550.236 136.191 549.158 136.137C548.079 136.083 547.016 136.396 546.169 137.017L540.898 140.811L550.448 152.609L556.063 147.15C556.933 146.32 557.418 145.206 557.412 144.048C557.407 142.891 556.912 141.781 556.034 140.958Z" fill="#FF8B7B"/>
  <path d="M413.568 126.604C415.583 128.849 416.694 131.673 416.713 134.593C430.054 132.476 441.125 126.337 442.561 118.135C440.307 116.164 438.813 116.511 438.813 116.511C438.813 116.511 429.637 123.847 413.568 126.604Z" fill="white"/>
  <path d="M413.567 126.604C409.973 127.179 406.694 128.864 404.262 131.384C399.136 126.764 405.813 116.857 409.906 114.993C411.696 114.514 413.575 114.392 415.42 114.633C415.42 114.633 409.748 117.443 413.567 126.604Z" fill="white"/>
  <path d="M441.138 87.7093C438.568 95.2725 435.322 108.508 438.596 116.111C438.993 117.027 439.046 118.04 438.746 118.987C438.447 119.933 437.812 120.759 436.945 121.331C430.896 125.592 423.363 127.631 415.793 127.057C407.263 126.404 406.731 122.303 408.44 118.828C408.893 117.951 409.55 117.18 410.365 116.569C411.18 115.959 412.132 115.525 413.15 115.299C421.766 113.342 422.154 106.604 421.206 100.106L441.138 87.7093Z" fill="#FF8B7B"/>
  <path opacity="0.2" d="M433.01 92.769L421.221 100.106C421.479 101.75 421.59 103.411 421.551 105.073C425.672 104.979 431.761 101.451 432.666 97.5626C433.096 95.9977 433.212 94.373 433.01 92.769Z" fill="black"/>
  <path d="M448.65 76.4709C444.557 88.0155 442.791 94.9529 434.735 99.5334C422.615 106.431 408.6 97.5893 408.887 85.2325C409.174 74.1008 415.809 57.1102 429.451 55.2061C432.429 54.7525 435.484 55.0263 438.314 56.0006C441.144 56.9749 443.652 58.616 445.589 60.7622C447.527 62.9085 448.829 65.4859 449.365 68.2404C449.902 70.9949 449.655 73.8316 448.65 76.4709Z" fill="#FF8B7B"/>
  <path d="M413.568 78.7612C412.996 78.7583 412.428 78.6683 411.888 78.4949C410.949 78.1397 410.119 77.5745 409.472 76.8496C408.826 76.1247 408.383 75.2627 408.183 74.3405C407.654 72.0896 407.813 69.7465 408.643 67.5751C409.472 65.4037 410.939 63.4902 412.879 62.0502C413.636 61.4103 414.566 60.9728 415.57 60.7847C416.574 60.5965 417.614 60.6646 418.58 60.9817C419.545 61.2988 420.4 61.8531 421.052 62.5853C421.705 63.3176 422.131 64.2004 422.285 65.1394C422.863 67.3906 422.703 69.7508 421.825 71.917C420.317 76.0049 416.871 78.7612 413.568 78.7612ZM416.871 61.3712C415.572 61.4083 414.32 61.8281 413.295 62.5696C411.461 63.9282 410.073 65.7357 409.289 67.7877C408.505 69.8396 408.355 72.0541 408.858 74.1807C409.028 74.9998 409.415 75.767 409.984 76.4131C410.553 77.0593 411.286 77.5642 412.118 77.8824C415.392 78.9609 419.456 76.1913 421.179 71.6907C422.002 69.6519 422.157 67.4328 421.624 65.3126C421.449 64.4918 421.058 63.7236 420.487 63.0757C419.916 62.4279 419.182 61.9202 418.35 61.5975C417.893 61.4485 417.412 61.372 416.928 61.3712H416.871Z" fill="#263238"/>
  <path d="M428.26 83.568C427.687 83.5727 427.118 83.4825 426.58 83.3017C422.946 82.1033 421.482 77.2032 423.334 72.383C424.118 70.1894 425.594 68.2643 427.57 66.857C428.338 66.2432 429.266 65.8284 430.262 65.6549C431.258 65.4814 432.286 65.5552 433.241 65.8689C434.196 66.1826 435.045 66.725 435.701 67.4411C436.357 68.1572 436.797 69.0215 436.976 69.9462C437.555 72.1974 437.395 74.5576 436.517 76.7238C434.951 80.825 431.491 83.568 428.26 83.568ZM431.562 66.1779C430.261 66.2231 429.006 66.6418 427.972 67.3763C426.113 68.7109 424.724 70.5277 423.98 72.596C422.272 77.0833 423.535 81.6239 426.852 82.7025C430.17 83.781 434.19 80.9981 435.914 76.5108C436.739 74.4674 436.889 72.2421 436.344 70.1193C436.172 69.2995 435.784 68.5317 435.215 67.8838C434.647 67.2359 433.915 66.7278 433.085 66.4043C432.594 66.2516 432.08 66.1751 431.562 66.1779Z" fill="#263238"/>
  <path d="M423.621 72.8091C423.523 72.8051 423.431 72.767 423.362 72.7026C423.166 72.4618 422.899 72.2785 422.594 72.1746C422.288 72.0707 421.957 72.0506 421.639 72.1167C421.552 72.1381 421.459 72.1281 421.379 72.0886C421.299 72.0491 421.238 71.983 421.208 71.9037C421.18 71.8224 421.187 71.7342 421.227 71.6574C421.267 71.5806 421.338 71.521 421.424 71.4909C421.873 71.3916 422.344 71.4127 422.782 71.5518C423.219 71.6908 423.605 71.9422 423.894 72.2765C423.955 72.3381 423.989 72.4189 423.989 72.5029C423.989 72.5868 423.955 72.6677 423.894 72.7292C423.858 72.7607 423.814 72.7842 423.767 72.798C423.72 72.8118 423.67 72.8156 423.621 72.8091Z" fill="#263238"/>
  <path d="M446.182 83.0087C446.116 83.0273 446.046 83.0273 445.981 83.0087C438.686 78.1219 435.929 77.5494 435.929 77.5494C435.837 77.5335 435.756 77.4846 435.704 77.4134C435.651 77.3422 435.631 77.2546 435.649 77.1699C435.666 77.0851 435.718 77.0102 435.795 76.9615C435.872 76.9128 435.966 76.8943 436.058 76.9102C436.173 76.9102 438.93 77.4695 446.411 82.4894C446.486 82.5401 446.536 82.6155 446.552 82.6998C446.568 82.7841 446.549 82.8709 446.498 82.9422C446.454 82.9745 446.403 82.9973 446.348 83.0089C446.293 83.0204 446.236 83.0204 446.182 83.0087Z" fill="#263238"/>
  <path d="M440.336 86.2578C435.454 82.0368 440.164 77.3231 443.208 75.6054C446.554 73.688 441.514 71.4643 445.621 66.8039C428.963 67.1767 432.524 60.0263 423.736 60.8651C418.94 61.3179 414.144 57.3898 414.747 51.1182C415.881 39.2674 434.162 36.591 437.062 41.0384C430.184 42.1702 431.634 46.0849 434.65 46.3646C442.49 46.9638 440.983 50.6655 445.147 54.1408C451.063 59.0676 458.344 54.8066 457.425 65.0995C469.056 67.7626 462.609 79.7465 455.228 82.9422C450.473 84.7382 445.452 85.856 440.336 86.2578Z" fill="#263238"/>
  <path d="M453.418 64.8996C454.587 64.9133 455.746 64.6949 456.816 64.2593C457.887 63.8236 458.845 63.1806 459.625 62.3735C460.406 61.5665 460.991 60.6139 461.342 59.5798C461.694 58.5457 461.802 57.4539 461.661 56.3777C466.026 63.9676 460.727 66.351 453.418 64.8996Z" fill="#263238"/>
  <path d="M449.928 88.9475C447.737 91.0344 444.791 92.296 441.656 92.4894C437.736 92.6226 437.262 88.9475 439.603 85.8317C441.714 82.9822 446.309 79.4802 449.655 80.8517C453.001 82.2232 452.771 86.2977 449.928 88.9475Z" fill="#FF8B7B"/>
  <path d="M449.568 90.399C447.673 92.1434 444.93 92.4629 443.465 91.0914C442.001 89.7199 442.36 87.2033 444.269 85.4457C446.179 83.688 448.908 83.3684 450.372 84.7399C451.837 86.1114 451.478 88.6414 449.568 90.399Z" fill="#263238"/>
  <path d="M420.304 94.6067C419.921 94.346 419.624 93.9908 419.447 93.5815C419.271 93.1722 419.222 92.7251 419.305 92.2911C419.389 91.8572 419.602 91.4536 419.921 91.1264C420.24 90.7992 420.651 90.5615 421.108 90.4402C421.565 90.3188 422.05 90.3188 422.507 90.4401C422.964 90.5614 423.375 90.7992 423.694 91.1264C424.012 91.4535 424.226 91.857 424.309 92.291C424.393 92.725 424.344 93.172 424.167 93.5814C423.796 94.1867 423.183 94.633 422.461 94.8247C421.739 95.0163 420.965 94.9381 420.304 94.6067Z" fill="#263238"/>
  <path d="M429.09 93.8476C426.619 93.8666 424.152 93.6299 421.738 93.1419C421.643 93.1217 421.554 93.0846 421.475 93.0326C421.397 92.9806 421.33 92.9146 421.278 92.8386C421.227 92.7625 421.192 92.6779 421.176 92.5894C421.16 92.5009 421.163 92.4104 421.185 92.323C421.206 92.2355 421.246 92.1529 421.303 92.0798C421.359 92.0068 421.43 91.9446 421.512 91.897C421.594 91.8494 421.685 91.8173 421.781 91.8024C421.876 91.7875 421.974 91.7902 422.068 91.8103C429.119 93.3682 440.521 92.3296 444.642 88.6679C444.709 88.6055 444.788 88.5559 444.875 88.5221C444.963 88.4883 445.057 88.4709 445.152 88.4709C445.246 88.4709 445.34 88.4883 445.428 88.5221C445.515 88.5559 445.595 88.6055 445.661 88.6679C445.728 88.7286 445.781 88.8011 445.818 88.8811C445.854 88.9612 445.873 89.0471 445.873 89.1339C445.873 89.2207 445.854 89.3066 445.818 89.3867C445.781 89.4667 445.728 89.5392 445.661 89.5999C442.488 92.4495 435.523 93.8476 429.09 93.8476Z" fill="#263238"/>
  <path d="M428.791 75.1393C428.446 76.0714 427.642 76.6706 426.982 76.4709C426.321 76.2711 426.077 75.3657 426.422 74.4336C426.766 73.5015 427.585 72.9023 428.231 73.102C428.877 73.3018 429.136 74.1407 428.791 75.1393Z" fill="#263238"/>
  <path d="M416.439 71.1447C416.095 72.0768 415.291 72.676 414.63 72.4763C413.969 72.2765 413.725 71.3711 414.07 70.439C414.415 69.5069 415.233 68.9077 415.879 69.1074C416.526 69.3072 416.841 70.2126 416.439 71.1447Z" fill="#263238"/>
  <path d="M420.963 74.2471C417.861 75.7408 414.855 77.3991 411.959 79.2138C412.677 81.4641 416.454 82.2631 416.454 82.2631L420.963 74.2471Z" fill="#FF5652"/>
  <path d="M417.877 86.4175C419.011 86.7564 420.208 86.8792 421.395 86.7785C422.582 86.6779 423.735 86.3558 424.784 85.8317C424.856 85.7927 424.909 85.7288 424.93 85.6539C424.952 85.5791 424.941 85.4993 424.899 85.4322C424.855 85.3675 424.785 85.3214 424.704 85.304C424.624 85.2866 424.539 85.2991 424.468 85.339C423.301 85.9057 422.006 86.2094 420.689 86.2256C419.372 86.2418 418.069 85.97 416.886 85.4322C416.812 85.3998 416.726 85.3955 416.649 85.4204C416.571 85.4452 416.507 85.4973 416.47 85.5654C416.45 85.5984 416.437 85.6348 416.433 85.6724C416.429 85.71 416.433 85.748 416.445 85.784C416.457 85.8201 416.477 85.8536 416.503 85.8824C416.53 85.9111 416.562 85.9347 416.599 85.9515C417.014 86.131 417.441 86.2866 417.877 86.4175Z" fill="#263238"/>
  <path d="M434.82 73.475C434.923 73.5016 435.032 73.5016 435.135 73.475C435.214 73.4523 435.288 73.4153 435.351 73.3659C435.414 73.3166 435.466 73.2559 435.504 73.1876C435.541 73.1193 435.563 73.0448 435.569 72.9683C435.575 72.8919 435.564 72.8151 435.538 72.7426C435.254 71.8757 434.746 71.0864 434.057 70.4435C433.369 69.8006 432.521 69.3236 431.589 69.0542C431.425 69.0176 431.252 69.0416 431.107 69.1212C430.963 69.2008 430.857 69.3296 430.813 69.4803C430.774 69.6268 430.799 69.7818 430.882 69.9115C430.965 70.0411 431.101 70.135 431.258 70.1727C431.995 70.3956 432.662 70.781 433.202 71.296C433.743 71.8109 434.14 72.4399 434.36 73.1287C434.399 73.2175 434.462 73.2958 434.542 73.3563C434.622 73.4167 434.718 73.4576 434.82 73.475Z" fill="#263238"/>
  <path d="M414.114 65.9782C414.204 66.0237 414.305 66.0475 414.408 66.0475C414.511 66.0475 414.612 66.0237 414.703 65.9782C415.38 65.6141 416.14 65.4049 416.922 65.3678C417.704 65.3308 418.484 65.467 419.197 65.7652C419.344 65.8362 419.515 65.8509 419.674 65.806C419.832 65.7612 419.965 65.6605 420.044 65.5255C420.087 65.4615 420.115 65.3901 420.127 65.3156C420.138 65.2412 420.133 65.1653 420.112 65.0928C420.09 65.0203 420.052 64.9527 420.001 64.8942C419.95 64.8358 419.887 64.7878 419.815 64.7532C418.911 64.3519 417.915 64.1615 416.914 64.1986C415.913 64.2357 414.937 64.4993 414.071 64.9662C413.972 65.0149 413.889 65.0878 413.831 65.1769C413.773 65.2661 413.742 65.3682 413.742 65.4722C413.742 65.5763 413.773 65.6784 413.831 65.7675C413.889 65.8567 413.972 65.9295 414.071 65.9782H414.114Z" fill="#263238"/>
  <path d="M335.276 81.7973L325.324 73.808L338.449 65.5124C338.449 65.5124 346.52 73.8479 342.556 78.6947L335.276 81.7973Z" fill="#FF8B7B"/>
  <path d="M324.162 60.7986L329.26 58.6148C330.245 58.2006 331.358 58.1316 332.393 58.4205C333.428 58.7095 334.315 59.3368 334.889 60.1861L338.45 65.419L325.325 73.7146L321.865 66.6041C321.345 65.551 321.295 64.3503 321.726 63.2631C322.156 62.176 323.032 61.2903 324.162 60.7986Z" fill="#FF8B7B"/>
  <path d="M393.592 137.056C393.055 135.981 392.294 135.015 391.353 134.213C390.411 133.412 389.308 132.791 388.107 132.386C386.906 131.982 385.63 131.801 384.354 131.855C383.077 131.91 381.825 132.197 380.668 132.702L380.223 132.889L378.041 133.834L375.671 134.833C374.063 135.472 372.44 136.164 370.803 136.737C367.543 138.068 364.226 139.12 360.895 140.199C357.563 141.277 354.189 142.223 350.843 143.062C347.885 143.807 344.912 144.393 341.925 144.926C339.34 144.313 336.612 143.501 333.883 142.582C330.451 141.424 326.962 140.079 323.487 138.668C320.012 137.256 316.508 135.765 313.018 134.247L302.55 129.626H302.449C301.398 129.169 300.204 129.077 299.085 129.366C297.966 129.655 296.996 130.307 296.351 131.203C295.707 132.099 295.43 133.18 295.571 134.249C295.713 135.318 296.263 136.305 297.122 137.03C300.195 139.6 303.325 141.89 306.556 144.167C309.787 146.444 313.119 148.574 316.608 150.625C320.081 152.718 323.666 154.647 327.35 156.404C331.248 158.295 335.312 159.876 339.498 161.131C340.345 161.363 341.231 161.449 342.112 161.384H342.715C346.806 161.112 350.876 160.623 354.907 159.919C356.931 159.6 358.884 159.16 360.88 158.761C362.876 158.361 364.801 157.842 366.739 157.296C370.631 156.271 374.436 155.046 378.227 153.674C380.094 152.982 381.975 152.343 383.813 151.477C384.732 151.078 385.666 150.691 386.585 150.265C387.504 149.839 388.365 149.426 389.457 148.854C391.646 147.755 393.296 145.917 394.066 143.721C394.836 141.525 394.666 139.139 393.592 137.056Z" fill="#FF8B7B"/>
  <path d="M392.618 125.738C380.817 129.555 369.304 134.097 358.154 139.333C361.02 148.43 366.372 156.687 373.692 163.301C373.692 163.301 379.91 163.008 392.532 154.167C406.662 144.38 406.978 121.397 392.618 125.738Z" fill="#F97316"/>
  <path d="M299.909 138.241L287.086 137.096L292.414 123.594C292.414 123.594 303.902 125.965 303.744 131.903L299.909 138.241Z" fill="#FF8B7B"/>
  <path d="M278.239 127.456L280.953 123.049C281.473 122.194 282.313 121.547 283.314 121.23C284.315 120.914 285.407 120.949 286.382 121.331L292.413 123.594L287.085 137.096L280.02 133.275C278.957 132.718 278.174 131.794 277.84 130.705C277.507 129.615 277.65 128.448 278.239 127.456Z" fill="#FF8B7B"/>
  <path d="M587.179 250.238H130.818C129.836 250.238 128.893 249.876 128.198 249.232C127.504 248.588 127.113 247.714 127.113 246.803C127.111 246.35 127.206 245.902 127.391 245.484C127.577 245.066 127.849 244.685 128.193 244.365C128.538 244.044 128.947 243.79 129.397 243.617C129.848 243.443 130.33 243.354 130.818 243.354H587.179C587.667 243.354 588.15 243.443 588.6 243.617C589.051 243.79 589.46 244.044 589.804 244.365C590.148 244.685 590.421 245.066 590.606 245.484C590.791 245.902 590.886 246.35 590.884 246.803C590.884 247.714 590.494 248.588 589.799 249.232C589.104 249.876 588.162 250.238 587.179 250.238Z" fill="#F97316"/>
  <path d="M507.955 217.842H489.962C488.915 217.842 488.066 218.628 488.066 219.599V241.61C488.066 242.58 488.915 243.367 489.962 243.367H507.955C509.002 243.367 509.851 242.58 509.851 241.61V219.599C509.851 218.628 509.002 217.842 507.955 217.842Z" fill="#F97316"/>
  <path d="M509.851 239.759C507.896 239.761 505.985 239.226 504.358 238.221C502.732 237.216 501.463 235.786 500.713 234.113C499.963 232.439 499.766 230.597 500.145 228.819C500.525 227.041 501.465 225.407 502.846 224.125C504.227 222.842 505.987 221.968 507.904 221.614C509.821 221.259 511.808 221.44 513.614 222.133C515.42 222.826 516.964 224 518.05 225.507C519.137 227.013 519.716 228.785 519.716 230.598C519.713 233.024 518.672 235.35 516.824 237.067C514.975 238.784 512.468 239.752 509.851 239.759ZM509.851 224.113C508.464 224.11 507.107 224.49 505.952 225.203C504.798 225.916 503.897 226.93 503.365 228.118C502.833 229.306 502.693 230.614 502.963 231.875C503.233 233.137 503.901 234.296 504.882 235.206C505.862 236.115 507.112 236.734 508.473 236.985C509.834 237.235 511.244 237.105 512.525 236.612C513.806 236.118 514.9 235.283 515.669 234.213C516.438 233.142 516.847 231.884 516.844 230.598C516.841 228.879 516.103 227.232 514.792 226.016C513.481 224.801 511.705 224.117 509.851 224.113Z" fill="#F97316"/>
  <path opacity="0.3" d="M587.18 250.238H460.338C459.354 250.238 458.411 249.876 457.714 249.233C457.016 248.589 456.623 247.715 456.619 246.803C456.619 245.888 457.011 245.011 457.708 244.364C458.406 243.717 459.352 243.354 460.338 243.354H587.18C587.668 243.354 588.151 243.443 588.601 243.617C589.052 243.79 589.461 244.044 589.805 244.365C590.149 244.685 590.422 245.065 590.607 245.484C590.793 245.902 590.887 246.35 590.885 246.803C590.885 247.714 590.495 248.588 589.8 249.232C589.105 249.876 588.163 250.238 587.18 250.238Z" fill="black"/>
  <path d="M530.759 250.238H516.758V354.099H530.759V250.238Z" fill="#263238"/>
  <path d="M544.916 250.238H571.626V252.715C571.626 253.471 571.302 254.195 570.726 254.73C570.149 255.264 569.368 255.564 568.553 255.564H547.989C547.174 255.564 546.392 255.264 545.816 254.73C545.24 254.195 544.916 253.471 544.916 252.715V250.238Z" fill="#263238"/>
  <path d="M534.219 328.36H513.297V432.221H534.219V328.36Z" fill="#263238"/>
  <path d="M537.738 392.368H509.779V496.228H537.738V392.368Z" fill="#263238"/>
  <path d="M553.991 496.229H493.521C493.521 494.693 494.18 493.219 495.351 492.133C496.523 491.047 498.111 490.437 499.768 490.437H547.745C549.402 490.437 550.99 491.047 552.162 492.133C553.333 493.219 553.991 494.693 553.991 496.229Z" fill="#263238"/>
  <path d="M201.239 250.238H187.238V354.099H201.239V250.238Z" fill="#263238"/>
  <path d="M204.7 328.36H183.777V432.221H204.7V328.36Z" fill="#263238"/>
  <path d="M208.219 392.368H180.26V496.229H208.219V392.368Z" fill="#263238"/>
  <path d="M224.474 496.229H164.004C164.004 494.692 164.662 493.219 165.833 492.133C167.005 491.047 168.594 490.436 170.251 490.436H218.27C219.927 490.436 221.516 491.047 222.687 492.133C223.859 493.219 224.517 494.692 224.517 496.229H224.474Z" fill="#263238"/>
  <path d="M368.001 239.213H195.997C195.406 239.216 194.84 239.437 194.423 239.826C194.006 240.215 193.771 240.741 193.771 241.29C193.775 241.836 194.011 242.359 194.428 242.746C194.844 243.132 195.408 243.35 195.997 243.354H368.001C368.593 243.354 369.161 243.137 369.58 242.75C370 242.364 370.238 241.839 370.242 241.29C370.242 240.739 370.005 240.211 369.585 239.821C369.165 239.432 368.595 239.213 368.001 239.213Z" fill="#F97316"/>
  <path opacity="0.3" d="M368.001 239.213H195.997C195.406 239.216 194.84 239.437 194.423 239.826C194.006 240.215 193.771 240.741 193.771 241.29C193.775 241.836 194.011 242.359 194.428 242.746C194.844 243.132 195.408 243.35 195.997 243.354H368.001C368.593 243.354 369.161 243.137 369.58 242.75C370 242.364 370.238 241.839 370.242 241.29C370.242 240.739 370.005 240.211 369.585 239.821C369.165 239.432 368.595 239.213 368.001 239.213Z" fill="black"/>
  <path d="M307.949 164.846H185.889C185.086 164.828 184.288 164.976 183.554 165.28C182.821 165.583 182.169 166.034 181.646 166.6C181.124 167.166 180.744 167.833 180.534 168.552C180.324 169.271 180.289 170.025 180.432 170.758L190.484 235.378C190.778 236.992 191.665 238.463 192.994 239.54C194.324 240.618 196.014 241.236 197.779 241.29H319.839C320.642 241.308 321.44 241.16 322.174 240.856C322.907 240.553 323.559 240.102 324.082 239.536C324.604 238.97 324.984 238.303 325.194 237.584C325.404 236.865 325.439 236.111 325.296 235.378L315.244 170.758C314.95 169.143 314.063 167.673 312.734 166.595C311.404 165.518 309.714 164.9 307.949 164.846Z" fill="#F97316"/>
  <path opacity="0.2" d="M270.082 173.767C270.651 172.867 270.953 171.843 270.959 170.8C270.964 169.756 270.672 168.73 270.113 167.825C269.553 166.919 268.746 166.167 267.772 165.644C266.798 165.121 265.693 164.846 264.567 164.846H185.889C185.086 164.828 184.288 164.976 183.554 165.28C182.821 165.583 182.169 166.034 181.646 166.6C181.124 167.166 180.744 167.833 180.534 168.552C180.324 169.271 180.289 170.025 180.432 170.758L190.484 235.378C190.778 236.992 191.665 238.463 192.994 239.54C194.324 240.618 196.014 241.236 197.779 241.29H220.468C222.603 241.289 224.701 240.77 226.552 239.784C228.404 238.798 229.945 237.38 231.022 235.671L270.082 173.767Z" fill="white"/>
</svg>
