<?xml version="1.0" standalone="no"?>
<!DOCTYPE svg PUBLIC "-//W3C//DTD SVG 20010904//EN"
 "http://www.w3.org/TR/2001/REC-SVG-20010904/DTD/svg10.dtd">
<svg version="1.0" xmlns="http://www.w3.org/2000/svg"
 width="512.000000pt" height="512.000000pt" viewBox="0 0 512.000000 512.000000"
 preserveAspectRatio="xMidYMid meet">

<g transform="translate(0.000000,512.000000) scale(0.100000,-0.100000)"
fill="#000000" stroke="none">
<path d="M2460 4869 c-73 -12 -201 -77 -270 -136 -189 -163 -1179 -1040 -1198
-1060 -32 -34 -30 -85 4 -112 l27 -21 1926 0 c1893 0 1927 0 1958 -20 62 -37
63 -45 63 -405 l0 -325 -2410 0 -2410 0 0 329 c0 448 -22 421 326 421 219 0
233 1 258 21 33 26 36 79 6 109 -19 19 -33 20 -272 20 -244 0 -255 -1 -303
-24 -27 -12 -69 -43 -91 -68 -80 -87 -75 40 -72 -1648 l3 -1505 30 -55 c17
-30 49 -69 73 -87 89 -67 -59 -63 2109 -63 2164 0 2014 -5 2028 61 5 23 2 38
-13 58 l-19 26 -1989 5 c-1898 5 -1990 6 -2016 23 -61 42 -58 -18 -58 1156 l0
1071 2410 0 2410 0 0 -1071 c0 -1206 5 -1124 -74 -1160 -35 -16 -67 -19 -222
-19 -176 0 -181 -1 -202 -23 -29 -31 -28 -72 3 -103 l26 -25 202 3 c187 3 206
5 255 27 57 26 99 68 134 134 l23 42 3 1505 c3 1688 8 1561 -72 1648 -22 25
-63 56 -91 68 -50 24 -52 24 -447 24 l-397 0 -353 312 c-194 172 -454 402
-578 512 -284 251 -310 272 -395 312 -103 49 -204 62 -325 43z m170 -168 c14
-10 31 -36 39 -58 13 -36 12 -43 -5 -79 -13 -26 -32 -45 -58 -58 -36 -17 -43
-18 -79 -5 -52 18 -82 58 -82 109 0 95 105 146 185 91z m-306 -219 c38 -73
152 -142 236 -142 56 0 132 31 177 73 52 48 69 77 86 151 l12 54 522 -462 522
-461 -660 -3 c-362 -1 -956 -1 -1318 0 l-659 3 521 461 522 462 12 -54 c7 -30
19 -67 27 -82z"/>
<path d="M291 3394 c-20 -25 -21 -39 -21 -234 0 -203 0 -207 23 -228 l23 -22
2245 0 2246 0 21 23 c21 22 22 31 22 233 0 207 0 211 -23 232 l-23 22 -2246 0
-2247 0 -20 -26z m469 -136 c0 -7 -13 -53 -29 -103 l-29 -90 -141 -3 -141 -3
0 106 0 105 170 0 c129 0 170 -3 170 -12z m480 0 c0 -7 -13 -53 -29 -103 l-28
-90 -161 -3 -160 -2 28 91 c16 50 31 97 34 105 7 19 316 21 316 2z m525 -5
c-3 -10 -18 -57 -33 -105 l-27 -88 -181 0 -182 0 28 91 c16 50 31 97 34 105 4
11 39 14 187 14 168 0 181 -1 174 -17z m481 0 c-4 -9 -19 -56 -33 -105 l-27
-88 -158 0 c-87 0 -158 3 -158 6 0 4 14 51 30 105 l31 99 160 0 c147 0 161 -1
155 -17z m524 11 c0 -4 -14 -51 -30 -105 l-31 -99 -179 0 c-99 0 -180 3 -180
6 0 4 14 51 30 105 l31 99 179 0 c99 0 180 -3 180 -6z m480 0 c0 -4 -14 -51
-30 -105 l-31 -99 -160 0 c-147 0 -161 1 -155 17 4 9 19 56 33 105 l27 88 158
0 c87 0 158 -3 158 -6z m496 -96 l-32 -103 -183 -3 c-172 -2 -183 -1 -177 15
4 10 19 57 34 106 l27 87 181 0 182 0 -32 -102z m480 0 l-32 -103 -157 -3
c-122 -2 -157 0 -157 10 0 11 36 132 55 186 3 9 45 12 164 12 l159 0 -32 -102z
m474 -3 l0 -105 -170 0 c-100 0 -170 4 -170 9 0 8 35 126 55 189 3 9 41 12
145 12 l140 0 0 -105z"/>
<path d="M3560 2327 c-46 -23 -50 -44 -50 -315 0 -203 3 -259 15 -281 25 -49
78 -56 116 -15 l24 26 0 274 c0 260 -1 274 -20 293 -28 27 -56 33 -85 18z"/>
<path d="M4208 2329 c-14 -6 -30 -18 -34 -27 -5 -9 -11 -78 -14 -152 l-5 -135
-98 142 c-54 78 -104 149 -113 158 -22 22 -80 19 -104 -5 -19 -19 -20 -33 -20
-295 l0 -276 25 -24 c29 -30 64 -32 96 -6 23 18 24 27 29 161 l5 142 102 -150
c56 -82 110 -152 119 -156 23 -9 63 -7 84 4 36 19 41 62 34 328 -6 211 -10
257 -23 272 -21 24 -50 30 -83 19z"/>
<path d="M837 2310 c-14 -11 -28 -28 -31 -38 -7 -20 88 -501 104 -532 23 -43
81 -53 123 -20 19 15 34 48 57 123 17 56 35 113 39 127 7 21 13 8 40 -80 17
-58 37 -118 43 -133 24 -61 91 -76 136 -29 24 24 32 54 76 274 29 148 46 257
42 273 -4 16 -19 32 -40 41 -30 15 -35 15 -64 0 -34 -18 -42 -38 -63 -161 -6
-38 -14 -76 -18 -82 -4 -7 -20 31 -35 85 -16 53 -35 110 -43 125 -18 36 -58
52 -94 37 -30 -13 -41 -36 -84 -175 -15 -49 -29 -85 -31 -80 -2 6 -13 57 -24
115 -16 86 -24 109 -45 128 -32 27 -55 28 -88 2z"/>
<path d="M2325 2318 c-44 -24 -45 -30 -45 -305 l0 -264 25 -24 c30 -30 64 -32
99 -4 23 18 26 27 26 82 l0 62 78 -82 c86 -93 113 -103 157 -58 39 38 32 66
-37 146 -56 66 -60 72 -42 82 57 32 104 115 104 183 -1 76 -74 163 -156 183
-55 14 -183 14 -209 -1z m178 -147 c61 -23 35 -91 -35 -91 l-38 0 0 43 c0 24
3 47 7 50 9 10 37 9 66 -2z"/>
<path d="M2826 2309 l-26 -20 0 -274 c0 -269 0 -275 22 -295 28 -25 72 -26 98
0 20 20 28 42 32 97 l3 31 83 -74 c91 -82 117 -90 157 -49 47 46 36 69 -86
189 l-111 109 101 94 c88 82 101 99 101 127 0 21 -8 40 -23 54 -39 37 -69 29
-149 -42 l-73 -64 -6 45 c-4 33 -13 52 -33 69 -33 29 -55 30 -90 3z"/>
<path d="M1791 2310 c-197 -41 -309 -268 -218 -445 109 -213 403 -235 536 -41
89 128 72 296 -40 401 -80 75 -178 105 -278 85z m149 -173 c106 -70 96 -223
-16 -278 -88 -42 -185 -5 -219 86 -30 77 -7 143 65 193 46 31 124 31 170 -1z"/>
<path d="M295 1455 l-25 -24 0 -264 c0 -263 0 -264 23 -285 31 -29 77 -29 105
1 19 20 22 35 22 99 l0 75 58 6 c80 7 137 38 172 93 70 111 36 238 -79 297
-49 24 -65 27 -153 27 -92 0 -101 -2 -123 -25z m220 -150 c14 -13 25 -29 25
-35 0 -25 -49 -60 -85 -60 l-35 0 0 60 0 60 35 0 c25 0 44 -8 60 -25z"/>
<path d="M845 1455 l-25 -24 0 -259 c0 -247 1 -261 21 -286 27 -34 79 -36 109
-4 15 17 20 35 20 81 l0 60 42 -49 c87 -100 104 -114 140 -114 37 0 61 19 72
57 9 28 -2 48 -64 119 l-49 56 48 47 c91 89 90 207 -3 289 -46 40 -91 52 -199
52 -80 0 -90 -2 -112 -25z m206 -135 c29 -16 25 -64 -6 -78 -14 -7 -37 -12
-50 -12 -23 0 -25 4 -25 50 0 49 1 50 31 50 17 0 39 -5 50 -10z"/>
<path d="M2309 1467 c-147 -42 -250 -208 -220 -355 21 -105 105 -204 198 -236
197 -67 383 64 383 269 0 87 -15 96 -147 93 -101 -3 -107 -4 -126 -29 -14 -20
-17 -35 -12 -58 8 -36 32 -52 90 -61 l40 -6 -37 -37 c-30 -31 -43 -37 -77 -37
-82 0 -140 43 -161 118 -36 132 122 249 237 176 73 -46 157 33 108 103 -38 54
-184 86 -276 60z"/>
<path d="M2835 1455 l-25 -24 0 -259 c0 -247 1 -261 21 -286 27 -34 79 -36
109 -4 15 17 20 35 20 81 l0 59 47 -53 c90 -102 99 -109 136 -109 36 0 60 19
71 57 9 28 -2 48 -64 119 l-49 56 48 47 c88 86 91 194 7 277 -50 51 -93 64
-209 64 -80 0 -90 -2 -112 -25z m209 -138 c12 -9 17 -23 14 -42 -2 -23 -10
-31 -35 -38 -50 -15 -63 -4 -63 48 0 44 1 45 33 45 18 0 41 -6 51 -13z"/>
<path d="M3980 1469 c-130 -39 -177 -185 -91 -282 19 -21 62 -45 127 -72 103
-42 125 -65 88 -92 -32 -24 -86 -16 -144 22 -60 39 -92 40 -122 3 -43 -50 -11
-110 84 -157 102 -51 221 -40 291 27 42 40 57 75 57 134 0 94 -48 144 -187
199 -60 23 -83 37 -83 50 0 31 53 34 116 5 70 -32 88 -32 119 -1 49 48 22 107
-66 144 -61 27 -140 35 -189 20z"/>
<path d="M4546 1466 c-102 -38 -154 -151 -110 -239 27 -53 42 -64 144 -107 55
-23 104 -48 111 -56 19 -24 -16 -54 -63 -54 -43 0 -68 11 -111 46 -38 32 -62
30 -99 -6 -39 -39 -33 -71 23 -122 83 -76 236 -92 321 -33 114 80 115 233 2
305 -26 16 -78 41 -115 56 -78 29 -90 41 -64 61 27 19 56 16 109 -12 26 -14
56 -25 67 -25 54 0 86 54 64 107 -28 65 -191 112 -279 79z"/>
<path d="M3395 1459 c-44 -25 -45 -31 -45 -300 0 -330 -11 -309 171 -309 125
0 131 1 154 25 29 28 31 45 10 84 -18 36 -31 41 -116 41 l-69 0 0 40 0 40 64
0 c80 0 116 23 116 76 0 56 -27 74 -110 74 l-70 0 0 39 0 38 77 5 c68 5 79 8
100 32 29 34 29 58 -1 93 -24 27 -27 28 -143 31 -75 1 -125 -2 -138 -9z"/>
<path d="M1575 1441 c-92 -24 -173 -91 -215 -176 -18 -39 -24 -67 -24 -125 -1
-99 27 -163 100 -229 64 -58 124 -81 213 -81 167 0 301 135 301 301 0 89 -23
149 -81 213 -74 82 -198 122 -294 97z m135 -163 c58 -30 90 -77 90 -135 0 -91
-54 -152 -141 -161 -83 -8 -145 35 -170 116 -28 94 52 196 156 201 12 1 41 -9
65 -21z"/>
</g>
</svg>
